<svg xmlns="http://www.w3.org/2000/svg" width="19.159" height="32" viewBox="0 0 19.159 32">
  <path id="Path_274" data-name="Path 274" d="M80.468-1002.522a1.628,1.628,0,0,1,1.347,1.384c.022.166.037,2.391.037,6.147v5.888l.288.118a9.656,9.656,0,0,1,5.634,6.719,7.831,7.831,0,0,1,.218,2.122,7.659,7.659,0,0,1-.221,2.114,9.55,9.55,0,0,1-3.571,5.538,10.008,10.008,0,0,1-3.424,1.649,9.6,9.6,0,0,1-9.124-2.513,9.563,9.563,0,0,1-2.583-8.892,9.249,9.249,0,0,1,1.188-2.907,1.639,1.639,0,0,1,1.93-.483,1.575,1.575,0,0,1,.756.727,1.6,1.6,0,0,1-.114,1.7,6.433,6.433,0,0,0-.579,1.476,5.123,5.123,0,0,0-.188,1.642,4.5,4.5,0,0,0,.1,1.184,6.352,6.352,0,0,0,5,5.007,4.735,4.735,0,0,0,1.277.1,4.839,4.839,0,0,0,1.2-.081,6.777,6.777,0,0,0,2.383-1.007,7.115,7.115,0,0,0,1.671-1.671,6.378,6.378,0,0,0,.026-7.125,6.331,6.331,0,0,0-3.675-2.62,1.861,1.861,0,0,1-.945-.469,1.476,1.476,0,0,1-.435-.69c-.052-.181-.059-.86-.059-6.981v-6.781l.085-.236a1.623,1.623,0,0,1,1.247-1.055A1.123,1.123,0,0,1,80.468-1002.522Zm-5.21,1.679A2.008,2.008,0,0,1,76.642-998a2.091,2.091,0,0,1-1.166,1.018,2.292,2.292,0,0,1-1.262,0A2,2,0,0,1,72.86-999,1.985,1.985,0,0,1,75.258-1000.843Zm.266,5.066a2.178,2.178,0,0,1,.793.531,2,2,0,0,1,.229,2.413,1.913,1.913,0,0,1-1.579.93,1.87,1.87,0,0,1-1.524-.576,1.992,1.992,0,0,1,.845-3.335A2.515,2.515,0,0,1,75.524-995.777Zm3.487,12.408a3.317,3.317,0,0,1,2.568,2.284,2.24,2.24,0,0,1,.1.959,2.239,2.239,0,0,1-.1.959,3.347,3.347,0,0,1-1.361,1.8,3.174,3.174,0,0,1-1.8.524,3.174,3.174,0,0,1-1.8-.524,3.347,3.347,0,0,1-1.361-1.8,2.239,2.239,0,0,1-.1-.959,2.24,2.24,0,0,1,.1-.959,3.327,3.327,0,0,1,2.074-2.155A3.333,3.333,0,0,1,79.011-983.369Z" transform="translate(-68.832 1002.552)" fill="#fff"/>
</svg>
