<?xml version="1.0" encoding="utf-8"?>
<!-- Generator: Adobe Illustrator 25.4.1, SVG Export Plug-In . SVG Version: 6.00 Build 0)  -->
<svg version="1.1" id="Layer_1" xmlns="http://www.w3.org/2000/svg" xmlns:xlink="http://www.w3.org/1999/xlink" x="0px" y="0px"
	 viewBox="0 0 559.9 381.5" style="enable-background:new 0 0 559.9 381.5;" xml:space="preserve">
<style type="text/css">
	.st0{fill:#FFFFFF;}
	.st1{fill:url(#SVGID_1_);}
	.st2{fill:url(#SVGID_00000070830422791647990410000001694396066641770917_);}
	.st3{fill:#EAE5DD;}
	.st4{fill:url(#SVGID_00000155116253714761319150000009633499096495833479_);}
	.st5{fill:#FBB482;}
	.st6{fill:#FFCE65;}
	.st7{fill:#242057;}
	.st8{fill:url(#SVGID_00000052792318109287667190000014521489048050691257_);}
	.st9{fill:#D8E6EF;}
	.st10{font-family:'KantumruyPro-Bold';}
	.st11{font-size:21.14px;}
</style>
<g id="Layer_2_00000074443420315492415300000007003296620877223326_">
	<g id="Layer_1-2">
		<path class="st0" d="M344.5,190.7c5.9-46.9-23.8-72.3-53.7-80.4c-16.1-4.4-40.6-4.3-61.4,8.9c-15.6,9.9-25.6,25.4-29.1,44.9
			c-4.3,24.1,2.1,44.2,7.3,60.4c3.6,11.2,6.7,20.9,5.4,28.9c-2,12-2,23.9,6.3,33.9c-7,2.3-9,6-9.4,8.6c-0.5,2.9,0.5,5.9,2.9,8.9
			c-2.4,1.7-4.2,4.3-4.9,7.2c-0.8,3.8-0.1,7.8,1.9,11.2l1.2,2c0.2,0.3,0.4,0.7,0.7,1c0,0.1,0,0.2,0,0.3l0.4,33.5
			c0,1.4,1.1,2.5,2.5,2.4c0.9,0,1.6-0.5,2.1-1.2l3.2-5.4V379c0,1.4,1.1,2.5,2.5,2.5c0.3,0,0.6-0.1,0.9-0.2c0.5-0.2,0.9-0.5,1.2-1
			l11.9-20v6.3c0,1.4,1.1,2.5,2.4,2.5c0.9,0,1.7-0.5,2.1-1.2l18-30.1c0.4-0.5,0.8-1.1,1-1.8c1.3-5-5.9-10-19.1-13.6
			c-10.5-2.8-19.5-2.8-26.1-1.1c-1.7-2.3-2.3-5.3-1.8-8.1c0.5-2,1.7-3.7,3.5-4.7c4.8,4.1,12.2,8,21.7,11.5
			c7.7,2.8,21.3,6.8,26.1,2.4c1.3-1.2,1.8-3,1.3-4.7c-1.5-5.6-12.7-11.6-28.6-15.2c-8.5-1.9-14.9-1.6-19.5,0
			c-1.9-2.2-2.8-4.1-2.5-5.6c0.3-1.9,2.9-4,8.5-5.3c6,5.2,14.9,9.8,27.8,13.3c15.5,4.2,19.4,2.2,21,0.3c1.1-1.4,1.3-3.4,0.5-5
			c-2.9-6.1-19.2-14.8-38.5-14.7c-3.1,0-6.2,0.2-9.3,0.6c-8.2-8.4-9-19-6.9-31.8c1.5-9.3-1.7-19.5-5.5-31.3
			c-5.2-16.4-11.2-35.1-7.1-58c3.2-18,12.5-32.4,26.8-41.5c19.4-12.3,42.3-12.3,57.4-8.3c13.4,3.6,56.9,19.9,50,74.9
			c-0.7,5.4-1.8,10.7-3.5,15.8c-5.3,13.9-13.8,22.1-22.6,30.7c-6.5,6.3-13.1,12.8-18.6,21.7c-0.6,0.8-1.1,1.5-1.6,2.4
			c-4.4,7.5-13.3,23-25.2,19.6l-0.6-0.2c-9.9-3.3-14.9-13.4-14-25.5l-5.2-1.5c-0.9,11.3,3.1,26.7,17.7,31.6c0.3,0.1,0.6,0.2,0.9,0.3
			c15.7,4.5,26-13.2,31-21.8c0.3-0.5,0.6-0.9,0.9-1.4c5.3-8.8,11.9-15.2,18.3-21.5c9-8.8,18.2-17.7,24-32.9
			C342.7,201.9,343.8,196.3,344.5,190.7z M241.2,357.7v-6.3c0-1.4-1.1-2.5-2.5-2.5c-0.9,0-1.7,0.5-2.1,1.2l-11.9,20v-23.2
			c0-1.4-1.1-2.5-2.5-2.5c-0.9,0-1.7,0.5-2.1,1.2l-3.3,5.6l-0.3-20.5c4.8,3.4,10.1,5.9,15.7,7.4c5.5,1.4,13.3,2.9,19.2,2.5
			L241.2,357.7z M238.2,327.1c10.9,2.9,14.6,6.2,15.4,7.3c-1.3,0.7-7.1,1.9-21.2-1.6c-5.6-1.2-10.8-3.8-15.1-7.4
			C222.5,324.6,229.7,324.8,238.2,327.1L238.2,327.1z M234.6,307.1c17.3,3.9,24,9.4,24.7,11.3c-1.2,0.6-7,1.4-20.7-3.5
			c-6.2-2.1-12.2-5-17.6-8.7C225.5,305.7,230.1,306,234.6,307.1L234.6,307.1z M233,290.2c17.9-0.1,31.8,8.1,33.7,11.5
			c-1.2,0.3-5,0.8-15.3-2.1c-9.6-2.6-16.8-5.7-22.1-9.3C230.4,290.3,231.7,290.3,233,290.2z"/>
		<path class="st0" d="M286.3,224.5c1.2-6,1.2-12.2-0.2-18.1c-0.6-2.8-1.7-5.5-3.3-8c-0.3-0.5-0.8-0.8-1.4-1l-26.3-7.5
			c-0.6-0.2-1.2-0.1-1.8,0.1c-2.6,1.3-4.9,3-6.9,5.1c-4.3,4.4-7.6,9.6-9.7,15.3c-2.3,6.4-3.7,13-4.1,19.8c-0.1,1.1,0.5,2.2,1.6,2.6
			c1.1,0.5,2.3,0.2,3.1-0.7c1.3-1.5,2.8-2.9,4.3-4.3c-0.3,4.3,0.1,8.7,1.1,12.9c1.1,4.7,2.9,9.1,5.5,13.2c0.6,0.9,1.4,1.6,2.5,1.9
			c0.9,0.3,1.9,0.2,2.8-0.3c3.6-1.8,6.9-4,9.9-6.7c3.9-3.5,7.1-7.6,9.6-12.2c0.6,1.9,1.1,3.8,1.4,5.8l0.1,0.3
			c0.3,1.1,1.1,1.9,2.2,2.1c1.1,0.1,2.2-0.4,2.7-1.4C282.6,237.6,285,231.2,286.3,224.5z M277.7,236.5c-0.8-2.7-1.8-5.2-3.2-6.6
			c-0.5-0.6-1.4-0.8-2.1-0.7c-0.8,0.2-1.4,0.7-1.7,1.5c-2.2,5.7-5.7,10.8-10.3,14.9c-2.6,2.3-5.4,4.2-8.4,5.8
			c-2.2-3.6-3.7-7.4-4.7-11.5c-1.3-5.2-1.4-10.6-0.4-15.9c0.2-0.8-0.1-1.6-0.6-2.2c-0.3-0.3-0.6-0.5-1-0.6s-0.8-0.1-1.2,0
			c-2,0.5-4.2,2.2-6.1,3.9c0.6-4.4,1.7-8.8,3.3-13c1.9-5.1,4.8-9.8,8.6-13.7c1.5-1.5,3.1-2.8,4.9-3.8l0.5,0.1l-3.7,13.1
			c-0.3,1.2,0.5,2.5,1.7,2.8s2.3-0.4,2.7-1.5l3.7-13l5.3,1.5l-4.8,17c-0.3,1.2,0.5,2.5,1.7,2.8s2.3-0.4,2.7-1.5l4.8-17l5.2,1.5
			l-3.7,13c-0.3,1.2,0.5,2.5,1.7,2.8s2.3-0.4,2.7-1.5l3.7-13l0.5,0.1c1,1.8,1.7,3.8,2.2,5.9c1.2,5.3,1.2,10.8,0.1,16.2
			C280.9,228.2,279.5,232.4,277.7,236.5L277.7,236.5z"/>
		
			<linearGradient id="SVGID_1_" gradientUnits="userSpaceOnUse" x1="-5939.1406" y1="-2364.6331" x2="-5905.7207" y2="-2364.4631" gradientTransform="matrix(0.95 0.31 0.31 -0.95 6661.6802 -240.77)">
			<stop  offset="0" style="stop-color:#F37324"/>
			<stop  offset="0.5" style="stop-color:#F8A341"/>
			<stop  offset="1" style="stop-color:#FDD661"/>
		</linearGradient>
		<path class="st1" d="M328.7,131.6l5.5,34.6c0.6,4.4-0.2,8.9-2.2,12.9l-19.8,38.6c-0.6,1.3-1.9,1.4-2.3,0.2l-13.3-36.4L328.7,131.6
			z"/>
		
			<linearGradient id="SVGID_00000132089775988725561300000014496450804087919507_" gradientUnits="userSpaceOnUse" x1="7001.3462" y1="-2290.6106" x2="6968.0132" y2="-2290.5605" gradientTransform="matrix(-0.9546 -0.298 0.298 -0.9546 7593.5088 45.9771)">
			<stop  offset="0" style="stop-color:#FDD661"/>
			<stop  offset="0.5" style="stop-color:#F8A341"/>
			<stop  offset="1" style="stop-color:#F37324"/>
		</linearGradient>
		<path style="fill:url(#SVGID_00000132089775988725561300000014496450804087919507_);" d="M253.5,108.1l-24.3,25.1
			c-3,3.3-5,7.4-5.6,11.8l-5.9,42.9c-0.2,1.4,0.8,2.2,1.8,1.5l31.7-22.1L253.5,108.1z"/>
		<path class="st0" d="M349.2,54.4C344.6,28,336,6.7,327.5,4S298,15.1,280.9,33.1s-23.1,35.6-27.8,56.2l-15,90.2l62.9,19.6l39-82.7
			C348,96.8,353.8,80.9,349.2,54.4z"/>
		<path class="st3" d="M343,28.7l-13-4.1c3.9,13.8,7.6,41.3,2.3,63s-37.8,97.9-51,93.8l-31.6-9.9c-5.1-1.6-3.8-38.1-3.8-38.1
			l-7.6,46l0,0L238,181c-0.6,3.7,1.6,7.2,5.1,8.3l48.5,15.1c3.5,1.1,7.4-0.6,8.9-3.9l0.7-1.4l0,0l39-82.7c7.9-19.6,13.7-35.5,9.1-62
			C347.8,45.7,345.7,37.1,343,28.7z"/>
		<ellipse transform="matrix(0.298 -0.9546 0.9546 0.298 132.3074 353.896)" class="st3" cx="306.8" cy="87" rx="29.6" ry="31.4"/>
		<path class="st3" d="M293,156.7c0,0-2.8,16.1-0.8,21.7s-19.9,2.8-19.9,2.8L293,156.7z"/>
		
			<linearGradient id="SVGID_00000146472769531567875090000016797727394340232858_" gradientUnits="userSpaceOnUse" x1="226.8289" y1="819.8046" x2="271.1089" y2="819.8046" gradientTransform="matrix(0.95 0.3 0.3 -0.95 -155.69 717.87)">
			<stop  offset="0" style="stop-color:#FDD661"/>
			<stop  offset="0.5" style="stop-color:#F8A341"/>
			<stop  offset="1" style="stop-color:#F37324"/>
		</linearGradient>
		<path style="fill:url(#SVGID_00000146472769531567875090000016797727394340232858_);" d="M343,28.7l-42.3-13.2
			C311.8,7.2,322.1,2.4,327.5,4S338.5,15.1,343,28.7z"/>
		<path class="st5" d="M237.9,181.1c-0.6,3.7,1.6,7.2,5.1,8.3l48.5,15.1c3.5,1.1,7.4-0.6,8.9-3.9l0.7-1.4l-63-19.7L237.9,181.1z"/>
		<path class="st6" d="M298.4,139.6c0.6-3.9-4.5-13.1-8.6-14.4s-13.5,3.4-15.3,6.9s-9.3,58.9-5.7,60S297.8,143.5,298.4,139.6z"/>
		<circle class="st6" cx="303" cy="82.7" r="29.6"/>
		<circle class="st5" cx="303" cy="82.7" r="23.9"/>
		<path class="st5" d="M331.3,91.5c-4.9,15.6-21.4,24.3-37,19.4c-9.7-3-17.1-10.8-19.7-20.6c10.6,12.5,29.2,14,41.7,3.5
			c8.7-7.4,12.4-19.2,9.5-30.2C332.2,71.3,334.3,81.8,331.3,91.5z"/>
		<circle class="st7" cx="303.1" cy="82.7" r="21.6"/>
		
			<linearGradient id="SVGID_00000001621724598626717160000009932193922085593237_" gradientUnits="userSpaceOnUse" x1="229.8589" y1="749.5496" x2="263.4989" y2="749.5496" gradientTransform="matrix(0.95 0.3 0.3 -0.95 -155.69 717.87)">
			<stop  offset="0" style="stop-color:#3954A4"/>
			<stop  offset="1" style="stop-color:#2A3478"/>
		</linearGradient>
		<circle style="fill:url(#SVGID_00000001621724598626717160000009932193922085593237_);" cx="301.6" cy="79.2" r="16.8"/>
		<ellipse transform="matrix(0.8857 -0.4642 0.4642 0.8857 1.0433 146.0675)" class="st9" cx="297.2" cy="70.9" rx="8.6" ry="6.5"/>
		<path class="st5" d="M268.8,192.2c-0.8-0.2-1.1-3.1-0.9-7.3c0.1,0.1,1.9,3.2,4.5,0.2S289,144,289.5,138s-8.5-10.9-8.5-10.9l0,0
			l4-1.6c1.6-0.5,3.3-0.6,4.9-0.3c4.1,1.3,9.2,10.5,8.6,14.4S272.5,193.4,268.8,192.2z"/>
		<path class="st0" d="M194.3,33.2c0.4-0.1,0.7-0.4,0.9-0.8c2.1-4.1,5.3-7.4,9.4-9.6c0.8-0.4,1.1-1.4,0.7-2.2
			c-0.4-0.8-1.4-1.1-2.2-0.7c0,0-0.1,0-0.1,0.1c-4.6,2.5-8.3,6.3-10.7,11c-0.4,0.8-0.1,1.8,0.7,2.2
			C193.4,33.3,193.8,33.3,194.3,33.2L194.3,33.2z"/>
		<path class="st0" d="M247.8,17.7c-0.1-0.1-0.1-0.3-0.2-0.4c-1.5-2.8-8-1.3-15.4,1.5l-1.3,0.5c-10.8-10.8-28.3-10.8-39.1,0
			c-6.8,6.9-9.6,16.8-7.3,26.2l-1.2,0.9c-9.2,7.3-9.5,10-8.5,11.8c1.4,2.4,6.6,1.6,12.8-0.5c0.9-0.3,1.8-0.6,2.6-1
			c9.8,11.7,27.3,13.3,39,3.5c8.7-7.3,12.1-19.2,8.5-30l1.4-1.1c1.6-1.2,2.9-2.3,4-3.3C247.9,21.3,248.4,19.1,247.8,17.7z
			 M233.3,48.9L233.3,48.9c-3.9,8.5-12.2,13.9-21.4,14.1c-3.2,0.1-6.4-0.5-9.3-1.7l-0.2-0.1l-0.7-0.3l-0.7-0.3l-0.2-0.1
			c-2.6-1.3-4.9-3.1-6.9-5.3c9.5-4,19.4-9.5,21.3-10.6c6.7-3.7,13.2-7.8,19.4-12.2c1.5,5.2,1.2,10.7-0.8,15.7
			C233.5,48.4,233.4,48.6,233.3,48.9z M209,33.8c6.7-3.8,13.6-7.2,20.6-10.3c1.5,1.7,2.7,3.6,3.6,5.6c-6.4,4.5-13,8.7-19.9,12.5
			c-7,4-14.3,7.6-21.8,10.8c-0.9-1.4-1.7-3-2.4-4.5c-0.2-0.4-0.3-0.9-0.5-1.3C195.2,41.9,202,37.6,209,33.8z M187.9,43
			c-2.2-13,6.7-25.4,19.7-27.5c7-1.2,14.1,0.8,19.5,5.4c-9,4-17.9,8.9-19.7,9.9c-6.1,3.4-11.9,7-16.9,10.4
			C189.6,41.8,188.7,42.4,187.9,43z M186.3,54.5c-4.2,1.5-7.2,2.1-8.4,1.9c0.6-1.3,3.2-4,7.7-7.5c0.7,1.7,1.5,3.3,2.5,4.9
			L186.3,54.5z M240.1,23.8c-1.1,0.9-2.3,2-3.8,3.1c-0.8-1.7-1.8-3.4-3-4.9c0.9-0.3,1.7-0.7,2.5-0.9c4.4-1.5,7.4-2.2,8.6-2
			C244,20,242.6,21.7,240.1,23.8z"/>
		<path class="st0" d="M287.8,3.8c0.8,0,1.6-0.2,2.4-0.5c-0.8-0.3-1.6-0.5-2.4-0.5c0-1-0.2-1.9-0.5-2.8c-0.3,0.9-0.5,1.9-0.5,2.8
			c-0.8,0-1.6,0.2-2.4,0.5c0.8,0.3,1.6,0.5,2.4,0.5c0,1,0.2,1.9,0.5,2.8C287.6,5.7,287.8,4.8,287.8,3.8z"/>
		<path class="st0" d="M389.9,30.2c0.6,0,1.2-0.2,1.7-0.4c-0.6-0.2-1.1-0.4-1.7-0.4c0-0.8-0.1-1.5-0.4-2.3c-0.2,0.7-0.4,1.5-0.4,2.3
			c-0.6,0-1.2,0.1-1.7,0.4c0.6,0.2,1.1,0.4,1.7,0.4c0,0.8,0.1,1.5,0.4,2.3C389.8,31.8,389.9,31,389.9,30.2z"/>
		<path class="st0" d="M450.4,83.4c0.6,0,1.3-0.2,1.8-0.4c-0.6-0.2-1.2-0.4-1.8-0.4c0-0.8-0.1-1.6-0.4-2.4c-0.3,0.8-0.4,1.6-0.4,2.4
			c-0.6,0-1.3,0.2-1.8,0.4c0.6,0.3,1.2,0.4,1.8,0.4c0,0.8,0.1,1.6,0.4,2.4C450.2,85,450.3,84.2,450.4,83.4z"/>
		<path class="st0" d="M145.6,20c0.6,0,1.3-0.2,1.8-0.4c-0.6-0.3-1.2-0.4-1.8-0.4c0-0.8-0.1-1.6-0.4-2.4c-0.3,0.8-0.4,1.6-0.4,2.4
			c-0.6,0-1.3,0.2-1.8,0.4c0.6,0.2,1.2,0.4,1.8,0.4c0,0.8,0.2,1.6,0.4,2.4C145.5,21.6,145.6,20.8,145.6,20z"/>
		<path class="st0" d="M375.4,66.7c1.1,0,2.1-0.3,3.1-0.7c-1-0.4-2-0.6-3.1-0.7c0-1.4-0.2-2.7-0.7-4c-0.4,1.3-0.7,2.6-0.7,4
			c-1,0-2.1,0.3-3,0.7c1,0.4,2,0.6,3.1,0.7c0,1.4,0.3,2.7,0.7,4C375.2,69.4,375.4,68.1,375.4,66.7z"/>
		<path class="st0" d="M163.5,36.4c0,0.5-0.4,0.8-0.8,0.8s-0.8-0.4-0.8-0.8c0-0.5,0.4-0.8,0.8-0.8S163.5,35.9,163.5,36.4L163.5,36.4
			z"/>
		<path class="st0" d="M413.7,40.3c0,0.4-0.4,0.8-0.8,0.8s-0.8-0.4-0.8-0.8c0-0.4,0.4-0.8,0.8-0.8C413.4,39.5,413.7,39.9,413.7,40.3
			L413.7,40.3z"/>
		<path class="st0" d="M54.5,24c0.6,0,1.2-0.2,1.7-0.4c-0.6-0.2-1.1-0.4-1.7-0.4c0-0.8-0.1-1.5-0.4-2.3c-0.2,0.7-0.4,1.5-0.4,2.3
			c-0.6,0-1.2,0.1-1.7,0.4c0.6,0.2,1.1,0.4,1.7,0.4c0,0.8,0.1,1.5,0.4,2.3C54.4,25.5,54.5,24.8,54.5,24z"/>
		<path class="st0" d="M111.8,47.3c1.1,0,2.1-0.3,3.1-0.7c-1-0.4-2-0.6-3.1-0.7c0-1.4-0.2-2.7-0.7-4c-0.4,1.3-0.7,2.6-0.7,4
			c-1.1,0-2.1,0.3-3.1,0.7c1,0.4,2,0.6,3.1,0.7c0,1.4,0.3,2.7,0.7,4C111.6,50.1,111.8,48.7,111.8,47.3z"/>
		<path class="st0" d="M78.3,34c0,0.4-0.4,0.8-0.8,0.8s-0.8-0.4-0.8-0.8c0-0.4,0.4-0.8,0.8-0.8S78.3,33.6,78.3,34L78.3,34z"/>
		<path class="st0" d="M525.7,30.7c0.7,0,1.5-0.2,2.2-0.5c-0.7-0.3-1.4-0.5-2.2-0.5c0-1-0.2-1.9-0.5-2.8c-0.3,0.9-0.5,1.9-0.5,2.8
			c-0.7,0-1.5,0.2-2.2,0.5c0.7,0.3,1.4,0.5,2.2,0.5c0,1,0.2,1.9,0.5,2.8C525.6,32.6,525.7,31.7,525.7,30.7z"/>
		<path class="st0" d="M483.7,41.9c0,1-0.9,1.9-1.9,1.9s-1.9-0.9-1.9-1.9s0.9-1.9,1.9-1.9S483.7,40.8,483.7,41.9L483.7,41.9z"/>
		<path class="st0" d="M138.3,85.4c0,0.5-0.4,0.8-0.8,0.8c-0.5,0-0.8-0.4-0.8-0.8c0-0.5,0.4-0.8,0.8-0.8l0,0
			C137.9,84.6,138.3,85,138.3,85.4z"/>
		<path class="st0" d="M444,10.3c0,0.5-0.4,0.8-0.8,0.8c-0.5,0-0.8-0.4-0.8-0.8c0-0.5,0.4-0.8,0.8-0.8l0,0
			C443.7,9.5,444,9.8,444,10.3z"/>
		<path class="st0" d="M191.7,244.8c0.1,0,0.3,0.1,0.4,0.2c0.2,0.2,0.2,0.6,0,0.8c-0.7,0.7-1.4,1.5-2.2,2.2c-0.2,0.2-0.6,0.2-0.8,0
			l0,0c-0.2-0.2-0.2-0.6,0-0.8l0,0c0.7-0.7,1.4-1.4,2.1-2.1C191.3,244.9,191.5,244.8,191.7,244.8z M187.3,249c0.2,0,0.3,0.1,0.4,0.2
			c0.2,0.3,0.2,0.6-0.1,0.8c-0.8,0.6-1.6,1.3-2.4,1.9c-0.3,0.2-0.6,0.1-0.8-0.1s-0.1-0.6,0.1-0.8c0.8-0.6,1.6-1.3,2.4-1.9
			C187,249,187.2,249,187.3,249z M182.5,252.7c0.2,0,0.4,0.1,0.4,0.3c0.2,0.3,0.1,0.6-0.1,0.8l0,0c-0.8,0.6-1.7,1.1-2.6,1.7
			c-0.3,0.1-0.6,0-0.8-0.3c-0.1-0.2,0-0.5,0.2-0.7c0.9-0.5,1.7-1.1,2.5-1.6C182.2,252.7,182.3,252.7,182.5,252.7L182.5,252.7z
			 M177.2,255.9c0.2,0,0.4,0.1,0.5,0.3c0.1,0.3,0,0.6-0.2,0.8c-0.9,0.5-1.8,0.9-2.8,1.4c-0.3,0.1-0.6,0-0.8-0.3l0,0
			c-0.1-0.3,0-0.6,0.3-0.8c0.9-0.4,1.8-0.9,2.7-1.4C177,255.9,177.1,255.9,177.2,255.9L177.2,255.9z M171.7,258.5
			c0.2,0,0.4,0.1,0.5,0.4s0,0.6-0.3,0.8l0,0c-0.9,0.4-1.9,0.8-2.9,1.1c-0.3,0.1-0.6,0-0.8-0.3l0,0c-0.1-0.3,0-0.6,0.4-0.8
			c1-0.4,1.9-0.7,2.8-1.1C171.5,258.5,171.6,258.5,171.7,258.5L171.7,258.5z M166,260.6c0.3,0,0.6,0.3,0.6,0.6
			c0,0.2-0.2,0.5-0.4,0.5c-1,0.3-1.9,0.6-2.9,0.9c-0.3,0.1-0.6-0.1-0.7-0.4c-0.1-0.3,0.1-0.6,0.4-0.7l0,0
			C164,261.2,165,260.9,166,260.6C165.9,260.6,166,260.6,166,260.6z M160.2,262.3c0.3,0,0.6,0.3,0.6,0.6c0,0.3-0.2,0.5-0.5,0.6
			c-1,0.2-2,0.5-3,0.7c-0.3,0.1-0.6-0.1-0.7-0.5c-0.1-0.3,0.1-0.6,0.4-0.7l0,0c1-0.2,2-0.4,3-0.6
			C160.1,262.3,160.1,262.3,160.2,262.3L160.2,262.3z M154.2,263.5c0.3,0,0.5,0.2,0.6,0.5c0,0.3-0.2,0.6-0.5,0.7c-1,0.2-2,0.3-3,0.5
			c-0.3,0-0.6-0.3-0.6-0.6c0-0.3,0.2-0.5,0.4-0.6c1-0.1,2-0.3,3-0.5C154.1,263.5,154.1,263.5,154.2,263.5z M148.2,264.3
			c0.3,0,0.5,0.2,0.6,0.5c0,0.3-0.2,0.6-0.5,0.6l0,0c-1,0.1-2,0.2-3,0.3c-0.3,0-0.6-0.2-0.6-0.5s0.2-0.6,0.5-0.6
			C146.1,264.5,147.1,264.4,148.2,264.3L148.2,264.3z M142.1,264.7c0.3,0,0.5,0.3,0.6,0.6c0,0.3-0.2,0.6-0.6,0.6l0,0
			c-1,0-2,0.1-3.1,0.1c-0.3,0-0.6-0.2-0.6-0.6l0,0c0-0.3,0.2-0.6,0.6-0.6l0,0c1,0,2-0.1,3-0.1H142.1z M136,264.9
			c0.3,0,0.6,0.3,0.6,0.6c0,0.3-0.3,0.6-0.6,0.6c-1,0-2,0-3.1,0c-0.3,0-0.6-0.3-0.6-0.6c0-0.3,0.3-0.6,0.6-0.6c1,0,2,0,3,0H136z"/>
		<path class="st0" d="M112.1,245c-4.7,0-8.6,3.8-8.6,8.6c0,2.5,1.1,4.9,3.1,6.6v6.7c0,1,0.4,2,1.1,2.8c2.6,2.1,6.2,2.1,8.8,0
			c0.7-0.7,1.1-1.7,1.1-2.8v-6.7c3.6-3,4.1-8.5,1.1-12.1C117,246.1,114.6,245,112.1,245z M117.8,253.6c0,3.1-2.5,5.7-5.7,5.7
			s-5.7-2.5-5.7-5.7c0-3.1,2.5-5.7,5.7-5.7l0,0C115.2,247.9,117.7,250.4,117.8,253.6L117.8,253.6z M109.4,261.7l0.2,0.1
			c1.6,0.5,3.3,0.5,4.9,0l0.2-0.1v5.1l0,0l0,0c0,0.2-0.1,1.4-2.7,1.4s-2.7-1.2-2.7-1.4L109.4,261.7L109.4,261.7z"/>
		<path class="st0" d="M112.1,242.8c0.7,0,1.3-0.6,1.3-1.3V239c0-0.7-0.6-1.3-1.3-1.3c-0.7,0-1.3,0.6-1.3,1.3v2.5
			C110.8,242.2,111.4,242.8,112.1,242.8z"/>
		<path class="st0" d="M121.1,246c0.4,0,0.7-0.1,0.9-0.4l1.8-1.8c0.5-0.5,0.5-1.4,0-1.9s-1.4-0.5-1.9,0l-1.8,1.8
			c-0.5,0.5-0.5,1.4,0,1.9C120.4,245.9,120.8,246,121.1,246L121.1,246z"/>
		<path class="st0" d="M126.7,251.7h-2.5c-0.7,0.1-1.3,0.7-1.2,1.5c0.1,0.6,0.6,1.2,1.2,1.2h2.5c0.7,0.1,1.4-0.5,1.5-1.2
			s-0.5-1.4-1.2-1.5C126.9,251.7,126.8,251.7,126.7,251.7z"/>
		<path class="st0" d="M122.9,260.3c-0.5-0.5-1.4-0.5-1.9,0c-0.3,0.2-0.4,0.6-0.4,0.9c0,0.4,0.1,0.7,0.4,1l1.8,1.8
			c0.6,0.5,1.4,0.4,1.9-0.1c0.4-0.5,0.4-1.2,0-1.8L122.9,260.3z"/>
		<path class="st0" d="M101.3,260.2l-1.8,1.8c-0.3,0.3-0.4,0.6-0.4,1s0.1,0.7,0.4,0.9c0.3,0.3,0.6,0.4,0.9,0.4
			c0.4,0,0.7-0.1,0.9-0.4l1.8-1.8c0.5-0.6,0.4-1.4-0.1-1.9C102.5,259.9,101.8,259.9,101.3,260.2L101.3,260.2z"/>
		<path class="st0" d="M102.8,245.6c0.3,0.3,0.6,0.4,1,0.4c0.7,0,1.3-0.6,1.3-1.4c0-0.3-0.1-0.7-0.4-0.9l-1.8-1.8
			c-0.5-0.6-1.3-0.6-1.9-0.1s-0.6,1.3-0.1,1.9l0.1,0.1L102.8,245.6z"/>
		<path class="st0" d="M101.3,253.1c0-0.7-0.6-1.3-1.3-1.3l0,0h-2.5c-0.7-0.1-1.4,0.5-1.5,1.2s0.5,1.4,1.2,1.5c0.1,0,0.2,0,0.2,0
			h2.6C100.8,254.4,101.3,253.8,101.3,253.1z"/>
		<text transform="matrix(1 0 0 1 31.9849 300)" class="st0 st10 st11">ខ្លឹមសារឌីជីថល</text>
		<path class="st0" d="M140.6,144.1l-2-1.9c-0.2-0.2-0.2-0.5,0-0.6c0.2-0.2,0.4-0.2,0.6,0l0,0l2,1.9c0.2,0.2,0.2,0.5,0,0.6l0,0
			C141,144.3,140.7,144.3,140.6,144.1L140.6,144.1z M142.6,145.3c0.2-0.2,0.5-0.2,0.6,0l0,0c0.7,0.6,1.4,1.2,2.1,1.8
			c0.2,0.1,0.2,0.4,0.1,0.6c0,0,0,0,0,0.1c-0.1,0.2-0.4,0.2-0.6,0.1l0,0c-0.7-0.6-1.4-1.2-2.1-1.8l0,0
			C142.4,145.8,142.4,145.6,142.6,145.3C142.5,145.3,142.6,145.3,142.6,145.3L142.6,145.3z M136.6,140.2c-0.6-0.7-1.3-1.3-1.9-2
			c-0.2-0.2-0.2-0.5,0-0.6c0.2-0.2,0.5-0.2,0.6,0l0,0c0.6,0.7,1.2,1.3,1.9,2c0.2,0.2,0.2,0.5,0,0.6
			C137,140.4,136.7,140.4,136.6,140.2z M146.8,148.9c0.2-0.2,0.4-0.2,0.6-0.1c0.7,0.6,1.5,1.1,2.2,1.6c0.2,0.1,0.3,0.4,0.1,0.6l0,0
			c-0.1,0.2-0.4,0.2-0.6,0.1c-0.8-0.5-1.5-1.1-2.2-1.7l0,0C146.7,149.3,146.7,149,146.8,148.9L146.8,148.9z M132.8,136.1
			c-0.6-0.7-1.2-1.4-1.8-2.1c-0.2-0.2-0.1-0.5,0.1-0.6c0.2-0.2,0.5-0.1,0.6,0.1l0,0c0.6,0.7,1.2,1.4,1.8,2.1c0.2,0.2,0.2,0.5,0,0.6
			C133.3,136.3,133,136.3,132.8,136.1L132.8,136.1z M151.2,152.1c0.1-0.2,0.4-0.3,0.6-0.1l0,0c0.8,0.5,1.5,1,2.3,1.5
			c0.2,0.1,0.3,0.4,0.1,0.6c-0.1,0.2-0.4,0.3-0.6,0.2l0,0c-0.8-0.5-1.6-1-2.3-1.5l-0.1-0.1C151.1,152.5,151.1,152.3,151.2,152.1
			L151.2,152.1z M155.9,155.1c0.1-0.2,0.4-0.3,0.6-0.2l0,0c0.8,0.4,1.6,0.9,2.4,1.3c0.2,0.1,0.3,0.4,0.2,0.6
			c-0.1,0.2-0.4,0.3-0.6,0.2c-0.8-0.4-1.6-0.9-2.4-1.3c0,0-0.1,0-0.1-0.1C155.8,155.4,155.8,155.2,155.9,155.1L155.9,155.1z
			 M160.8,157.6c0.1-0.2,0.4-0.3,0.6-0.2c0.8,0.4,1.6,0.8,2.5,1.1c0.2,0.1,0.3,0.4,0.2,0.6c-0.1,0.2-0.4,0.3-0.6,0.2l0,0
			c-0.9-0.4-1.7-0.8-2.5-1.1l-0.1-0.1C160.7,158,160.7,157.8,160.8,157.6L160.8,157.6z M165.8,159.9c0.1-0.2,0.4-0.4,0.6-0.3
			c0.8,0.3,1.7,0.6,2.6,0.9c0.2,0.1,0.3,0.4,0.2,0.6c-0.1,0.2-0.3,0.3-0.5,0.2c-0.9-0.3-1.8-0.6-2.6-1c-0.1,0-0.1,0-0.1-0.1
			C165.8,160.2,165.8,160,165.8,159.9L165.8,159.9z M171,161.7c0.1-0.2,0.3-0.4,0.6-0.3l0,0c0.9,0.3,1.8,0.5,2.6,0.7
			c0.2,0.1,0.4,0.3,0.3,0.5l0,0c-0.1,0.2-0.3,0.4-0.6,0.3c-0.9-0.2-1.8-0.5-2.7-0.8c-0.1,0-0.1-0.1-0.2-0.1
			C171.1,162,171,161.8,171,161.7L171,161.7z M176.4,163.1c0-0.2,0.3-0.4,0.5-0.4l0,0c0.9,0.2,1.8,0.4,2.7,0.5
			c0.2,0,0.4,0.3,0.4,0.5l0,0c0,0.2-0.3,0.4-0.5,0.4c-0.9-0.2-1.8-0.3-2.7-0.5c-0.1,0-0.2-0.1-0.2-0.1
			C176.4,163.4,176.4,163.2,176.4,163.1L176.4,163.1z M181.8,164.1c0-0.2,0.3-0.4,0.5-0.4l0,0c0.9,0.1,1.8,0.2,2.7,0.3
			c0.2,0,0.4,0.3,0.4,0.5c0,0.3-0.2,0.4-0.5,0.4c-0.9-0.1-1.9-0.2-2.8-0.3c-0.1,0-0.2,0-0.2-0.1S181.8,164.2,181.8,164.1
			L181.8,164.1z"/>
		<path class="st0" d="M80,104.8c1.7,0,3-1.3,3-3s-1.3-3-3-3s-3,1.3-3,3S78.3,104.8,80,104.8z M80,99.8c1.1,0,2,0.9,2,2s-0.9,2-2,2
			s-2-0.9-2-2C78,100.7,78.9,99.8,80,99.8L80,99.8L80,99.8z"/>
		<path class="st0" d="M92.9,106.8c-1.3-4.1-4.4-7.3-8.5-8.8l0.4-0.9l-1.5,0.3c-1,0.2-2-0.2-2.6-1l-0.7-1l-0.7,1
			c-0.6,0.8-1.6,1.2-2.6,1l-1.5-0.3l0.4,0.9c-4,1.4-7.2,4.6-8.4,8.7c-2.3,1-3.3,3.7-2.3,5.9c0.4,0.8,1,1.5,1.7,2
			c0.3,0.2,0.4,0.5,0.4,0.8v0.9c0,1,0.8,1.9,1.8,2c1,1.5,2.3,2.8,3.7,3.8v3.3h-6v1h27v-1h-7v-2.7c2.1-1.1,3.8-2.8,5-4.8h3v-1h-1v-1
			h2v-9L92.9,106.8z M94.5,110.8h-2v-3h2V110.8z M89.5,114.8v-3h2v3H89.5z M86.5,111.8h2v3h-2V111.8z M86.5,110.8v-3h2v3H86.5z
			 M89.5,110.8v-3h2v3H89.5z M76.7,98.5c1.3,0.2,2.5-0.3,3.3-1.3c0.8,1,2,1.5,3.3,1.3c-0.2,1.3,0.3,2.6,1.3,3.4
			c-1,0.8-1.5,2-1.4,3.3c-1.2-0.1-2.5,0.4-3.2,1.4c-0.7-0.9-1.7-1.4-2.8-1.3c-0.2,0-0.3,0-0.5,0c0.2-1.3-0.3-2.6-1.3-3.4
			C76.4,101,76.9,99.7,76.7,98.5L76.7,98.5z M67,113.8c-1.2-0.7-1.8-2.1-1.6-3.4c0.2-1.6,1.5-2.8,3.1-3h0.4c0.9,0,1.7,0.3,2.3,0.9
			c0.7,0.7,1.2,1.6,1.2,2.6c0,1.2-0.6,2.3-1.6,2.9c-0.5,0.4-0.9,0.9-0.9,1.6h-0.5v-3.1c0.8-0.3,1.2-1.1,0.9-1.9
			c-0.3-0.8-1.1-1.2-1.9-0.9c-0.8,0.3-1.2,1.1-0.9,1.9c0.2,0.4,0.5,0.8,0.9,0.9v3.1h-0.5C67.9,114.8,67.6,114.2,67,113.8L67,113.8z
			 M68.4,110.8c0-0.3,0.2-0.5,0.5-0.5s0.5,0.2,0.5,0.5s-0.2,0.5-0.5,0.5C68.7,111.3,68.5,111.1,68.4,110.8L68.4,110.8z M67.9,116.3
			h2c0,0.6-0.4,1-1,1S67.9,116.9,67.9,116.3z M82.4,117.3v2.3l-2-0.4v6.1h-2v-7.1l-1,0.2v-1.1H82.4z M77.4,119.4v5.9h-4v-5.1
			L77.4,119.4z M81.4,125.3v-4.9l4,0.8v4.1H81.4z M86.4,121.5v-1.1l-3-0.6v-3.5h-1v-1h-1v1h-1v-2h-1v2h-1v-1h-1v1h-1v2.3l-4,0.8v1.4
			c-1-0.8-1.9-1.7-2.7-2.7c0.7-0.3,1.1-1,1.2-1.8v-0.9c0-0.3,0.2-0.6,0.4-0.8c2.1-1.3,2.7-4.1,1.4-6.2c-0.9-1.5-2.6-2.3-4.4-2h-0.2
			c1.3-3.4,4-6.1,7.4-7.3c0,0.9-0.5,1.7-1.2,2.2l-1,0.6l1,0.6c1.1,0.6,1.5,2,1.1,3.2l-0.4,0.9l1.5-0.3c1-0.2,2,0.2,2.6,1l0.7,1
			l0.8-1c0.6-0.8,1.5-1.2,2.5-1l1.4,0.2l-0.3-0.8c-0.4-1.2,0-2.5,1.1-3.1l1-0.6l-1-0.6c-0.8-0.5-1.2-1.3-1.2-2.2
			c3.6,1.3,6.4,4.2,7.6,7.8h-6.3v9h2v1h-1v1h3.9C89.2,119.3,87.9,120.6,86.4,121.5L86.4,121.5z M92.4,116.8h-4v-1h4V116.8z
			 M92.4,114.8v-3h2v3H92.4z"/>
		<path class="st0" d="M94.5,125.4h1v1h-1V125.4z"/>
		<path class="st0" d="M64.5,125.4h1v1h-1V125.4z"/>
		<path class="st0" d="M82.5,123.4h2v1h-2V123.4z"/>
		<path class="st0" d="M74.5,121.4h2v1h-2V121.4z"/>
		<path class="st0" d="M74.5,123.4h2v1h-2V123.4z"/>
		<path class="st0" d="M76.5,109.3h7v1h-7V109.3z"/>
		<path class="st0" d="M82.5,111.4h1v1h-1V111.4z"/>
		<path class="st0" d="M78.5,111.4h1v1h-1V111.4z"/>
		<path class="st0" d="M76.5,111.4h1v1h-1V111.4z"/>
		<path class="st0" d="M80.5,111.4h1v1h-1V111.4z"/>
		<path class="st0" d="M415.4,164h0.2c0.2,0.1,0.3,0.4,0.2,0.7c-0.4,0.8-0.9,1.6-1.4,2.3c-0.2,0.2-0.5,0.3-0.7,0.2s-0.3-0.5-0.2-0.7
			l0,0c0.5-0.8,0.9-1.5,1.3-2.2C415,164,415.2,164,415.4,164z M412.6,168.5c0.1,0,0.1,0,0.2,0.1c0.2,0.2,0.3,0.5,0.1,0.7l0,0
			c-0.5,0.7-1,1.4-1.6,2.1c-0.2,0.2-0.5,0.2-0.7,0.1c-0.2-0.2-0.3-0.5-0.1-0.7l0,0c0.6-0.7,1.1-1.4,1.6-2.1
			C412.2,168.5,412.4,168.4,412.6,168.5L412.6,168.5z M409.2,172.5c0.3,0.1,0.5,0.3,0.4,0.6c0,0.1-0.1,0.2-0.1,0.2
			c-0.6,0.6-1.2,1.3-1.9,1.9c-0.2,0.2-0.5,0.2-0.7,0s-0.2-0.5,0-0.7l0,0c0.7-0.6,1.3-1.2,1.8-1.9C408.9,172.6,409,172.5,409.2,172.5
			L409.2,172.5z M405.4,176.2c0.1,0,0.2,0.1,0.3,0.2c0.2,0.2,0.2,0.5,0,0.7l0,0c-0.7,0.6-1.4,1.1-2.1,1.7c-0.2,0.2-0.5,0.1-0.7-0.1
			c-0.2-0.2-0.1-0.5,0.1-0.7l0,0c0.7-0.5,1.4-1.1,2-1.6C405.1,176.2,405.2,176.1,405.4,176.2L405.4,176.2z M401.2,179.4
			c0.3,0,0.5,0.3,0.4,0.6c0,0.1-0.1,0.3-0.2,0.3c-0.7,0.5-1.5,1-2.2,1.4c-0.2,0.1-0.5,0.1-0.7-0.2l0,0c-0.1-0.2-0.1-0.6,0.2-0.7
			c0.8-0.4,1.5-0.9,2.2-1.4C400.9,179.4,401.1,179.3,401.2,179.4L401.2,179.4z M396.7,182c0.2,0,0.3,0.1,0.4,0.3s0,0.5-0.2,0.7l0,0
			c-0.8,0.4-1.6,0.8-2.4,1.2c-0.3,0.1-0.6,0-0.7-0.3c-0.1-0.2,0-0.5,0.2-0.7l0,0c0.8-0.4,1.6-0.8,2.3-1.1
			C396.4,182,396.6,182,396.7,182z M391.9,184.2c0.2,0,0.3,0.2,0.4,0.3c0.1,0.3,0,0.5-0.3,0.7l0,0c-0.8,0.3-1.6,0.6-2.5,0.9
			c-0.3,0.1-0.6-0.1-0.7-0.3c-0.1-0.3,0.1-0.6,0.3-0.7l0,0c0.8-0.3,1.7-0.6,2.5-0.9C391.7,184.2,391.8,184.2,391.9,184.2
			L391.9,184.2z M386.9,185.9c0.3,0.1,0.5,0.3,0.4,0.6c0,0.2-0.2,0.3-0.3,0.4c-0.8,0.2-1.7,0.5-2.6,0.7c-0.3,0.1-0.6-0.1-0.6-0.4
			l0,0c-0.1-0.3,0.1-0.6,0.4-0.6l0,0c0.9-0.2,1.7-0.4,2.5-0.7C386.7,185.9,386.8,185.9,386.9,185.9L386.9,185.9z M381.8,187.2
			c0.3,0.1,0.4,0.4,0.4,0.6c0,0.2-0.2,0.3-0.4,0.4c-0.9,0.2-1.7,0.3-2.6,0.5c-0.3,0-0.5-0.2-0.6-0.4l0,0c0-0.3,0.1-0.5,0.4-0.6l0,0
			c0.9-0.1,1.7-0.3,2.6-0.5C381.6,187.1,381.7,187.1,381.8,187.2L381.8,187.2z M376.6,188c0.3,0.1,0.5,0.3,0.4,0.6
			c0,0.2-0.2,0.4-0.4,0.4c-0.9,0.1-1.7,0.2-2.6,0.3c-0.3,0-0.5-0.2-0.5-0.5l0,0c0-0.3,0.2-0.5,0.5-0.6c0.9-0.1,1.8-0.2,2.6-0.3V188z
			 M371.3,188.4c0.3,0.1,0.4,0.3,0.4,0.6c-0.1,0.2-0.2,0.4-0.4,0.4c-0.9,0-1.8,0.1-2.6,0.1c-0.3,0.1-0.6-0.1-0.6-0.4
			c-0.1-0.3,0.1-0.6,0.4-0.6c0.1,0,0.2,0,0.3,0C369.5,188.5,370.4,188.5,371.3,188.4L371.3,188.4z M366,188.5c0.3,0,0.4,0.3,0.4,0.5
			c0,0.3-0.2,0.5-0.5,0.5l0,0c-0.9,0-1.8,0-2.6-0.1c-0.3,0-0.5-0.2-0.5-0.5l0,0c0-0.3,0.2-0.5,0.5-0.5l0,0
			C364.2,188.4,365.1,188.5,366,188.5L366,188.5z"/>
		<text transform="matrix(1 0 0 1 413.7253 158.43)" class="st0 st10 st11">កម្មវិធី</text>
		<text transform="matrix(1 0 0 1 362.8149 339.12)" class="st0 st10 st11">ព្រឹត្តិការណ៍</text>
		<path class="st0" d="M384.3,156c-2,0-3.7-1.6-3.7-3.7s1.6-3.7,3.7-3.7c2,0,3.7,1.6,3.7,3.7l0,0C388,154.3,386.4,156,384.3,156z
			 M384.3,150c-1.3,0-2.4,1-2.4,2.3s1,2.4,2.3,2.4s2.4-1,2.4-2.3l0,0C386.7,151,385.6,150,384.3,150z"/>
		<path class="st0" d="M379.7,159.1c-0.1,0-0.2,0-0.3-0.1c-0.3-0.1-0.5-0.5-0.4-0.9l0,0c0.9-2.1,2.9-3.4,5.2-3.4h0.1
			c1.2,0,2.3,0.4,3.3,1.1c0.3,0.2,0.4,0.6,0.1,0.9s-0.6,0.4-0.9,0.1c-0.7-0.5-1.6-0.8-2.5-0.8h-0.1c-1.7,0-3.3,1-3.9,2.6
			C380.2,158.9,380,159.1,379.7,159.1L379.7,159.1z"/>
		<path class="st0" d="M402.9,156c-2,0-3.7-1.6-3.7-3.7s1.6-3.7,3.7-3.7c2,0,3.7,1.6,3.7,3.7l0,0C406.5,154.3,404.9,156,402.9,156z
			 M402.9,150c-1.3,0-2.4,1-2.4,2.3s1,2.4,2.3,2.4s2.4-1,2.4-2.3l0,0C405.2,151,404.1,150,402.9,150z"/>
		<path class="st0" d="M407.5,159.1c-0.3,0-0.5-0.2-0.6-0.4c-0.7-1.6-2.2-2.6-3.9-2.6h-0.1c-0.9,0-1.8,0.3-2.5,0.8
			c-0.3,0.2-0.7,0.2-0.9-0.1s-0.2-0.7,0.1-0.9l0,0c1-0.7,2.1-1.1,3.3-1.1h0.1c2.3,0,4.3,1.3,5.2,3.4c0.1,0.3,0,0.7-0.4,0.9
			C407.6,159.1,407.5,159.1,407.5,159.1L407.5,159.1z"/>
		<path class="st0" d="M393.6,156c-2,0-3.7-1.6-3.7-3.7s1.6-3.7,3.7-3.7c2,0,3.7,1.6,3.7,3.7l0,0C397.3,154.3,395.6,156,393.6,156z
			 M393.6,150c-1.3,0-2.3,1.1-2.3,2.4c0,1.3,1.1,2.3,2.4,2.3s2.3-1.1,2.3-2.4l0,0C395.9,151,394.9,150,393.6,150z"/>
		<path class="st0" d="M388.8,159.6h-0.2c-0.4-0.1-0.6-0.5-0.5-0.8c0.7-2.4,2.9-4,5.4-4.1h0.1c2.5,0,4.7,1.7,5.4,4.1
			c0.1,0.3,0,0.7-0.4,0.9c-0.3,0.1-0.7,0-0.9-0.4v-0.1c-0.5-1.8-2.2-3.1-4.1-3.1h-0.1c-1.9,0-3.6,1.3-4.1,3.1
			C389.3,159.4,389.1,159.6,388.8,159.6z"/>
		<path class="st0" d="M387.3,148.5c-0.4,0-0.7-0.3-0.7-0.7v-2.5h-1c-0.4,0-0.7-0.3-0.7-0.7l0,0v-4.3c0-0.4,0.3-0.7,0.7-0.7l0,0
			h15.8c0.4,0,0.7,0.3,0.7,0.7v4.3c0,0.4-0.3,0.7-0.7,0.7H390c-0.4,0-0.6-0.4-0.6-0.8c0-0.3,0.3-0.6,0.6-0.6h10.8V141h-14.4v2.9h1
			c0.4,0,0.7,0.3,0.7,0.7l0,0v3.2C388,148.2,387.7,148.5,387.3,148.5L387.3,148.5z"/>
		<path class="st0" d="M399.8,148.3c-0.4,0-0.7-0.3-0.7-0.7l0,0v-2.7c0-0.4,0.4-0.6,0.8-0.6c0.3,0,0.6,0.3,0.6,0.6v2.7
			C400.5,148,400.2,148.3,399.8,148.3C399.9,148.3,399.8,148.3,399.8,148.3z"/>
		<path class="st0" d="M390.8,140.7c-0.4,0-0.7-0.3-0.7-0.7l0,0v-0.9c0-0.4,0.4-0.6,0.8-0.6c0.3,0,0.6,0.3,0.6,0.6v0.9
			C391.4,140.4,391.1,140.7,390.8,140.7L390.8,140.7z"/>
		<path class="st0" d="M396.4,140.7c-0.4,0-0.7-0.3-0.7-0.7l0,0v-0.9c0-0.4,0.3-0.7,0.7-0.7c0.4,0,0.7,0.3,0.7,0.7v0.9
			C397.1,140.4,396.8,140.7,396.4,140.7z"/>
		<path class="st0" d="M393.6,135.4c-2,0-3.7-1.6-3.7-3.7s1.6-3.7,3.7-3.7c2,0,3.7,1.6,3.7,3.7l0,0
			C397.3,133.7,395.6,135.4,393.6,135.4z M393.6,129.4c-1.3,0-2.4,1-2.4,2.3s1,2.4,2.3,2.4s2.4-1,2.4-2.3l0,0
			C396,130.4,394.9,129.4,393.6,129.4C393.6,129.3,393.6,129.3,393.6,129.4L393.6,129.4z"/>
		<path class="st0" d="M398.6,140.4c-0.4,0-0.7-0.3-0.7-0.7c0-2.3-1.9-4.3-4.3-4.2h-0.1c-2.3,0-4.3,1.9-4.3,4.2
			c0,0.4-0.3,0.7-0.7,0.7s-0.7-0.3-0.7-0.7l0,0c0-3.1,2.5-5.6,5.6-5.6l0,0h0.1c3.1,0,5.6,2.5,5.6,5.6
			C399.3,140.1,398.9,140.4,398.6,140.4z"/>
		<path class="st0" d="M393.6,138.6c-0.2,0-0.4-0.1-0.5-0.2l-2-2.5l1-0.9l1.6,1.9l1.6-1.9l1,0.9l-2.1,2.6
			C394,138.6,393.8,138.6,393.6,138.6L393.6,138.6z"/>
		<path class="st0" d="M392.9,138h1.4v2.2h-1.4V138z"/>
		<path class="st0" d="M322.9,255c0-0.1,0-0.1,0.1-0.1c0.2-0.2,0.5-0.3,0.7-0.1l0,0c0.7,0.5,1.5,1,2.2,1.6c0.2,0.2,0.3,0.5,0.1,0.7
			c-0.2,0.2-0.5,0.3-0.7,0.1l0,0c-0.7-0.5-1.4-1.1-2.1-1.5C322.9,255.4,322.8,255.2,322.9,255z M327,258.2c0-0.1,0.1-0.1,0.1-0.2
			c0.2-0.2,0.5-0.2,0.7,0c0.6,0.6,1.3,1.2,1.9,1.8c0.2,0.2,0.2,0.5,0,0.7s-0.5,0.2-0.7,0c-0.6-0.6-1.3-1.2-1.9-1.8
			C327,258.7,326.9,258.4,327,258.2L327,258.2z M330.7,262c0-0.1,0.1-0.2,0.1-0.2c0.2-0.2,0.5-0.2,0.7,0c0.6,0.6,1.1,1.3,1.7,2.1
			c0.2,0.2,0.1,0.5-0.1,0.7s-0.5,0.1-0.7-0.1l0,0c-0.5-0.7-1.1-1.4-1.7-2C330.7,262.3,330.7,262.2,330.7,262z M334,266.2
			c0-0.1,0.1-0.2,0.2-0.3c0.2-0.2,0.5-0.1,0.7,0.1l0,0c0.5,0.7,1,1.5,1.5,2.2c0.1,0.2,0.1,0.6-0.2,0.7c-0.2,0.1-0.6,0.1-0.7-0.2
			c-0.5-0.8-0.9-1.5-1.4-2.2C333.9,266.5,333.9,266.3,334,266.2L334,266.2z M336.7,270.7c0-0.1,0.1-0.2,0.2-0.3
			c0.3-0.1,0.6,0,0.7,0.2c0.4,0.8,0.8,1.6,1.2,2.4c0.1,0.3,0,0.6-0.2,0.7s-0.6,0-0.7-0.2l0,0c-0.4-0.8-0.8-1.6-1.2-2.3
			C336.7,270.9,336.7,270.8,336.7,270.7L336.7,270.7z M338.9,275.4c0-0.1,0.2-0.3,0.3-0.3c0.3-0.1,0.6,0,0.7,0.3
			c0.3,0.8,0.6,1.6,0.9,2.5c0.1,0.3-0.1,0.6-0.3,0.6c-0.3,0.1-0.6,0-0.6-0.3l0,0c-0.3-0.8-0.6-1.6-0.9-2.4
			C338.9,275.7,338.9,275.5,338.9,275.4L338.9,275.4z M340.6,280.4c0.1-0.2,0.2-0.3,0.4-0.4c0.3-0.1,0.5,0.1,0.6,0.4
			c0.2,0.8,0.5,1.7,0.7,2.6c0.1,0.3-0.1,0.5-0.4,0.6s-0.5-0.1-0.6-0.3l0,0c-0.2-0.9-0.4-1.7-0.7-2.5
			C340.6,280.6,340.6,280.5,340.6,280.4L340.6,280.4z M341.8,285.6c0.1-0.2,0.2-0.3,0.4-0.4c0.3-0.1,0.5,0.1,0.6,0.4l0,0
			c0.2,0.9,0.3,1.7,0.4,2.6c0,0.3-0.2,0.5-0.5,0.5c-0.2,0-0.4-0.2-0.5-0.4c-0.1-0.9-0.3-1.7-0.4-2.6V285.6L341.8,285.6z
			 M342.5,290.8c0.1-0.2,0.2-0.4,0.4-0.4c0.3,0,0.5,0.2,0.6,0.5c0.1,0.9,0.1,1.8,0.2,2.6c0,0.3-0.2,0.5-0.5,0.5l0,0
			c-0.3,0-0.5-0.2-0.5-0.5l0,0c0-0.9-0.1-1.8-0.2-2.6V290.8L342.5,290.8z M342.8,296.1c0.1-0.2,0.3-0.4,0.5-0.4
			c0.3,0,0.5,0.2,0.5,0.5c0,0.9,0,1.8,0,2.6c-0.1,0.3-0.4,0.4-0.6,0.4s-0.3-0.2-0.4-0.4c0-0.9,0-1.8,0-2.6
			C342.8,296.1,342.8,296.1,342.8,296.1L342.8,296.1z M342.7,301.3c0.1-0.2,0.3-0.4,0.5-0.4c0.3,0,0.5,0.3,0.5,0.5l0,0
			c0,0.9-0.1,1.8-0.2,2.6c0,0.3-0.3,0.5-0.5,0.5l0,0c-0.3,0-0.5-0.3-0.5-0.5l0,0c0.1-0.9,0.1-1.8,0.2-2.6V301.3L342.7,301.3z
			 M342.3,306.6c0.1-0.2,0.3-0.4,0.5-0.4c0.3,0,0.5,0.3,0.5,0.6c-0.1,0.9-0.2,1.7-0.3,2.6c-0.1,0.3-0.4,0.4-0.6,0.3
			s-0.4-0.3-0.4-0.5C342.1,308.4,342.2,307.5,342.3,306.6C342.3,306.6,342.3,306.5,342.3,306.6L342.3,306.6z"/>
		<path class="st0" d="M344.5,326.8c-2.4-0.6-5.1,0.7-7.1,3.1h-0.8c-0.9,0.1-1.7,0.5-2.4,1.2l-1.2,1.2c-0.1,0.1-0.2,0.3-0.1,0.5
			s0.2,0.3,0.4,0.3l2.2,0.1c-0.1,0.2-0.1,0.4-0.2,0.6c-1,0.8-1.5,2.1-1.2,3.4c0,0.2,0.2,0.3,0.4,0.4c0.3,0,0.6,0.1,0.9,0.1
			c1,0,2-0.5,2.5-1.3l0.6-0.2l0.1,2.2c0,0.2,0.1,0.4,0.3,0.4c0.2,0.1,0.4,0,0.5-0.1l1.2-1.2c0.7-0.6,1.1-1.5,1.2-2.4v-0.8
			c2.4-2,3.7-4.7,3.1-7.1C344.8,327,344.7,326.9,344.5,326.8L344.5,326.8z M344,327.7c0.1,0.8,0.1,1.6-0.2,2.4l-2.1-2.1
			C342.4,327.6,343.2,327.5,344,327.7z M337.7,335.5l-1.5-1.5c0.1-0.3,0.2-0.5,0.3-0.8l2,2L337.7,335.5L337.7,335.5z M334.3,332.2
			l0.5-0.5c0.5-0.5,1.1-0.8,1.7-0.9h0.1c-0.3,0.5-0.6,0.9-0.8,1.5L334.3,332.2z M334.9,336.8c-0.1-0.7,0.1-1.5,0.7-2l1.3,1.3
			C336.4,336.6,335.6,336.9,334.9,336.8z M340.8,335.1c-0.1,0.7-0.4,1.3-0.9,1.7l-0.5,0.5l-0.1-1.5c0.5-0.2,1-0.5,1.4-0.8v0.1H340.8
			z M339.4,334.7l-2.5-2.5c0.7-1.3,1.6-2.4,2.8-3.3c0.3-0.2,0.7-0.5,1-0.6l2.6,2.6c-0.2,0.3-0.4,0.7-0.6,1
			C341.8,333.1,340.7,334,339.4,334.7L339.4,334.7z M340.9,330.8c0.2,0.2,0.2,0.6,0,0.8c-0.2,0.2-0.6,0.2-0.8,0
			c-0.3-0.2-0.3-0.6-0.1-0.8S340.6,330.5,340.9,330.8C340.8,330.7,340.9,330.7,340.9,330.8z M352.2,319h-2.8v-1.1
			c0-0.6-0.6-1.1-1.5-1.1s-1.5,0.5-1.5,1.1v1.1h-3.1v-1.1c0-0.6-0.6-1.1-1.5-1.1s-1.5,0.5-1.5,1.1v1.1h-3.1v-1.1
			c0-0.6-0.6-1.1-1.5-1.1s-1.5,0.5-1.5,1.1v1.1h-3.1v-1.1c0-0.6-0.6-1.1-1.5-1.1s-1.5,0.5-1.5,1.1v1.1h-2.8c-1,0-1.8,0.8-1.8,1.8
			l0,0v21.6c0,1,0.8,1.8,1.8,1.8l0,0H352c1,0,1.8-0.7,1.8-1.7c0,0,0,0,0-0.1v-21.7C354,319.8,353.2,319,352.2,319
			C352.3,319,352.3,319,352.2,319L352.2,319z M349.5,336.4c-0.1,0-0.3,0-0.4,0.1s-0.2,0.2-0.2,0.4c0,2.3-1.8,4.2-4.1,4.2h-19.2
			c-0.5,0-0.8-0.4-0.8-0.8l0,0v-15.8H353v12.9L349.5,336.4z M352.3,338.1l-3.5,2.1l-0.5,0.3l0.1-0.1c0.7-0.8,1.2-1.8,1.3-2.9
			L352.3,338.1z M347.4,317.9c0.3-0.2,0.7-0.2,1,0v1.1h-1V317.9L347.4,317.9z M341.4,317.9c0.1-0.1,0.3-0.2,0.5-0.2s0.4,0,0.5,0.2
			v1.1h-1V317.9L341.4,317.9z M335.4,317.9c0.3-0.2,0.7-0.2,1,0v1.1h-1V317.9L335.4,317.9z M329.4,317.9c0.1-0.1,0.3-0.2,0.5-0.2
			s0.4,0,0.5,0.2v1.1h-1V317.9L329.4,317.9z M325.6,319.9h2.8v0.8c0,0.6,0.6,1.1,1.5,1.1c0.3,0,0.4-0.3,0.4-0.5s-0.2-0.4-0.4-0.4
			c-0.2,0-0.4,0-0.5-0.2V320h5.1v0.8c0,0.6,0.6,1.1,1.5,1.1c0.3,0,0.4-0.3,0.4-0.5s-0.2-0.4-0.4-0.4c-0.2,0-0.4,0-0.5-0.2v-0.7h5.1
			v0.8c0,0.6,0.6,1.1,1.5,1.1c0.3,0,0.4-0.3,0.4-0.5s-0.2-0.4-0.4-0.4c-0.2,0-0.4,0-0.5-0.2v-0.7h5.1v0.8c0,0.6,0.6,1.1,1.5,1.1
			c0.3,0,0.4-0.3,0.4-0.5s-0.2-0.4-0.4-0.4c-0.2,0-0.4,0-0.5-0.2v-0.7h4.8c0.5,0,0.8,0.4,0.8,0.8v2.8h-28.4v-2.8
			c0-0.5,0.3-0.8,0.8-0.8C325.5,319.9,325.5,319.9,325.6,319.9L325.6,319.9z M352.3,343.2h-26.8c-0.5,0-0.8-0.4-0.8-0.8l0,0v-0.6
			c0.3,0.1,0.5,0.2,0.8,0.2h20.2c1.3,0,2.5-0.3,3.6-1l3.7-2.2v3.6C353,342.9,352.6,343.2,352.3,343.2L352.3,343.2z"/>
		<text transform="matrix(1 0 0 1 105.3153 119.62)" class="st0 st10 st11">ប្រព័ន្ធអេកូឡូស៊ី</text>
	</g>
</g>
</svg>
