<svg xmlns="http://www.w3.org/2000/svg" xmlns:xlink="http://www.w3.org/1999/xlink" viewBox="0 0 559.88 381.47"><defs><style>.cls-1,.cls-11{fill:#fff;}.cls-2{fill:url(#linear-gradient);}.cls-3{fill:url(#linear-gradient-2);}.cls-4{fill:#eae5dd;}.cls-5{fill:url(#linear-gradient-3);}.cls-6{fill:#fbb482;}.cls-7{fill:#ffce65;}.cls-8{fill:#242057;}.cls-9{fill:url(#linear-gradient-4);}.cls-10{fill:#d8e6ef;}.cls-11{font-size:21.14px;font-family:Arial, "Helvetica Neue";font-weight:500;}</style><linearGradient id="linear-gradient" x1="-5961.64" y1="-2219.73" x2="-5928.22" y2="-2219.56" gradientTransform="matrix(0.95, 0.31, 0.31, -0.95, 6675.68, -113.57)" gradientUnits="userSpaceOnUse"><stop offset="0" stop-color="#f37324"/><stop offset="0.5" stop-color="#f8a341"/><stop offset="1" stop-color="#fdd661"/></linearGradient><linearGradient id="linear-gradient-2" x1="7581.89" y1="-2160.71" x2="7548.56" y2="-2160.66" gradientTransform="translate(8140.77 343.4) rotate(-162.66)" gradientUnits="userSpaceOnUse"><stop offset="0" stop-color="#fdd661"/><stop offset="0.5" stop-color="#f8a341"/><stop offset="1" stop-color="#f37324"/></linearGradient><linearGradient id="linear-gradient-3" x1="204.72" y1="945.39" x2="249" y2="945.39" gradientTransform="matrix(0.95, 0.3, 0.3, -0.95, -141.69, 847.87)" xlink:href="#linear-gradient-2"/><linearGradient id="linear-gradient-4" x1="207.75" y1="875.41" x2="241.39" y2="875.41" gradientTransform="matrix(0.95, 0.3, 0.3, -0.95, -141.69, 847.87)" gradientUnits="userSpaceOnUse"><stop offset="0" stop-color="#3954a4"/><stop offset="1" stop-color="#2a3478"/></linearGradient></defs><g id="Layer_2" data-name="Layer 2"><g id="Layer_1-2" data-name="Layer 1"><path class="cls-1" d="M376.47,190.71c5.92-46.93-23.8-72.27-53.73-80.39-16.07-4.36-40.62-4.31-61.41,8.87-15.57,9.9-25.63,25.4-29.08,44.9-4.27,24.12,2.15,44.24,7.31,60.41,3.58,11.2,6.67,20.89,5.35,28.94-2,12-2,23.94,6.27,33.95-7,2.26-9,6-9.43,8.6-.5,2.92.51,5.92,2.86,8.9a12.48,12.48,0,0,0-4.87,7.19,15.72,15.72,0,0,0,1.9,11.16l1.21,2a11,11,0,0,0,.69,1,1.47,1.47,0,0,0,0,.29L243.9,360a2.47,2.47,0,0,0,4.59,1.23l3.25-5.44,0,23.24a2.47,2.47,0,0,0,3.37,2.29,2.42,2.42,0,0,0,1.21-1l11.92-20v6.34a2.46,2.46,0,0,0,4.58,1.26l18-30.08a4.7,4.7,0,0,0,.95-1.78c1.27-5-5.9-10-19.13-13.57-10.5-2.81-19.51-2.8-26.11-1.12a10.71,10.71,0,0,1-1.84-8.12,7.54,7.54,0,0,1,3.48-4.7c4.84,4.1,12.23,8,21.74,11.46,7.71,2.78,21.34,6.76,26.12,2.37a4.59,4.59,0,0,0,1.34-4.72c-1.51-5.64-12.74-11.58-28.6-15.17-8.46-1.9-14.86-1.57-19.49,0-1.93-2.16-2.77-4.1-2.51-5.64.32-1.91,2.86-4.05,8.52-5.27,6,5.24,14.92,9.78,27.83,13.32,15.48,4.22,19.37,2.21,21,.31a4.54,4.54,0,0,0,.46-5c-2.85-6.07-19.24-14.82-38.48-14.74a67.61,67.61,0,0,0-9.27.64c-8.22-8.4-9-19-6.87-31.84,1.53-9.26-1.74-19.5-5.52-31.33-5.25-16.45-11.19-35.08-7.15-58,3.19-18,12.47-32.39,26.79-41.48,19.4-12.31,42.33-12.34,57.35-8.28,13.4,3.61,56.94,19.87,50,74.86a85.81,85.81,0,0,1-3.45,15.8c-5.28,13.85-13.76,22.05-22.59,30.67-6.48,6.3-13.15,12.82-18.63,21.68a23.43,23.43,0,0,0-1.57,2.36c-4.35,7.5-13.33,23-25.24,19.59l-.57-.16c-9.93-3.29-14.86-13.41-14-25.52L280.15,253c-.94,11.29,3.06,26.73,17.68,31.58.29.1.58.18.87.26,15.74,4.48,26-13.23,31-21.82a8.35,8.35,0,0,1,.92-1.36c5.26-8.75,11.87-15.23,18.3-21.49,9-8.8,18.24-17.68,24-32.87A89.48,89.48,0,0,0,376.47,190.71Zm-103.27,167v-6.34a2.47,2.47,0,0,0-4.59-1.26l-11.91,19.95,0-23.24a2.47,2.47,0,0,0-4.59-1.26l-3.34,5.6-.26-20.5a50.09,50.09,0,0,0,15.74,7.44c5.53,1.35,13.3,2.85,19.22,2.47Zm-3-30.65c10.92,2.9,14.64,6.21,15.36,7.34-1.31.73-7.06,1.9-21.25-1.57a35.39,35.39,0,0,1-15.12-7.44C254.48,324.56,261.62,324.78,270.18,327.08Zm-3.66-19.95c17.26,3.89,24,9.42,24.72,11.3-1.25.64-7,1.4-20.74-3.54a74.52,74.52,0,0,1-17.63-8.67A38,38,0,0,1,266.52,307.13ZM265,290.25c17.86-.08,31.84,8.07,33.7,11.47-1.17.33-5,.76-15.34-2.07-9.57-2.59-16.76-5.7-22.09-9.29C262.4,290.3,263.64,290.26,265,290.25Z"/><path class="cls-1" d="M318.27,224.54a42.71,42.71,0,0,0-.17-18.12,25,25,0,0,0-3.26-8,2.7,2.7,0,0,0-1.41-1l-26.28-7.48a2.76,2.76,0,0,0-1.81.13,25,25,0,0,0-6.9,5.08,42.85,42.85,0,0,0-9.68,15.32,68.71,68.71,0,0,0-4.12,19.82,2.62,2.62,0,0,0,1.57,2.6,2.67,2.67,0,0,0,3.07-.68,43.7,43.7,0,0,1,4.34-4.27,43.31,43.31,0,0,0,1.09,12.95,44.78,44.78,0,0,0,5.45,13.17,4.3,4.3,0,0,0,2.47,1.92,3.88,3.88,0,0,0,2.8-.27,45.27,45.27,0,0,0,9.94-6.7,43.91,43.91,0,0,0,9.57-12.17,47.69,47.69,0,0,1,1.43,5.76l.06.29a2.71,2.71,0,0,0,2.24,2.06,2.67,2.67,0,0,0,2.7-1.4A68.32,68.32,0,0,0,318.27,224.54Zm-8.61,12c-.79-2.69-1.83-5.22-3.16-6.62a2.28,2.28,0,0,0-2.15-.67,2.31,2.31,0,0,0-1.7,1.49,37.76,37.76,0,0,1-10.34,14.87,40.88,40.88,0,0,1-8.41,5.75,40.49,40.49,0,0,1-4.71-11.5,37,37,0,0,1-.39-15.9,2.32,2.32,0,0,0-.65-2.16,2.27,2.27,0,0,0-1-.56,2.29,2.29,0,0,0-1.22,0c-1.95.52-4.23,2.22-6.15,3.94a60,60,0,0,1,3.26-13,38.3,38.3,0,0,1,8.61-13.69,23.66,23.66,0,0,1,4.94-3.84l.51.14-3.71,13.05a2.31,2.31,0,0,0,4.44,1.26l3.7-13,5.26,1.49-4.83,17a2.31,2.31,0,0,0,4.44,1.26l4.83-17,5.25,1.5-3.7,13a2.31,2.31,0,0,0,4.44,1.26l3.7-13,.48.14a23.05,23.05,0,0,1,2.19,5.86,38.2,38.2,0,0,1,.12,16.18A59.37,59.37,0,0,1,309.66,236.49Z"/><path class="cls-2" d="M360.71,131.58l5.52,34.56A21.55,21.55,0,0,1,364,179l-19.75,38.58c-.64,1.26-1.93,1.39-2.34.24l-13.34-36.38Z"/><path class="cls-3" d="M285.44,108.12l-24.3,25.09a21.49,21.49,0,0,0-5.57,11.84L249.65,188c-.19,1.4.79,2.24,1.79,1.54l31.74-22.06Z"/><path class="cls-1" d="M381.21,54.41C376.6,28,368,6.69,359.45,4S330,15.12,312.9,33.08s-23.07,35.58-27.8,56.25l-15,90.18,62.94,19.65,39-82.68C379.93,96.8,385.8,80.9,381.21,54.41Z"/><path class="cls-4" d="M374.92,28.68l-13-4.07c3.85,13.75,7.64,41.29,2.28,63s-37.84,97.95-51,93.85L281.6,171.6c-5.08-1.59-3.84-38.08-3.84-38.08l-7.64,46h0l-.26,1.58a7.43,7.43,0,0,0,5.11,8.31l48.5,15.14a7.43,7.43,0,0,0,8.93-3.93l.69-1.45h0l39-82.67C380,96.86,385.82,81,381.23,54.47A182.7,182.7,0,0,0,374.92,28.68Z"/><ellipse class="cls-4" cx="338.75" cy="87.04" rx="29.56" ry="31.39" transform="translate(154.71 384.45) rotate(-72.66)"/><path class="cls-4" d="M325,156.71s-2.81,16.15-.82,21.68-19.9,2.77-19.9,2.77Z"/><path class="cls-5" d="M374.93,28.68l-42.27-13.2C343.81,7.19,354.1,2.37,359.45,4S370.46,15.14,374.93,28.68Z"/><path class="cls-6" d="M269.87,181.09A7.42,7.42,0,0,0,275,189.4l48.5,15.15a7.44,7.44,0,0,0,8.94-3.93l.68-1.45-63-19.66Z"/><path class="cls-7" d="M330.32,139.64c.56-3.86-4.48-13.1-8.59-14.38s-13.53,3.42-15.26,6.94-9.34,58.88-5.66,60S329.75,143.52,330.32,139.64Z"/><circle class="cls-7" cx="335.01" cy="82.69" r="29.56"/><circle class="cls-6" cx="335.02" cy="82.7" r="23.91" transform="translate(39.64 261.12) rotate(-45)"/><path class="cls-6" d="M363.23,91.5a29.56,29.56,0,0,1-56.77-1.15,29.57,29.57,0,0,0,51.13-26.77A29.53,29.53,0,0,1,363.23,91.5Z"/><circle class="cls-8" cx="335.01" cy="82.69" r="21.56" transform="translate(111.27 345.39) rotate(-63.44)"/><circle class="cls-9" cx="333.58" cy="79.17" r="16.82"/><ellipse class="cls-10" cx="329.18" cy="70.92" rx="8.63" ry="6.48" transform="translate(4.7 160.92) rotate(-27.66)"/><path class="cls-6" d="M300.81,192.23c-.8-.25-1.07-3.06-.93-7.34.08.11,1.89,3.17,4.45.17S320.91,144,321.39,138s-8.53-10.87-8.53-10.87h0l4-1.55a9.25,9.25,0,0,1,4.89-.3c4.11,1.29,9.17,10.51,8.59,14.39S304.5,193.38,300.81,192.23Z"/><path class="cls-1" d="M226.23,33.17a1.69,1.69,0,0,0,.9-.79,22.73,22.73,0,0,1,9.37-9.63,1.63,1.63,0,1,0-1.56-2.86,26,26,0,0,0-10.71,11,1.63,1.63,0,0,0,2,2.28Z"/><path class="cls-1" d="M279.76,17.68c-.06-.15-.13-.28-.2-.42-1.55-2.77-8.05-1.32-15.4,1.52l-1.29.49a27.68,27.68,0,0,0-46.43,26.22l-1.21.93c-9.25,7.27-9.5,10-8.52,11.77,1.37,2.42,6.55,1.58,12.76-.55.86-.31,1.75-.63,2.65-1a27.69,27.69,0,0,0,47.5-26.53L271.05,29c1.58-1.24,2.88-2.34,4-3.32C279.86,21.29,280.32,19.12,279.76,17.68ZM265.29,48.86a.37.37,0,0,0-.05.11,24.16,24.16,0,0,1-21.43,14,23.89,23.89,0,0,1-9.32-1.68l-.24-.09-.7-.31-.74-.34-.2-.1a23.88,23.88,0,0,1-6.9-5.26c9.52-4,19.37-9.49,21.31-10.57a217.52,217.52,0,0,0,19.41-12.18,23.82,23.82,0,0,1-.84,15.69C265.49,48.39,265.4,48.62,265.29,48.86ZM240.93,33.78a207.57,207.57,0,0,1,20.64-10.27,23.38,23.38,0,0,1,3.63,5.64,206.32,206.32,0,0,1-19.85,12.51,206.19,206.19,0,0,1-21.8,10.77,24.51,24.51,0,0,1-2.37-4.55,14.08,14.08,0,0,1-.47-1.33A207.34,207.34,0,0,1,240.93,33.78ZM219.84,43A23.93,23.93,0,0,1,259,20.9c-9,4-17.86,8.88-19.68,9.91-6.14,3.44-11.9,7-16.86,10.37C221.53,41.81,220.66,42.4,219.84,43Zm-1.56,11.49c-4.25,1.49-7.16,2.12-8.41,1.92.55-1.34,3.19-4,7.66-7.47a27.47,27.47,0,0,0,2.5,4.89ZM272.05,23.8c-1.07.93-2.33,2-3.76,3.07a27.87,27.87,0,0,0-3-4.87c.87-.34,1.7-.66,2.49-.94,4.37-1.55,7.36-2.22,8.64-2C276,20,274.53,21.66,272.05,23.8Z"/><path class="cls-1" d="M319.76,3.79a7.39,7.39,0,0,0,2.42-.48,7.65,7.65,0,0,0-2.42-.48A8.34,8.34,0,0,0,319.22,0a8.59,8.59,0,0,0-.54,2.83,7.49,7.49,0,0,0-2.42.48,7.49,7.49,0,0,0,2.42.48,8.34,8.34,0,0,0,.54,2.83A8.34,8.34,0,0,0,319.76,3.79Z"/><path class="cls-1" d="M421.91,30.24a5,5,0,0,0,1.73-.39,4.75,4.75,0,0,0-1.74-.38,7.27,7.27,0,0,0-.38-2.28,7.58,7.58,0,0,0-.39,2.28,4.75,4.75,0,0,0-1.74.38,4.76,4.76,0,0,0,1.74.39,7.58,7.58,0,0,0,.39,2.28A7.58,7.58,0,0,0,421.91,30.24Z"/><path class="cls-1" d="M482.32,83.36a5.1,5.1,0,0,0,1.84-.41,5.08,5.08,0,0,0-1.84-.4,7.88,7.88,0,0,0-.41-2.42,7.88,7.88,0,0,0-.41,2.42,5.08,5.08,0,0,0-1.84.4,4.9,4.9,0,0,0,1.84.41,7.82,7.82,0,0,0,.41,2.41A7.82,7.82,0,0,0,482.32,83.36Z"/><path class="cls-1" d="M177.57,20a5,5,0,0,0,1.84-.4,5.05,5.05,0,0,0-1.84-.41,7.82,7.82,0,0,0-.41-2.41,8.46,8.46,0,0,0-.41,2.41,4.85,4.85,0,0,0-1.83.41,5,5,0,0,0,1.83.4,8.07,8.07,0,0,0,.41,2.41A7.49,7.49,0,0,0,177.57,20Z"/><path class="cls-1" d="M407.39,66.71a8.56,8.56,0,0,0,3.08-.68,8.56,8.56,0,0,0-3.08-.68,13.21,13.21,0,0,0-.68-4,13.22,13.22,0,0,0-.69,4A8.51,8.51,0,0,0,403,66a8.51,8.51,0,0,0,3.07.68,12.88,12.88,0,0,0,.69,4A13.21,13.21,0,0,0,407.39,66.71Z"/><path class="cls-1" d="M195.42,36.4a.83.83,0,1,1-.83-.83A.83.83,0,0,1,195.42,36.4Z"/><path class="cls-1" d="M445.68,40.31a.78.78,0,1,1-.78-.79A.78.78,0,0,1,445.68,40.31Z"/><path class="cls-1" d="M86.46,24a5,5,0,0,0,1.74-.39,4.75,4.75,0,0,0-1.74-.38,7.57,7.57,0,0,0-.38-2.28,7.58,7.58,0,0,0-.39,2.28,4.75,4.75,0,0,0-1.74.38,4.76,4.76,0,0,0,1.74.39,7.28,7.28,0,0,0,.39,2.28A7.27,7.27,0,0,0,86.46,24Z"/><path class="cls-1" d="M143.78,47.34a8.55,8.55,0,0,0,3.07-.68,8.56,8.56,0,0,0-3.08-.68,13.21,13.21,0,0,0-.68-4,13.21,13.21,0,0,0-.68,4,8.56,8.56,0,0,0-3.08.68,8.55,8.55,0,0,0,3.07.68,13.22,13.22,0,0,0,.69,4A13.22,13.22,0,0,0,143.78,47.34Z"/><path class="cls-1" d="M110.24,34a.78.78,0,1,1-.78-.79A.78.78,0,0,1,110.24,34Z"/><path class="cls-1" d="M557.71,30.71a6.07,6.07,0,0,0,2.17-.48,6.29,6.29,0,0,0-2.17-.48,9.45,9.45,0,0,0-.48-2.84,9.15,9.15,0,0,0-.48,2.84,6,6,0,0,0-2.17.48,5.82,5.82,0,0,0,2.17.48,9.05,9.05,0,0,0,.48,2.84A9.05,9.05,0,0,0,557.71,30.71Z"/><path class="cls-1" d="M515.66,41.88a1.9,1.9,0,1,1-1.9-1.9A1.9,1.9,0,0,1,515.66,41.88Z"/><path class="cls-1" d="M170.24,85.42a.83.83,0,1,1-.83-.82A.83.83,0,0,1,170.24,85.42Z"/><path class="cls-1" d="M476,10.29a.83.83,0,1,1-.83-.83A.83.83,0,0,1,476,10.29Z"/><path class="cls-1" d="M223.69,244.8a.61.61,0,0,1,.37.16.6.6,0,0,1,0,.84c-.68.73-1.4,1.46-2.17,2.19a.58.58,0,0,1-.83,0,.59.59,0,0,1,0-.84c.74-.71,1.45-1.43,2.12-2.14A.57.57,0,0,1,223.69,244.8ZM219.28,249a.63.63,0,0,1,.41.21.6.6,0,0,1-.07.84c-.76.65-1.56,1.29-2.4,1.93a.59.59,0,1,1-.72-.94c.82-.63,1.6-1.26,2.35-1.9A.69.69,0,0,1,219.28,249Zm-4.86,3.7a.56.56,0,0,1,.45.26.58.58,0,0,1-.15.82c-.84.56-1.7,1.12-2.6,1.66a.59.59,0,0,1-.61-1c.88-.53,1.73-1.08,2.54-1.63A.58.58,0,0,1,214.42,252.71Zm-5.22,3.16a.58.58,0,0,1,.49.31.6.6,0,0,1-.24.8c-.89.48-1.8.94-2.75,1.39a.59.59,0,0,1-.79-.28.6.6,0,0,1,.28-.79c.93-.44,1.83-.9,2.7-1.36A.51.51,0,0,1,209.2,255.87Zm-5.5,2.63a.57.57,0,0,1,.51.36.58.58,0,0,1-.32.77c-.92.39-1.88.77-2.86,1.13a.59.59,0,0,1-.76-.35.6.6,0,0,1,.35-.76c1-.35,1.9-.72,2.81-1.11A.51.51,0,0,1,203.7,258.5ZM198,260.62a.59.59,0,0,1,.15,1.15c-1,.31-1.94.61-2.95.89a.6.6,0,0,1-.73-.41.59.59,0,0,1,.41-.73c1-.28,2-.57,2.9-.88A.57.57,0,0,1,198,260.62Zm-5.87,1.64a.59.59,0,0,1,.1,1.17q-1.47.35-3,.66a.6.6,0,0,1-.7-.47.58.58,0,0,1,.46-.69c1-.21,2-.42,3-.65A.55.55,0,0,1,192.11,262.26Zm-6,1.21a.58.58,0,0,1,.55.49.6.6,0,0,1-.49.68c-1,.17-2,.32-3,.46a.6.6,0,0,1-.16-1.18q1.53-.19,3-.45A.33.33,0,0,1,186.13,263.47Zm-6,.81a.57.57,0,0,1,.55.53.59.59,0,0,1-.53.65c-1,.1-2,.19-3,.26a.59.59,0,1,1-.09-1.18c1-.07,2-.16,3-.26Zm-6.08.45a.58.58,0,0,1,.55.56.59.59,0,0,1-.56.62c-1,0-2,.08-3.07.1a.58.58,0,0,1-.6-.58.58.58,0,0,1,.58-.6c1,0,2-.06,3-.1Zm-6.1.13a.58.58,0,0,1,.55.59.59.59,0,0,1-.59.59c-1,0-2,0-3.07-.05a.59.59,0,0,1,0-1.18c1,0,2,0,3,.05Z"/><path class="cls-1" d="M144.06,245a8.58,8.58,0,0,0-5.53,15.15v6.66a4.08,4.08,0,0,0,1.14,2.77,7,7,0,0,0,8.79,0,4,4,0,0,0,1.13-2.76v-6.67A8.58,8.58,0,0,0,144.06,245Zm5.67,8.59a5.67,5.67,0,1,1-5.67-5.67A5.69,5.69,0,0,1,149.73,253.55Zm-8.37,8.15.23.07a8.48,8.48,0,0,0,4.94,0l.23-.07v5.09h0v0c0,.24-.15,1.44-2.7,1.44s-2.7-1.2-2.7-1.43Z"/><path class="cls-1" d="M144.06,242.81a1.34,1.34,0,0,0,1.34-1.33v-2.54a1.34,1.34,0,0,0-2.68,0v2.54A1.34,1.34,0,0,0,144.06,242.81Z"/><path class="cls-1" d="M153.09,246a1.33,1.33,0,0,0,.94-.39l1.8-1.8a1.34,1.34,0,0,0,0-1.89,1.38,1.38,0,0,0-1.89,0l-1.8,1.8a1.34,1.34,0,0,0,1,2.28Z"/><path class="cls-1" d="M158.71,251.73h-2.54a1.34,1.34,0,0,0,0,2.67h2.54a1.34,1.34,0,1,0,0-2.67Z"/><path class="cls-1" d="M154.88,260.29a1.36,1.36,0,0,0-1.89,0,1.32,1.32,0,0,0-.39.94,1.36,1.36,0,0,0,.39.95l1.8,1.79a1.34,1.34,0,0,0,1.89-1.89Z"/><path class="cls-1" d="M133.24,260.24l-1.8,1.79a1.36,1.36,0,0,0-.39,1,1.32,1.32,0,0,0,.39.94,1.35,1.35,0,0,0,.95.39,1.33,1.33,0,0,0,.94-.39l1.8-1.79a1.34,1.34,0,0,0-1.89-1.89Z"/><path class="cls-1" d="M134.73,245.58a1.35,1.35,0,0,0,1,.39,1.34,1.34,0,0,0,.94-2.28l-1.79-1.8a1.34,1.34,0,1,0-1.89,1.89Z"/><path class="cls-1" d="M133.29,253.06a1.33,1.33,0,0,0-1.34-1.33h-2.54a1.34,1.34,0,1,0,0,2.67H132A1.34,1.34,0,0,0,133.29,253.06Z"/><text class="cls-11" transform="translate(100 300)">Resources</text><path class="cls-1" d="M172.52,144.11l-2-1.92a.46.46,0,0,1,0-.65.43.43,0,0,1,.64,0l2,1.9a.45.45,0,0,1,0,.64.46.46,0,0,1-.65,0Zm2,1.21a.45.45,0,0,1,.64,0c.69.6,1.39,1.19,2.1,1.78a.42.42,0,0,1,.06.64.44.44,0,0,1-.64.06c-.72-.59-1.43-1.19-2.12-1.79h0A.46.46,0,0,1,174.54,145.32Zm-6-5.11c-.64-.67-1.27-1.34-1.89-2a.46.46,0,0,1,0-.65.45.45,0,0,1,.64,0c.62.68,1.24,1.34,1.88,2a.46.46,0,0,1,0,.65.47.47,0,0,1-.63,0Zm10.23,8.64a.46.46,0,0,1,.64-.08c.72.56,1.46,1.1,2.2,1.64a.45.45,0,0,1,.11.64.46.46,0,0,1-.64.1c-.76-.54-1.5-1.09-2.23-1.66l0,0A.46.46,0,0,1,178.79,148.85Zm-14-12.74c-.61-.7-1.21-1.41-1.79-2.12a.46.46,0,0,1,.06-.64.45.45,0,0,1,.64.06c.58.7,1.17,1.4,1.78,2.1a.46.46,0,0,1-.66.64Zm18.42,16a.46.46,0,0,1,.64-.12c.76.5,1.53,1,2.31,1.48a.47.47,0,0,1,.15.63.45.45,0,0,1-.63.15q-1.18-.74-2.34-1.5l-.06-.05A.47.47,0,0,1,183.25,152.1Zm4.68,2.94a.46.46,0,0,1,.63-.17c.79.45,1.59.89,2.41,1.32a.48.48,0,0,1,.19.62.47.47,0,0,1-.62.19c-.82-.43-1.64-.88-2.44-1.34a.21.21,0,0,1-.08-.06A.47.47,0,0,1,187.93,155Zm4.88,2.59a.46.46,0,0,1,.61-.21c.82.39,1.65.77,2.5,1.13a.46.46,0,0,1,.24.6.45.45,0,0,1-.6.24c-.86-.36-1.7-.75-2.53-1.15l-.12-.07A.47.47,0,0,1,192.81,157.63Zm5.06,2.23a.46.46,0,0,1,.59-.27c.84.33,1.7.65,2.58.95a.46.46,0,0,1-.3.86c-.88-.3-1.75-.62-2.61-1a.38.38,0,0,1-.15-.09A.46.46,0,0,1,197.87,159.86Zm5.21,1.82a.45.45,0,0,1,.57-.3c.87.26,1.75.51,2.64.74a.45.45,0,0,1,.33.55.46.46,0,0,1-.56.33c-.9-.23-1.79-.48-2.68-.75a.42.42,0,0,1-.17-.1A.45.45,0,0,1,203.08,161.68Zm5.34,1.42a.45.45,0,0,1,.54-.35c.89.19,1.79.37,2.69.53a.45.45,0,0,1,.37.53.46.46,0,0,1-.53.37c-.92-.16-1.82-.34-2.72-.54a.42.42,0,0,1-.22-.11A.45.45,0,0,1,208.42,163.1Zm5.43,1a.45.45,0,0,1,.51-.39c.9.12,1.81.23,2.73.32a.47.47,0,0,1,.41.5.46.46,0,0,1-.5.41q-1.4-.13-2.76-.33a.44.44,0,0,1-.25-.11A.49.49,0,0,1,213.85,164.1Z"/><path class="cls-1" d="M111.94,104.85a3,3,0,1,0-3-3A3,3,0,0,0,111.94,104.85Zm0-5a2,2,0,1,1-2,2A2,2,0,0,1,111.94,99.84Z"/><path class="cls-1" d="M124.85,106.85a13.65,13.65,0,0,0-8.47-8.76l.37-.92-1.51.3a2.59,2.59,0,0,1-2.56-1l-.74-1-.74,1a2.59,2.59,0,0,1-2.56,1l-1.51-.3.37.92a13.47,13.47,0,0,0-8.44,8.67,4.49,4.49,0,0,0-.56,7.89,1,1,0,0,1,.42.84v.87a2,2,0,0,0,1.77,2,13.49,13.49,0,0,0,3.74,3.75v3.29h-6v1h27v-1h-7V122.7a13.51,13.51,0,0,0,5-4.83h3v-1h-1v-1h2v-9Zm1.61,4h-2v-3h2Zm-5,4v-3h2v3Zm-3-3h2v3h-2Zm0-1v-3h2v3Zm3,0v-3h2v3ZM108.64,98.48a3.59,3.59,0,0,0,3.3-1.31,3.57,3.57,0,0,0,3.3,1.31,3.56,3.56,0,0,0,1.29,3.36,3.59,3.59,0,0,0-1.36,3.29,3.53,3.53,0,0,0-3.23,1.39,3.59,3.59,0,0,0-2.81-1.35,4,4,0,0,0-.49,0,3.55,3.55,0,0,0-1.3-3.36,3.54,3.54,0,0,0,1.3-3.36ZM99,113.81a3.48,3.48,0,0,1-1.59-3.42,3.52,3.52,0,0,1,3.06-3l.42,0a3.48,3.48,0,0,1,2.33.89,3.54,3.54,0,0,1,1.17,2.62,3.48,3.48,0,0,1-1.61,2.94,2,2,0,0,0-.89,1.56h-.51v-3.09a1.5,1.5,0,1,0-1,0v3.09h-.51a1.93,1.93,0,0,0-.87-1.55Zm1.38-3a.5.5,0,0,1,.5-.5.5.5,0,0,1,.5.5.5.5,0,0,1-.5.5A.51.51,0,0,1,100.42,110.86Zm-.5,5.5h2a1,1,0,1,1-2,0Zm14.52,1v2.29l-2-.4v6.12h-2v-7.12l-1,.2v-1.09Zm-5,2.11v5.9h-4v-5.1Zm4,5.9v-4.9l4,.8v4.1Zm5-3.83v-1.09l-3-.6v-3.5h-1v-1h-1v1h-1v-2h-1v2h-1v-1h-1v1h-1v2.3l-4,.8v1.4a12.75,12.75,0,0,1-2.65-2.69,2,2,0,0,0,1.15-1.81v-.89a1,1,0,0,1,.43-.82,4.51,4.51,0,0,0-3-8.27l-.16,0a12.46,12.46,0,0,1,7.44-7.32,2.55,2.55,0,0,1-1.25,2.17l-1,.58,1,.59a2.56,2.56,0,0,1,1.07,3.16l-.37.93,1.51-.3a2.59,2.59,0,0,1,2.56,1l.74,1,.79-1a2.56,2.56,0,0,1,2.47-1l1.4.23-.3-.81a2.58,2.58,0,0,1,1.09-3.1l1-.62-1-.58a2.56,2.56,0,0,1-1.24-2.17,12.63,12.63,0,0,1,7.6,7.76h-6.35v9h2v1h-1v1h3.86a12.56,12.56,0,0,1-3.86,3.68Zm6-4.69h-4v-1h4Zm0-2v-3h2v3Z"/><path class="cls-1" d="M126.46,125.38h1v1h-1Z"/><path class="cls-1" d="M96.42,125.38h1v1h-1Z"/><path class="cls-1" d="M114.44,123.37h2v1h-2Z"/><path class="cls-1" d="M106.43,121.37h2v1h-2Z"/><path class="cls-1" d="M106.43,123.37h2v1h-2Z"/><path class="cls-1" d="M108.43,109.35h7v1h-7Z"/><path class="cls-1" d="M114.44,111.36h1v1h-1Z"/><path class="cls-1" d="M110.44,111.36h1v1h-1Z"/><path class="cls-1" d="M108.43,111.36h1v1h-1Z"/><path class="cls-1" d="M112.44,111.36h1v1h-1Z"/><path class="cls-1" d="M447.35,164l.16,0a.51.51,0,0,1,.2.69c-.41.77-.87,1.55-1.35,2.31a.52.52,0,0,1-.71.16.5.5,0,0,1-.15-.7c.47-.75.91-1.51,1.31-2.25A.51.51,0,0,1,447.35,164Zm-2.81,4.46a.48.48,0,0,1,.21.09.5.5,0,0,1,.11.71c-.49.69-1,1.39-1.63,2.12a.52.52,0,0,1-.72.07.51.51,0,0,1-.07-.72q.87-1.07,1.59-2.07A.53.53,0,0,1,444.54,168.45Zm-3.35,4.07a.52.52,0,0,1,.28.85c-.58.63-1.21,1.27-1.87,1.9a.51.51,0,1,1-.71-.73q1-.94,1.83-1.86A.53.53,0,0,1,441.19,172.52Zm-3.81,3.65a.48.48,0,0,1,.29.17.51.51,0,0,1-.05.72c-.66.56-1.36,1.12-2.08,1.67a.52.52,0,0,1-.72-.1.51.51,0,0,1,.1-.72c.71-.54,1.39-1.08,2-1.63A.53.53,0,0,1,437.38,176.17Zm-4.21,3.17a.51.51,0,0,1,.19.93c-.72.48-1.47,1-2.25,1.42a.5.5,0,0,1-.7-.18.52.52,0,0,1,.18-.7c.76-.45,1.5-.92,2.21-1.39A.5.5,0,0,1,433.17,179.34ZM428.64,182a.5.5,0,0,1,.36.27.5.5,0,0,1-.22.69c-.77.4-1.56.79-2.39,1.17a.51.51,0,0,1-.67-.26.5.5,0,0,1,.25-.67c.81-.37,1.59-.75,2.34-1.15A.55.55,0,0,1,428.64,182Zm-4.79,2.19a.51.51,0,0,1,.38.32.5.5,0,0,1-.28.66c-.81.32-1.64.63-2.5.92a.51.51,0,1,1-.33-1c.84-.29,1.66-.59,2.45-.91A.54.54,0,0,1,423.85,184.22Zm-5,1.71a.52.52,0,0,1,.05,1c-.84.24-1.69.47-2.57.68a.51.51,0,0,1-.62-.37.51.51,0,0,1,.38-.62c.86-.21,1.7-.44,2.52-.67A.49.49,0,0,1,418.87,185.93Zm-5.12,1.25a.52.52,0,0,1,0,1c-.86.17-1.73.33-2.62.47a.51.51,0,0,1-.58-.43.5.5,0,0,1,.42-.58c.88-.14,1.74-.3,2.58-.46A.41.41,0,0,1,413.75,187.18Zm-5.21.83a.51.51,0,0,1,0,1q-1.29.16-2.64.27a.51.51,0,0,1-.55-.47.52.52,0,0,1,.47-.55c.88-.07,1.75-.16,2.6-.26Zm-5.25.44a.51.51,0,0,1-.06,1c-.87,0-1.75.07-2.65.09a.52.52,0,1,1,0-1c.89,0,1.76,0,2.62-.09Zm-5.27.1a.49.49,0,0,1,.42.51.5.5,0,0,1-.51.5c-.87,0-1.76,0-2.65-.07a.51.51,0,0,1-.49-.53.5.5,0,0,1,.53-.49c.89,0,1.76.06,2.62.07Z"/><text class="cls-11" transform="translate(447.77 158.43)">Programs</text><text class="cls-11" transform="translate(390.77 339.12)">Events</text><path class="cls-1" d="M416.3,156a3.7,3.7,0,1,1,3.69-3.7A3.7,3.7,0,0,1,416.3,156Zm0-6a2.35,2.35,0,1,0,2.34,2.34A2.35,2.35,0,0,0,416.3,150Z"/><path class="cls-1" d="M411.7,159.08a.75.75,0,0,1-.26-.05.67.67,0,0,1-.36-.89,5.59,5.59,0,0,1,5.16-3.42h.11a5.55,5.55,0,0,1,3.29,1.07.67.67,0,1,1-.79,1.09,4.22,4.22,0,0,0-2.5-.81h-.11a4.25,4.25,0,0,0-3.92,2.6.69.69,0,0,1-.62.41Z"/><path class="cls-1" d="M434.82,156a3.7,3.7,0,1,1,3.69-3.7A3.7,3.7,0,0,1,434.82,156Zm0-6a2.35,2.35,0,1,0,2.34,2.34A2.35,2.35,0,0,0,434.82,150Z"/><path class="cls-1" d="M439.42,159.08a.67.67,0,0,1-.62-.41,4.26,4.26,0,0,0-3.93-2.6h-.11a4.24,4.24,0,0,0-2.5.81.67.67,0,0,1-.79-1.09,5.55,5.55,0,0,1,3.29-1.07h.11a5.6,5.6,0,0,1,5.17,3.42.69.69,0,0,1-.36.89.85.85,0,0,1-.26.05Z"/><path class="cls-1" d="M425.56,156a3.7,3.7,0,1,1,3.69-3.7A3.7,3.7,0,0,1,425.56,156Zm0-6a2.35,2.35,0,1,0,2.35,2.34A2.35,2.35,0,0,0,425.56,150Z"/><path class="cls-1" d="M420.76,159.63l-.18,0a.69.69,0,0,1-.47-.84,5.64,5.64,0,0,1,5.39-4.05h.11a5.64,5.64,0,0,1,5.39,4.05.68.68,0,1,1-1.3.37,4.27,4.27,0,0,0-4.09-3.07h-.11a4.26,4.26,0,0,0-4.09,3.08A.67.67,0,0,1,420.76,159.63Z"/><path class="cls-1" d="M419.3,148.48a.68.68,0,0,1-.67-.68v-2.54h-1a.67.67,0,0,1-.67-.67v-4.3a.67.67,0,0,1,.67-.67h15.79a.68.68,0,0,1,.68.67v4.3a.68.68,0,0,1-.68.67H421.94a.68.68,0,0,1,0-1.35h10.84V141H418.34v2.94h1a.67.67,0,0,1,.67.68v3.21a.68.68,0,0,1-.67.68Z"/><path class="cls-1" d="M431.81,148.31a.67.67,0,0,1-.67-.68v-2.71a.68.68,0,0,1,1.35,0v2.71A.67.67,0,0,1,431.81,148.31Z"/><path class="cls-1" d="M422.73,140.72a.67.67,0,0,1-.68-.67v-.86a.68.68,0,0,1,1.35,0v.86A.67.67,0,0,1,422.73,140.72Z"/><path class="cls-1" d="M428.39,140.72a.67.67,0,0,1-.67-.67v-.86a.67.67,0,0,1,1.34,0v.86A.67.67,0,0,1,428.39,140.72Z"/><path class="cls-1" d="M425.56,135.39a3.7,3.7,0,1,1,3.69-3.7A3.7,3.7,0,0,1,425.56,135.39Zm0-6a2.35,2.35,0,1,0,2.34,2.35A2.35,2.35,0,0,0,425.56,129.34Z"/><path class="cls-1" d="M430.54,140.38a.68.68,0,0,1-.67-.68,4.26,4.26,0,0,0-4.26-4.25h-.11a4.26,4.26,0,0,0-4.26,4.25.67.67,0,1,1-1.34,0,5.6,5.6,0,0,1,5.6-5.6h.11a5.61,5.61,0,0,1,5.61,5.6A.68.68,0,0,1,430.54,140.38Z"/><path class="cls-1" d="M425.56,138.65a.69.69,0,0,1-.52-.24L423,135.93l1-.87,1.56,1.86,1.57-1.92,1,.85-2.08,2.55a.67.67,0,0,1-.52.25Z"/><path class="cls-1" d="M424.88,138h1.35v2.21h-1.35Z"/><path class="cls-1" d="M354.83,255a1,1,0,0,1,.07-.15.51.51,0,0,1,.71-.13c.72.49,1.45,1,2.16,1.58a.52.52,0,0,1,.09.72.51.51,0,0,1-.72.08c-.7-.54-1.4-1.06-2.1-1.53A.52.52,0,0,1,354.83,255Zm4.16,3.25a.44.44,0,0,1,.11-.2.51.51,0,0,1,.72,0c.63.56,1.28,1.18,1.93,1.84a.51.51,0,0,1-.72.72c-.64-.65-1.28-1.25-1.89-1.79A.51.51,0,0,1,359,258.21ZM362.7,262a.55.55,0,0,1,.15-.24.51.51,0,0,1,.72,0c.57.65,1.14,1.33,1.71,2.06a.51.51,0,1,1-.81.63c-.55-.71-1.11-1.38-1.66-2A.51.51,0,0,1,362.7,262Zm3.24,4.16a.51.51,0,0,1,.2-.28.51.51,0,0,1,.71.13c.49.71,1,1.46,1.45,2.24a.51.51,0,0,1-.88.53q-.69-1.14-1.41-2.19A.51.51,0,0,1,365.94,266.12Zm2.73,4.5a.58.58,0,0,1,.25-.31.53.53,0,0,1,.7.22c.4.76.8,1.56,1.18,2.38a.51.51,0,1,1-.93.43c-.37-.81-.76-1.58-1.16-2.33A.59.59,0,0,1,368.67,270.62Zm2.22,4.78a.52.52,0,0,1,.3-.33.51.51,0,0,1,.66.29c.33.8.63,1.64.93,2.49a.52.52,0,0,1-.32.65.51.51,0,0,1-.65-.32c-.29-.84-.59-1.65-.91-2.44A.56.56,0,0,1,370.89,275.4Zm1.69,5a.53.53,0,0,1,.36-.35.52.52,0,0,1,.63.35q.36,1.26.66,2.58a.51.51,0,0,1-.38.61.49.49,0,0,1-.61-.38c-.21-.86-.42-1.7-.66-2.53A.66.66,0,0,1,372.58,280.39Zm1.2,5.13a.51.51,0,0,1,.4-.36.5.5,0,0,1,.59.41c.16.86.3,1.73.43,2.63a.51.51,0,0,1-1,.14c-.12-.88-.26-1.74-.41-2.58A.49.49,0,0,1,373.78,285.52Zm.73,5.22a.5.5,0,0,1,.44-.37.52.52,0,0,1,.56.46c.08.87.15,1.75.2,2.65a.51.51,0,0,1-.48.54.5.5,0,0,1-.54-.48c-.05-.89-.12-1.76-.2-2.61A.41.41,0,0,1,374.51,290.74Zm.29,5.26a.53.53,0,0,1,.49-.37.52.52,0,0,1,.52.51c0,.86,0,1.75,0,2.65a.52.52,0,0,1-1,0c0-.89,0-1.76,0-2.62A.77.77,0,0,1,374.8,296Zm-.09,5.27a.53.53,0,0,1,.52-.37.51.51,0,0,1,.48.54c0,.87-.1,1.75-.18,2.65a.5.5,0,0,1-.55.46.51.51,0,0,1-.47-.55q.12-1.33.18-2.61A.5.5,0,0,1,374.71,301.27Zm-.44,5.25a.51.51,0,0,1,.55-.36.51.51,0,0,1,.45.56c-.1.87-.21,1.74-.34,2.63a.51.51,0,0,1-1-.14c.12-.88.24-1.75.33-2.6C374.26,306.58,374.26,306.55,374.27,306.52Z"/><path class="cls-1" d="M376.46,326.82c-2.39-.64-5.11.66-7.11,3.1h-.83a4,4,0,0,0-2.39,1.16l-1.25,1.25a.46.46,0,0,0-.1.5.46.46,0,0,0,.42.3l2.21.1c-.08.2-.15.41-.23.61a3.25,3.25,0,0,0-1.19,3.41.47.47,0,0,0,.37.38,5.4,5.4,0,0,0,.86.08,3.14,3.14,0,0,0,2.55-1.28l.61-.22.1,2.21a.48.48,0,0,0,.31.42.47.47,0,0,0,.5-.11l1.24-1.24a4,4,0,0,0,1.17-2.39v-.84c2.44-2,3.73-4.71,3.09-7.1a.49.49,0,0,0-.33-.34Zm-.52.85a4.58,4.58,0,0,1-.22,2.35l-2.12-2.12A4.67,4.67,0,0,1,375.94,327.67Zm-6.28,7.8L368.15,334a7.85,7.85,0,0,1,.32-.8l2,2-.8.32Zm-3.35-3.23.48-.49a3.16,3.16,0,0,1,1.73-.89h.14a12.77,12.77,0,0,0-.84,1.45Zm.56,4.51a2.17,2.17,0,0,1,.72-2l1.29,1.28A2.2,2.2,0,0,1,366.87,336.75Zm5.88-1.65a3.18,3.18,0,0,1-.88,1.72l-.49.49-.07-1.52a12.58,12.58,0,0,0,1.44-.83v.14Zm-1.39-.39-2.45-2.45a10.49,10.49,0,0,1,2.77-3.31,8.41,8.41,0,0,1,1-.64l2.63,2.63a7.66,7.66,0,0,1-.65,1,10.36,10.36,0,0,1-3.3,2.78Zm1.5-3.95a.59.59,0,0,1,0,.83.6.6,0,0,1-.83,0,.59.59,0,1,1,.83-.83ZM384.18,319h-2.82v-1.13c0-.61-.64-1.1-1.46-1.1s-1.46.49-1.46,1.1V319h-3.11v-1.13c0-.61-.65-1.1-1.46-1.1s-1.47.49-1.47,1.1V319h-3.11v-1.13c0-.61-.64-1.1-1.46-1.1s-1.46.49-1.46,1.1V319h-3.11v-1.13c0-.61-.64-1.1-1.46-1.1s-1.46.49-1.46,1.1V319h-2.83a1.76,1.76,0,0,0-1.76,1.76V342.4a1.76,1.76,0,0,0,1.76,1.76h26.67A1.76,1.76,0,0,0,386,342.4V320.74a1.76,1.76,0,0,0-1.77-1.76Zm-2.73,17.38a.46.46,0,0,0-.41.08.45.45,0,0,0-.19.37,4.19,4.19,0,0,1-4.14,4.23h-19.2a.82.82,0,0,1-.82-.82V324.49H385v12.86Zm2.84,1.77-3.5,2.07-.47.26.12-.13a5.35,5.35,0,0,0,1.31-2.91Zm-4.91-20.26a.88.88,0,0,1,1,0V319h-1v-1.11Zm-6,0a.68.68,0,0,1,.52-.17.65.65,0,0,1,.51.17V319h-1v-1.11Zm-6,0a.88.88,0,0,1,1,0V319h-1v-1.11Zm-6,0a.68.68,0,0,1,.52-.17.7.7,0,0,1,.52.17V319h-1v-1.11Zm-3.77,2.05h2.83v.75c0,.61.64,1.1,1.46,1.1a.48.48,0,0,0,0-.95.68.68,0,0,1-.52-.17v-.73h5.09v.75c0,.61.64,1.1,1.46,1.1a.48.48,0,0,0,0-.95.68.68,0,0,1-.52-.17v-.73h5.09v.75c0,.61.65,1.1,1.47,1.1a.48.48,0,0,0,0-.95.68.68,0,0,1-.52-.17v-.73h5.09v.75c0,.61.64,1.1,1.46,1.1a.48.48,0,0,0,0-.95.68.68,0,0,1-.52-.17v-.73h4.8a.83.83,0,0,1,.83.82v2.81H356.69v-2.81A.82.82,0,0,1,357.51,319.92Zm26.67,23.3H357.51a.82.82,0,0,1-.82-.82v-.62a1.78,1.78,0,0,0,.82.21h20.21a6.66,6.66,0,0,0,3.56-1L385,338.8v3.6a.83.83,0,0,1-.83.82Z"/><text class="cls-11" transform="translate(131.27 119.62)">Ecosystem</text></g></g></svg>