<svg width="183" height="49" viewBox="0 0 183 49" fill="none" xmlns="http://www.w3.org/2000/svg">
<path d="M8.94189 44.2239C8.90114 45.2999 8.46786 46.3174 7.7329 47.0631C6.99793 47.8088 6.01835 48.2248 4.99953 48.224C4.48087 48.2636 3.96005 48.1898 3.46957 48.0073C2.97908 47.8248 2.52944 47.5374 2.14871 47.163C1.76798 46.7887 1.46433 46.3354 1.25669 45.8315C1.04906 45.3276 0.941895 44.784 0.941895 44.2344C0.941895 43.6848 1.04906 43.1411 1.25669 42.6372C1.46433 42.1334 1.76798 41.6801 2.14871 41.3057C2.52944 40.9314 2.97908 40.644 3.46957 40.4615C3.96005 40.2789 4.48087 40.2052 4.99953 40.2448C5.50664 40.2281 6.01181 40.3184 6.48563 40.5101C6.95944 40.7018 7.39241 40.9913 7.75933 41.3616C8.12625 41.7319 8.41977 42.1758 8.62279 42.6672C8.82582 43.1586 8.93429 43.6878 8.94189 44.2239V44.2239Z" fill="white"/>
<path d="M24.7381 44.0602C24.7741 44.8581 24.5704 45.6484 24.1533 46.3294C23.7361 47.0104 23.1247 47.5511 22.3977 47.8816C21.6707 48.2121 20.8614 48.3174 20.074 48.184C19.2866 48.0506 18.5572 47.6846 17.9796 47.133C17.402 46.5814 17.0028 45.8696 16.8333 45.0892C16.6638 44.3087 16.7318 43.4955 17.0285 42.754C17.3253 42.0126 17.8372 41.3769 18.4983 40.9289C19.1594 40.4809 19.9395 40.241 20.7381 40.2402C21.7685 40.2392 22.7596 40.6358 23.5048 41.3475C24.25 42.0591 24.6918 43.0309 24.7381 44.0602Z" fill="white"/>
<path d="M40.5282 44.0602C40.5641 44.8579 40.3604 45.648 39.9433 46.3289C39.5262 47.0098 38.9148 47.5502 38.1878 47.8807C37.4607 48.2112 36.6514 48.3164 35.864 48.1831C35.0766 48.0497 34.3472 47.6837 33.7696 47.1323C33.1921 46.5808 32.7929 45.8692 32.6234 45.0889C32.4539 44.3087 32.5219 43.4956 32.8186 42.7543C33.1153 42.0131 33.6272 41.3775 34.2883 40.9296C34.9495 40.4817 35.7296 40.2419 36.5282 40.2411C37.0427 40.2252 37.5553 40.3117 38.036 40.4958C38.5167 40.6798 38.956 40.9576 39.3283 41.313C39.7006 41.6685 39.9984 42.0944 40.2044 42.5661C40.4104 43.0377 40.5205 43.5456 40.5282 44.0602V44.0602Z" fill="white"/>
<path d="M56.3182 44.0602C56.3542 44.8579 56.1504 45.648 55.7333 46.3289C55.3162 47.0098 54.7048 47.5502 53.9778 47.8807C53.2508 48.2112 52.4415 48.3164 51.6541 48.1831C50.8667 48.0497 50.1372 47.6837 49.5597 47.1323C48.9821 46.5808 48.5829 45.8692 48.4134 45.0889C48.2439 44.3087 48.3119 43.4956 48.6086 42.7543C48.9054 42.0131 49.4172 41.3775 50.0784 40.9296C50.7395 40.4817 51.5196 40.2419 52.3182 40.2411C52.8327 40.2252 53.3453 40.3117 53.826 40.4958C54.3068 40.6798 54.7461 40.9576 55.1184 41.313C55.4906 41.6685 55.7884 42.0944 55.9944 42.5661C56.2004 43.0377 56.3105 43.5456 56.3182 44.0602V44.0602Z" fill="white"/>
<path d="M72.1083 44.0602C72.1442 44.8579 71.9405 45.648 71.5234 46.3289C71.1063 47.0098 70.4948 47.5502 69.7678 47.8807C69.0408 48.2112 68.2315 48.3164 67.4441 48.1831C66.6567 48.0497 65.9273 47.6837 65.3497 47.1323C64.7722 46.5808 64.3729 45.8692 64.2034 45.0889C64.0339 44.3087 64.1019 43.4956 64.3987 42.7543C64.6954 42.0131 65.2073 41.3775 65.8684 40.9296C66.5295 40.4817 67.3096 40.2419 68.1083 40.2411C68.6228 40.2252 69.1353 40.3117 69.6161 40.4958C70.0968 40.6798 70.5361 40.9576 70.9084 41.313C71.2807 41.6685 71.5785 42.0944 71.7845 42.5661C71.9905 43.0377 72.1005 43.5456 72.1083 44.0602V44.0602Z" fill="white"/>
<path d="M87.8983 44.0602C87.9342 44.8579 87.7305 45.648 87.3134 46.3289C86.8963 47.0098 86.2849 47.5502 85.5579 47.8807C84.8309 48.2112 84.0216 48.3164 83.2342 48.1831C82.4468 48.0497 81.7173 47.6837 81.1398 47.1323C80.5622 46.5808 80.163 45.8692 79.9935 45.0889C79.824 44.3087 79.892 43.4956 80.1887 42.7543C80.4854 42.0131 80.9973 41.3775 81.6584 40.9296C82.3196 40.4817 83.0997 40.2419 83.8983 40.2411C84.4128 40.2252 84.9254 40.3117 85.4061 40.4958C85.8869 40.6798 86.3262 40.9576 86.6984 41.313C87.0707 41.6685 87.3685 42.0944 87.5745 42.5661C87.7805 43.0377 87.8906 43.5456 87.8983 44.0602V44.0602Z" fill="white"/>
<path d="M8.84082 30.9749C8.8334 31.5111 8.72757 32.0403 8.52947 32.5317C8.33138 33.0231 8.04499 33.4669 7.68699 33.8373C7.32899 34.2076 6.90653 34.4971 6.44423 34.6889C5.98193 34.8806 5.48902 34.9707 4.99423 34.9541C4.47449 35.0249 3.9468 34.9751 3.44619 34.808C2.94559 34.6409 2.48353 34.3604 2.0907 33.985C1.69787 33.6097 1.38326 33.1481 1.16776 32.6309C0.952268 32.1137 0.84082 31.5528 0.84082 30.9854C0.84082 30.4179 0.952268 29.857 1.16776 29.3398C1.38326 28.8226 1.69787 28.361 2.0907 27.9857C2.48353 27.6103 2.94559 27.3298 3.44619 27.1627C3.9468 26.9956 4.47449 26.9458 4.99423 27.0166C5.98195 27.0153 6.93229 27.4255 7.64838 28.1624C8.36447 28.8993 8.79144 29.9064 8.84082 30.9749V30.9749Z" fill="white"/>
<path d="M24.739 30.8195C24.7709 31.6165 24.5637 32.4048 24.144 33.0831C23.7243 33.7615 23.1114 34.2989 22.3838 34.6262C21.6563 34.9536 20.8475 35.0559 20.0613 34.9202C19.2752 34.7844 18.5476 34.4167 17.9721 33.8643C17.3965 33.3119 16.9994 32.6001 16.8316 31.8203C16.6639 31.0405 16.7332 30.2284 17.0306 29.4883C17.3281 28.7482 17.8402 28.114 18.501 27.667C19.1618 27.2201 19.9412 26.981 20.739 26.9804C21.2552 26.9644 21.7694 27.0516 22.2514 27.2368C22.7334 27.4221 23.1736 27.7017 23.5462 28.0593C23.9187 28.4169 24.2161 28.8452 24.421 29.3191C24.6258 29.7931 24.7339 30.3032 24.739 30.8195V30.8195Z" fill="white"/>
<path d="M40.5285 30.8195C40.5604 31.6165 40.3533 32.4048 39.9336 33.0831C39.5139 33.7615 38.9009 34.2989 38.1734 34.6262C37.4459 34.9536 36.6371 35.0559 35.8509 34.9202C35.0647 34.7844 34.3371 34.4167 33.7616 33.8643C33.1861 33.3119 32.7889 32.6001 32.6212 31.8203C32.4534 31.0405 32.5227 30.2284 32.8202 29.4883C33.1177 28.7482 33.6297 28.114 34.2905 27.667C34.9513 27.2201 35.7307 26.981 36.5285 26.9804C37.0447 26.9644 37.5589 27.0516 38.041 27.2368C38.523 27.4221 38.9632 27.7017 39.3357 28.0593C39.7083 28.4169 40.0057 28.8452 40.2105 29.3191C40.4153 29.7931 40.5235 30.3032 40.5285 30.8195V30.8195Z" fill="white"/>
<path d="M56.3186 30.8195C56.3505 31.6165 56.1433 32.4048 55.7236 33.0831C55.3039 33.7615 54.6909 34.2989 53.9634 34.6262C53.2359 34.9536 52.4271 35.0559 51.6409 34.9202C50.8548 34.7844 50.1272 34.4167 49.5517 33.8643C48.9761 33.3119 48.579 32.6001 48.4112 31.8203C48.2434 31.0405 48.3128 30.2284 48.6102 29.4883C48.9077 28.7482 49.4198 28.114 50.0806 27.667C50.7414 27.2201 51.5208 26.981 52.3186 26.9804C52.8348 26.9644 53.349 27.0516 53.831 27.2368C54.313 27.4221 54.7532 27.7017 55.1258 28.0593C55.4983 28.4169 55.7957 28.8452 56.0006 29.3191C56.2054 29.7931 56.3135 30.3032 56.3186 30.8195V30.8195Z" fill="white"/>
<path d="M72.1086 30.8195C72.1405 31.6165 71.9333 32.4048 71.5136 33.0831C71.094 33.7615 70.481 34.2989 69.7535 34.6262C69.0259 34.9536 68.2171 35.0559 67.431 34.9202C66.6448 34.7844 65.9172 34.4167 65.3417 33.8643C64.7662 33.3119 64.369 32.6001 64.2012 31.8203C64.0335 31.0405 64.1028 30.2284 64.4003 29.4883C64.6977 28.7482 65.2098 28.114 65.8706 27.667C66.5314 27.2201 67.3108 26.981 68.1086 26.9804C68.6248 26.9644 69.139 27.0516 69.621 27.2368C70.1031 27.4221 70.5433 27.7017 70.9158 28.0593C71.2884 28.4169 71.5858 28.8452 71.7906 29.3191C71.9954 29.7931 72.1035 30.3032 72.1086 30.8195Z" fill="white"/>
<path d="M87.8987 30.8195C87.9306 31.6165 87.7234 32.4048 87.3037 33.0831C86.884 33.7615 86.271 34.2989 85.5435 34.6262C84.816 34.9536 84.0072 35.0559 83.221 34.9202C82.4349 34.7844 81.7073 34.4167 81.1317 33.8643C80.5562 33.3119 80.159 32.6001 79.9913 31.8203C79.8235 31.0405 79.8928 30.2284 80.1903 29.4883C80.4878 28.7482 80.9998 28.114 81.6607 27.667C82.3215 27.2201 83.1009 26.981 83.8987 26.9804C84.4148 26.9644 84.929 27.0516 85.4111 27.2368C85.8931 27.4221 86.3333 27.7017 86.7059 28.0593C87.0784 28.4169 87.3758 28.8452 87.5806 29.3191C87.7855 29.7931 87.8936 30.3032 87.8987 30.8195V30.8195Z" fill="white"/>
<path d="M8.94189 17.7448C8.93429 18.281 8.82582 18.8102 8.62279 19.3016C8.41977 19.793 8.12625 20.2368 7.75933 20.6071C7.39241 20.9775 6.95944 21.2669 6.48563 21.4586C6.01181 21.6504 5.50664 21.7406 4.99953 21.724C4.48087 21.7636 3.96005 21.6898 3.46957 21.5073C2.97908 21.3248 2.52944 21.0374 2.14871 20.663C1.76798 20.2887 1.46433 19.8354 1.25669 19.3315C1.04906 18.8276 0.941895 18.284 0.941895 17.7344C0.941895 17.1848 1.04906 16.6411 1.25669 16.1372C1.46433 15.6334 1.76798 15.1801 2.14871 14.8057C2.52944 14.4314 2.97908 14.144 3.46957 13.9615C3.96005 13.7789 4.48087 13.7052 4.99953 13.7448C6.01835 13.7439 6.99793 14.16 7.7329 14.9057C8.46786 15.6514 8.90114 16.6689 8.94189 17.7448Z" fill="white"/>
<path d="M24.739 17.5802C24.7709 18.3772 24.5637 19.1655 24.144 19.8439C23.7243 20.5222 23.1114 21.0596 22.3838 21.387C21.6563 21.7143 20.8475 21.8167 20.0613 21.6809C19.2752 21.5451 18.5476 21.1774 17.9721 20.6251C17.3965 20.0727 16.9994 19.3609 16.8316 18.5811C16.6639 17.8013 16.7332 16.9892 17.0306 16.2491C17.3281 15.509 17.8402 14.8748 18.501 14.4278C19.1618 13.9809 19.9412 13.7418 20.739 13.7411C21.2552 13.7251 21.7694 13.8123 22.2514 13.9976C22.7334 14.1829 23.1736 14.4625 23.5462 14.82C23.9187 15.1776 24.2161 15.606 24.421 16.0799C24.6258 16.5539 24.7339 17.064 24.739 17.5802V17.5802Z" fill="white"/>
<path d="M40.5285 17.5802C40.5604 18.3772 40.3533 19.1655 39.9336 19.8439C39.5139 20.5222 38.9009 21.0596 38.1734 21.387C37.4459 21.7143 36.6371 21.8167 35.8509 21.6809C35.0647 21.5451 34.3371 21.1774 33.7616 20.6251C33.1861 20.0727 32.7889 19.3609 32.6212 18.5811C32.4534 17.8013 32.5227 16.9892 32.8202 16.2491C33.1177 15.509 33.6297 14.8748 34.2905 14.4278C34.9513 13.9809 35.7307 13.7418 36.5285 13.7411C37.0447 13.7251 37.5589 13.8123 38.041 13.9976C38.523 14.1829 38.9632 14.4625 39.3357 14.82C39.7083 15.1776 40.0057 15.606 40.2105 16.0799C40.4153 16.5539 40.5235 17.064 40.5285 17.5802V17.5802Z" fill="white"/>
<path d="M56.3186 17.5802C56.3505 18.3772 56.1433 19.1655 55.7236 19.8439C55.3039 20.5222 54.6909 21.0596 53.9634 21.387C53.2359 21.7143 52.4271 21.8167 51.6409 21.6809C50.8548 21.5451 50.1272 21.1774 49.5517 20.6251C48.9761 20.0727 48.579 19.3609 48.4112 18.5811C48.2434 17.8013 48.3128 16.9892 48.6102 16.2491C48.9077 15.509 49.4198 14.8748 50.0806 14.4278C50.7414 13.9809 51.5208 13.7418 52.3186 13.7411C52.8348 13.7251 53.349 13.8123 53.831 13.9976C54.313 14.1829 54.7532 14.4625 55.1258 14.82C55.4983 15.1776 55.7957 15.606 56.0006 16.0799C56.2054 16.5539 56.3135 17.064 56.3186 17.5802Z" fill="white"/>
<path d="M72.1086 17.5802C72.1405 18.3772 71.9333 19.1655 71.5136 19.8439C71.094 20.5222 70.481 21.0596 69.7535 21.387C69.0259 21.7143 68.2171 21.8167 67.431 21.6809C66.6448 21.5451 65.9172 21.1774 65.3417 20.6251C64.7662 20.0727 64.369 19.3609 64.2012 18.5811C64.0335 17.8013 64.1028 16.9892 64.4003 16.2491C64.6977 15.509 65.2098 14.8748 65.8706 14.4278C66.5314 13.9809 67.3108 13.7418 68.1086 13.7411C68.6248 13.7251 69.139 13.8123 69.621 13.9976C70.1031 14.1829 70.5433 14.4625 70.9158 14.82C71.2884 15.1776 71.5858 15.606 71.7906 16.0799C71.9954 16.5539 72.1035 17.064 72.1086 17.5802Z" fill="white"/>
<path d="M87.8987 17.5802C87.9306 18.3772 87.7234 19.1655 87.3037 19.8439C86.884 20.5222 86.271 21.0596 85.5435 21.387C84.816 21.7143 84.0072 21.8167 83.221 21.6809C82.4349 21.5451 81.7073 21.1774 81.1317 20.6251C80.5562 20.0727 80.159 19.3609 79.9913 18.5811C79.8235 17.8013 79.8928 16.9892 80.1903 16.2491C80.4878 15.509 80.9998 14.8748 81.6607 14.4278C82.3215 13.9809 83.1009 13.7418 83.8987 13.7411C84.4148 13.7251 84.929 13.8123 85.4111 13.9976C85.8931 14.1829 86.3333 14.4625 86.7059 14.82C87.0784 15.1776 87.3758 15.606 87.5806 16.0799C87.7855 16.5539 87.8936 17.064 87.8987 17.5802V17.5802Z" fill="white"/>
<path d="M8.94189 4.47395C8.90114 5.54987 8.46786 6.56738 7.7329 7.31309C6.99793 8.0588 6.01835 8.47482 4.99953 8.47396C4.48087 8.5136 3.96005 8.43982 3.46957 8.25729C2.97908 8.07475 2.52944 7.78738 2.14871 7.41303C1.76798 7.03869 1.46433 6.5854 1.25669 6.08152C1.04906 5.57764 0.941895 5.03397 0.941895 4.48437C0.941895 3.93478 1.04906 3.39111 1.25669 2.88723C1.46433 2.38335 1.76798 1.93006 2.14871 1.55572C2.52944 1.18137 2.97908 0.893999 3.46957 0.711464C3.96005 0.528928 4.48087 0.455152 4.99953 0.49479C5.50664 0.478146 6.01181 0.568362 6.48563 0.760101C6.95944 0.95184 7.39241 1.24126 7.75933 1.6116C8.12625 1.98194 8.41977 2.42576 8.62279 2.91718C8.82582 3.40859 8.93429 3.93779 8.94189 4.47395V4.47395Z" fill="white"/>
<path d="M24.7381 4.31024C24.7741 5.10805 24.5704 5.89837 24.1533 6.57941C23.7361 7.26044 23.1247 7.80105 22.3977 8.13159C21.6707 8.46212 20.8614 8.56743 20.074 8.43402C19.2866 8.30061 18.5572 7.93456 17.9796 7.38299C17.402 6.83143 17.0028 6.1196 16.8333 5.33917C16.6638 4.55874 16.7318 3.74548 17.0285 3.00403C17.3253 2.26258 17.8372 1.6269 18.4983 1.1789C19.1594 0.73089 19.9395 0.491045 20.7381 0.490236C21.7685 0.489193 22.7596 0.885829 23.5048 1.59747C24.25 2.30912 24.6918 3.28088 24.7381 4.31024Z" fill="white"/>
<path d="M40.5282 4.31024C40.5641 5.10787 40.3604 5.89799 39.9433 6.57887C39.5262 7.25975 38.9148 7.80024 38.1878 8.1307C37.4607 8.46115 36.6514 8.56643 35.864 8.43305C35.0766 8.29968 34.3472 7.93371 33.7696 7.38228C33.1921 6.83084 32.7929 6.11918 32.6234 5.33893C32.4539 4.55868 32.5219 3.74561 32.8186 3.00433C33.1153 2.26306 33.6272 1.62753 34.2883 1.17962C34.9495 0.731724 35.7296 0.491935 36.5282 0.491126C37.0427 0.475152 37.5553 0.56174 38.036 0.745766C38.5167 0.929793 38.956 1.20758 39.3283 1.56302C39.7006 1.91846 39.9984 2.34443 40.2044 2.81608C40.4104 3.28773 40.5205 3.79564 40.5282 4.31024V4.31024Z" fill="white"/>
<path d="M56.3182 4.31024C56.3542 5.10787 56.1504 5.89799 55.7333 6.57887C55.3162 7.25975 54.7048 7.80024 53.9778 8.1307C53.2508 8.46115 52.4415 8.56643 51.6541 8.43305C50.8667 8.29968 50.1372 7.93371 49.5597 7.38228C48.9821 6.83084 48.5829 6.11918 48.4134 5.33893C48.2439 4.55868 48.3119 3.74561 48.6086 3.00433C48.9054 2.26306 49.4172 1.62753 50.0784 1.17962C50.7395 0.731724 51.5196 0.491935 52.3182 0.491126C52.8327 0.475152 53.3453 0.56174 53.826 0.745766C54.3068 0.929793 54.7461 1.20758 55.1184 1.56302C55.4906 1.91846 55.7884 2.34443 55.9944 2.81608C56.2004 3.28773 56.3105 3.79564 56.3182 4.31024V4.31024Z" fill="white"/>
<path d="M72.1083 4.31024C72.1442 5.10787 71.9405 5.89799 71.5234 6.57887C71.1063 7.25975 70.4948 7.80024 69.7678 8.1307C69.0408 8.46115 68.2315 8.56643 67.4441 8.43305C66.6567 8.29968 65.9273 7.93371 65.3497 7.38228C64.7722 6.83084 64.3729 6.11918 64.2034 5.33893C64.0339 4.55868 64.1019 3.74561 64.3987 3.00433C64.6954 2.26306 65.2073 1.62753 65.8684 1.17962C66.5295 0.731724 67.3096 0.491935 68.1083 0.491126C68.6228 0.475152 69.1353 0.56174 69.6161 0.745766C70.0968 0.929793 70.5361 1.20758 70.9084 1.56302C71.2807 1.91846 71.5785 2.34443 71.7845 2.81608C71.9905 3.28773 72.1005 3.79564 72.1083 4.31024V4.31024Z" fill="white"/>
<path d="M87.8983 4.31024C87.9342 5.10787 87.7305 5.89799 87.3134 6.57887C86.8963 7.25975 86.2849 7.80024 85.5579 8.1307C84.8309 8.46115 84.0216 8.56643 83.2342 8.43305C82.4468 8.29968 81.7173 7.93371 81.1398 7.38228C80.5622 6.83084 80.163 6.11918 79.9935 5.33893C79.824 4.55868 79.892 3.74561 80.1887 3.00433C80.4854 2.26306 80.9973 1.62753 81.6584 1.17962C82.3196 0.731724 83.0997 0.491935 83.8983 0.491126C84.4128 0.475152 84.9254 0.56174 85.4061 0.745766C85.8869 0.929793 86.3262 1.20758 86.6984 1.56302C87.0707 1.91846 87.3685 2.34443 87.5745 2.81608C87.7805 3.28773 87.8906 3.79564 87.8983 4.31024V4.31024Z" fill="white"/>
<path d="M103.879 44.7198C103.911 45.5168 103.703 46.3051 103.284 46.9835C102.864 47.6618 102.251 48.1992 101.523 48.5266C100.796 48.8539 99.9872 48.9563 99.201 48.8206C98.4148 48.6848 97.6872 48.3171 97.1117 47.7647C96.5362 47.2123 96.139 46.5005 95.9713 45.7207C95.8035 44.9409 95.8728 44.1288 96.1703 43.3887C96.4678 42.6486 96.9798 42.0143 97.6406 41.5674C98.3014 41.1205 99.0808 40.8814 99.8786 40.8808C100.395 40.8648 100.909 40.952 101.391 41.1372C101.873 41.3225 102.313 41.6021 102.686 41.9597C103.058 42.3172 103.356 42.7455 103.561 43.2195C103.765 43.6935 103.874 44.2035 103.879 44.7198Z" fill="white"/>
<path d="M119.669 44.7198C119.701 45.5168 119.493 46.3051 119.074 46.9835C118.654 47.6618 118.041 48.1992 117.314 48.5266C116.586 48.8539 115.777 48.9563 114.991 48.8206C114.205 48.6848 113.477 48.3171 112.902 47.7647C112.326 47.2123 111.929 46.5005 111.761 45.7207C111.594 44.9409 111.663 44.1288 111.96 43.3887C112.258 42.6486 112.77 42.0143 113.431 41.5674C114.091 41.1205 114.871 40.8814 115.669 40.8808C116.185 40.8648 116.699 40.952 117.181 41.1372C117.663 41.3225 118.103 41.6021 118.476 41.9597C118.848 42.3172 119.146 42.7455 119.351 43.2195C119.555 43.6935 119.664 44.2035 119.669 44.7198Z" fill="white"/>
<path d="M135.469 44.7198C135.501 45.517 135.294 46.3055 134.874 46.984C134.454 47.6625 133.841 48.2 133.114 48.5275C132.386 48.8549 131.577 48.9573 130.791 48.8215C130.005 48.6857 129.278 48.3179 128.702 47.7654C128.127 47.2129 127.729 46.5009 127.562 45.7209C127.394 44.941 127.463 44.1287 127.761 43.3884C128.058 42.6482 128.57 42.0137 129.231 41.5667C129.892 41.1197 130.671 40.8805 131.469 40.8799C132.503 40.8791 133.497 41.2784 134.242 41.9943C134.988 42.7102 135.428 43.687 135.469 44.7198Z" fill="white"/>
<path d="M151.259 44.7198C151.29 45.517 151.083 46.3055 150.664 46.984C150.244 47.6625 149.631 48.2 148.903 48.5275C148.176 48.8549 147.367 48.9573 146.581 48.8215C145.795 48.6857 145.067 48.3179 144.492 47.7654C143.916 47.2129 143.519 46.5009 143.351 45.7209C143.183 44.941 143.253 44.1287 143.55 43.3884C143.848 42.6482 144.36 42.0137 145.02 41.5667C145.681 41.1197 146.461 40.8805 147.259 40.8799C148.292 40.8791 149.286 41.2784 150.032 41.9943C150.778 42.7102 151.217 43.687 151.259 44.7198Z" fill="white"/>
<path d="M167.049 44.7198C167.08 45.517 166.873 46.3055 166.454 46.984C166.034 47.6625 165.421 48.2 164.693 48.5275C163.966 48.8549 163.157 48.9573 162.371 48.8215C161.585 48.6857 160.857 48.3179 160.282 47.7654C159.706 47.2129 159.309 46.5009 159.141 45.7209C158.973 44.941 159.043 44.1287 159.34 43.3884C159.638 42.6482 160.15 42.0137 160.811 41.5667C161.471 41.1197 162.251 40.8805 163.049 40.8799C164.082 40.8791 165.076 41.2784 165.822 41.9943C166.568 42.7102 167.007 43.687 167.049 44.7198Z" fill="white"/>
<path d="M182.839 44.7198C182.871 45.517 182.663 46.3055 182.244 46.984C181.824 47.6625 181.211 48.2 180.483 48.5275C179.756 48.8549 178.947 48.9573 178.161 48.8215C177.375 48.6857 176.647 48.3179 176.072 47.7654C175.496 47.2129 175.099 46.5009 174.931 45.7209C174.763 44.941 174.833 44.1287 175.13 43.3884C175.428 42.6482 175.94 42.0137 176.601 41.5667C177.261 41.1197 178.041 40.8805 178.839 40.8799C179.872 40.8791 180.866 41.2784 181.612 41.9943C182.358 42.7102 182.797 43.687 182.839 44.7198Z" fill="white"/>
<path d="M103.878 31.4499C103.914 32.2475 103.711 33.0377 103.293 33.7185C102.876 34.3994 102.265 34.9398 101.538 35.2703C100.811 35.6008 100.002 35.7061 99.2141 35.5727C98.4267 35.4393 97.6973 35.0734 97.1197 34.5219C96.5422 33.9705 96.1429 33.2588 95.9735 32.4786C95.804 31.6983 95.872 30.8852 96.1687 30.1439C96.4654 29.4026 96.9773 28.7672 97.6384 28.3193C98.2996 27.8714 99.0796 27.6316 99.8783 27.6308C100.393 27.6148 100.905 27.7013 101.386 27.8854C101.867 28.0694 102.306 28.3472 102.678 28.7027C103.051 29.0581 103.349 29.4841 103.555 29.9557C103.761 30.4274 103.871 30.9353 103.878 31.4499V31.4499Z" fill="white"/>
<path d="M119.668 31.4499C119.704 32.2475 119.501 33.0377 119.083 33.7185C118.666 34.3994 118.055 34.9398 117.328 35.2703C116.601 35.6008 115.792 35.7061 115.004 35.5727C114.217 35.4393 113.487 35.0734 112.91 34.5219C112.332 33.9705 111.933 33.2588 111.763 32.4786C111.594 31.6983 111.662 30.8852 111.959 30.1439C112.255 29.4026 112.767 28.7672 113.428 28.3193C114.09 27.8714 114.87 27.6316 115.668 27.6308C116.183 27.6148 116.695 27.7013 117.176 27.8854C117.657 28.0694 118.096 28.3472 118.468 28.7027C118.841 29.0581 119.139 29.4841 119.345 29.9557C119.551 30.4274 119.661 30.9353 119.668 31.4499V31.4499Z" fill="white"/>
<path d="M135.468 31.4499C135.504 32.2477 135.3 33.038 134.883 33.7191C134.466 34.4001 133.855 34.9407 133.128 35.2712C132.401 35.6017 131.591 35.7071 130.804 35.5737C130.017 35.4403 129.287 35.0742 128.71 34.5227C128.132 33.9711 127.733 33.2593 127.563 32.4788C127.394 31.6984 127.462 30.8851 127.759 30.1436C128.055 29.4022 128.567 28.7666 129.228 28.3185C129.889 27.8705 130.67 27.6307 131.468 27.6299C132.499 27.6288 133.49 28.0255 134.235 28.7371C134.98 29.4488 135.422 30.4205 135.468 31.4499V31.4499Z" fill="white"/>
<path d="M151.258 31.4499C151.294 32.2477 151.09 33.038 150.673 33.7191C150.256 34.4001 149.645 34.9407 148.918 35.2712C148.191 35.6017 147.381 35.7071 146.594 35.5737C145.807 35.4403 145.077 35.0742 144.5 34.5227C143.922 33.9711 143.523 33.2593 143.353 32.4788C143.184 31.6984 143.252 30.8851 143.549 30.1436C143.845 29.4022 144.357 28.7666 145.018 28.3185C145.679 27.8705 146.46 27.6307 147.258 27.6299C148.289 27.6288 149.28 28.0255 150.025 28.7371C150.77 29.4488 151.212 30.4205 151.258 31.4499V31.4499Z" fill="white"/>
<path d="M167.048 31.4499C167.084 32.2477 166.88 33.038 166.463 33.7191C166.046 34.4001 165.435 34.9407 164.708 35.2712C163.981 35.6017 163.171 35.7071 162.384 35.5737C161.597 35.4403 160.867 35.0742 160.29 34.5227C159.712 33.9711 159.313 33.2593 159.143 32.4788C158.974 31.6984 159.042 30.8851 159.339 30.1436C159.635 29.4022 160.147 28.7666 160.808 28.3185C161.469 27.8705 162.25 27.6307 163.048 27.6299C164.079 27.6288 165.07 28.0255 165.815 28.7371C166.56 29.4488 167.002 30.4205 167.048 31.4499V31.4499Z" fill="white"/>
<path d="M182.838 31.4499C182.874 32.2477 182.67 33.038 182.253 33.7191C181.836 34.4001 181.225 34.9407 180.498 35.2712C179.771 35.6017 178.962 35.7071 178.174 35.5737C177.387 35.4403 176.657 35.0742 176.08 34.5227C175.502 33.9711 175.103 33.2593 174.933 32.4788C174.764 31.6984 174.832 30.8851 175.129 30.1436C175.425 29.4022 175.937 28.7666 176.598 28.3185C177.26 27.8705 178.04 27.6307 178.838 27.6299C179.869 27.6288 180.86 28.0255 181.605 28.7371C182.35 29.4488 182.792 30.4205 182.838 31.4499V31.4499Z" fill="white"/>
<path d="M103.878 18.2096C103.914 19.0072 103.711 19.7974 103.293 20.4782C102.876 21.1591 102.265 21.6996 101.538 22.0301C100.811 22.3605 100.002 22.4659 99.2141 22.3325C98.4267 22.1991 97.6973 21.8331 97.1197 21.2817C96.5422 20.7303 96.1429 20.0186 95.9735 19.2384C95.804 18.4581 95.872 17.645 96.1687 16.9037C96.4654 16.1624 96.9773 15.5269 97.6384 15.079C98.2996 14.6311 99.0796 14.3914 99.8783 14.3905C100.393 14.3746 100.905 14.4611 101.386 14.6451C101.867 14.8291 102.306 15.107 102.678 15.4624C103.051 15.8179 103.349 16.2438 103.555 16.7154C103.761 17.1871 103.871 17.695 103.878 18.2096V18.2096Z" fill="white"/>
<path d="M119.668 18.2096C119.704 19.0072 119.501 19.7974 119.083 20.4782C118.666 21.1591 118.055 21.6996 117.328 22.0301C116.601 22.3605 115.792 22.4659 115.004 22.3325C114.217 22.1991 113.487 21.8331 112.91 21.2817C112.332 20.7303 111.933 20.0186 111.763 19.2384C111.594 18.4581 111.662 17.645 111.959 16.9037C112.255 16.1624 112.767 15.5269 113.428 15.079C114.09 14.6311 114.87 14.3914 115.668 14.3905C116.183 14.3746 116.695 14.4611 117.176 14.6451C117.657 14.8291 118.096 15.107 118.468 15.4624C118.841 15.8179 119.139 16.2438 119.345 16.7154C119.551 17.1871 119.661 17.695 119.668 18.2096V18.2096Z" fill="white"/>
<path d="M135.468 18.2096C135.504 19.0074 135.3 19.7977 134.883 20.4788C134.466 21.1598 133.855 21.7004 133.128 22.031C132.401 22.3615 131.591 22.4669 130.804 22.3334C130.017 22.2 129.287 21.834 128.71 21.2824C128.132 20.7309 127.733 20.019 127.563 19.2386C127.394 18.4582 127.462 17.6448 127.759 16.9034C128.055 16.1619 128.567 15.5263 129.228 15.0783C129.889 14.6303 130.67 14.3905 131.468 14.3897C132.499 14.3886 133.49 14.7852 134.235 15.4968C134.98 16.2085 135.422 17.1802 135.468 18.2096V18.2096Z" fill="white"/>
<path d="M151.258 18.2096C151.294 19.0074 151.09 19.7977 150.673 20.4788C150.256 21.1598 149.645 21.7004 148.918 22.031C148.191 22.3615 147.381 22.4669 146.594 22.3334C145.807 22.2 145.077 21.834 144.5 21.2824C143.922 20.7309 143.523 20.019 143.353 19.2386C143.184 18.4582 143.252 17.6448 143.549 16.9034C143.845 16.1619 144.357 15.5263 145.018 15.0783C145.679 14.6303 146.46 14.3905 147.258 14.3897C148.289 14.3886 149.28 14.7852 150.025 15.4968C150.77 16.2085 151.212 17.1802 151.258 18.2096V18.2096Z" fill="white"/>
<path d="M167.048 18.2096C167.084 19.0074 166.88 19.7977 166.463 20.4788C166.046 21.1598 165.435 21.7004 164.708 22.031C163.981 22.3615 163.171 22.4669 162.384 22.3334C161.597 22.2 160.867 21.834 160.29 21.2824C159.712 20.7309 159.313 20.019 159.143 19.2386C158.974 18.4582 159.042 17.6448 159.339 16.9034C159.635 16.1619 160.147 15.5263 160.808 15.0783C161.469 14.6303 162.25 14.3905 163.048 14.3897C164.079 14.3886 165.07 14.7852 165.815 15.4968C166.56 16.2085 167.002 17.1802 167.048 18.2096V18.2096Z" fill="white"/>
<path d="M182.838 18.2096C182.874 19.0074 182.67 19.7977 182.253 20.4788C181.836 21.1598 181.225 21.7004 180.498 22.031C179.771 22.3615 178.962 22.4669 178.174 22.3334C177.387 22.2 176.657 21.834 176.08 21.2824C175.502 20.7309 175.103 20.019 174.933 19.2386C174.764 18.4582 174.832 17.6448 175.129 16.9034C175.425 16.1619 175.937 15.5263 176.598 15.0783C177.26 14.6303 178.04 14.3905 178.838 14.3897C179.869 14.3886 180.86 14.7852 181.605 15.4968C182.35 16.2085 182.792 17.1802 182.838 18.2096V18.2096Z" fill="white"/>
<path d="M103.879 4.96983C103.911 5.76681 103.703 6.55512 103.284 7.23346C102.864 7.9118 102.251 8.4492 101.523 8.77656C100.796 9.10391 99.9872 9.20632 99.201 9.07056C98.4148 8.93479 97.6872 8.56709 97.1117 8.01471C96.5362 7.46234 96.139 6.75048 95.9713 5.9707C95.8035 5.19091 95.8728 4.37882 96.1703 3.63872C96.4678 2.89863 96.9798 2.26434 97.6406 1.81744C98.3014 1.37053 99.0808 1.13141 99.8786 1.13077C100.395 1.11477 100.909 1.20197 101.391 1.38724C101.873 1.5725 102.313 1.85211 102.686 2.20968C103.058 2.56724 103.356 2.99554 103.561 3.46951C103.765 3.94348 103.874 4.45354 103.879 4.96983Z" fill="white"/>
<path d="M119.669 4.96983C119.701 5.76681 119.493 6.55512 119.074 7.23346C118.654 7.9118 118.041 8.4492 117.314 8.77656C116.586 9.10391 115.777 9.20632 114.991 9.07056C114.205 8.93479 113.477 8.56709 112.902 8.01471C112.326 7.46234 111.929 6.75048 111.761 5.9707C111.594 5.19091 111.663 4.37882 111.96 3.63872C112.258 2.89863 112.77 2.26434 113.431 1.81744C114.091 1.37053 114.871 1.13141 115.669 1.13077C116.185 1.11477 116.699 1.20197 117.181 1.38724C117.663 1.5725 118.103 1.85211 118.476 2.20968C118.848 2.56724 119.146 2.99554 119.351 3.46951C119.555 3.94348 119.664 4.45354 119.669 4.96983Z" fill="white"/>
<path d="M135.469 4.96984C135.501 5.76701 135.294 6.5555 134.874 7.234C134.454 7.9125 133.841 8.45002 133.114 8.77745C132.386 9.10488 131.577 9.20731 130.791 9.07152C130.005 8.93572 129.278 8.56793 128.702 8.01543C128.127 7.46292 127.729 6.75091 127.562 5.97094C127.394 5.19097 127.463 4.37869 127.761 3.63842C128.058 2.89815 128.57 2.26372 129.231 1.81671C129.892 1.3697 130.671 1.13052 131.469 1.12988C132.503 1.12906 133.497 1.52844 134.242 2.24432C134.988 2.9602 135.428 3.93695 135.469 4.96984Z" fill="white"/>
<path d="M151.259 4.96984C151.29 5.76701 151.083 6.5555 150.664 7.234C150.244 7.9125 149.631 8.45002 148.903 8.77745C148.176 9.10488 147.367 9.20731 146.581 9.07152C145.795 8.93572 145.067 8.56793 144.492 8.01543C143.916 7.46292 143.519 6.75091 143.351 5.97094C143.183 5.19097 143.253 4.37869 143.55 3.63842C143.848 2.89815 144.36 2.26372 145.02 1.81671C145.681 1.3697 146.461 1.13052 147.259 1.12988C148.292 1.12906 149.286 1.52844 150.032 2.24432C150.778 2.9602 151.217 3.93695 151.259 4.96984Z" fill="white"/>
<path d="M167.049 4.96984C167.08 5.76701 166.873 6.5555 166.454 7.234C166.034 7.9125 165.421 8.45002 164.693 8.77745C163.966 9.10488 163.157 9.20731 162.371 9.07152C161.585 8.93572 160.857 8.56793 160.282 8.01543C159.706 7.46292 159.309 6.75091 159.141 5.97094C158.973 5.19097 159.043 4.37869 159.34 3.63842C159.638 2.89815 160.15 2.26372 160.811 1.81671C161.471 1.3697 162.251 1.13052 163.049 1.12988C164.082 1.12906 165.076 1.52844 165.822 2.24432C166.568 2.9602 167.007 3.93695 167.049 4.96984Z" fill="white"/>
<path d="M182.839 4.96984C182.871 5.76701 182.663 6.5555 182.244 7.234C181.824 7.9125 181.211 8.45002 180.483 8.77745C179.756 9.10488 178.947 9.20731 178.161 9.07152C177.375 8.93572 176.647 8.56793 176.072 8.01543C175.496 7.46292 175.099 6.75091 174.931 5.97094C174.763 5.19097 174.833 4.37869 175.13 3.63842C175.428 2.89815 175.94 2.26372 176.601 1.81671C177.261 1.3697 178.041 1.13052 178.839 1.12988C179.872 1.12906 180.866 1.52844 181.612 2.24432C182.358 2.9602 182.797 3.93695 182.839 4.96984Z" fill="white"/>
</svg>
