<svg width="49" height="183" viewBox="0 0 49 183" fill="none" xmlns="http://www.w3.org/2000/svg">
<path d="M5.29565 8.94141C4.21972 8.90065 3.20221 8.46738 2.45651 7.73241C1.7108 6.99744 1.29471 6.01786 1.29557 4.99904C1.25593 4.48038 1.32971 3.95957 1.51225 3.46908C1.69478 2.97859 1.98222 2.52895 2.35656 2.14822C2.7309 1.76749 3.18413 1.46384 3.68801 1.2562C4.19189 1.04857 4.73563 0.941406 5.28522 0.941406C5.83481 0.941406 6.37842 1.04857 6.8823 1.2562C7.38618 1.46384 7.83953 1.76749 8.21388 2.14822C8.58822 2.52895 8.87553 2.97859 9.05807 3.46908C9.2406 3.95957 9.31438 4.48038 9.27474 4.99904C9.29139 5.50615 9.20123 6.01133 9.00949 6.48514C8.81775 6.95895 8.52827 7.39193 8.15793 7.75884C7.78759 8.12576 7.34383 8.41928 6.85242 8.62231C6.361 8.82533 5.83181 8.93381 5.29565 8.94141V8.94141Z" fill="white"/>
<path d="M5.30015 24.7381C4.50233 24.7741 3.71201 24.5704 3.03097 24.1533C2.34993 23.7361 1.80925 23.1247 1.47872 22.3977C1.14818 21.6707 1.04294 20.8614 1.17635 20.074C1.30975 19.2866 1.67581 18.5572 2.22738 17.9796C2.77895 17.402 3.49078 17.0028 4.27121 16.8333C5.05164 16.6638 5.86485 16.7318 6.60631 17.0285C7.34776 17.3253 7.9835 17.8372 8.43151 18.4983C8.87952 19.1594 9.11931 19.9395 9.12012 20.7381C9.12116 21.7685 8.72458 22.7596 8.01293 23.5048C7.30128 24.25 6.32951 24.6918 5.30015 24.7381V24.7381Z" fill="white"/>
<path d="M5.29917 40.5282C4.50154 40.5641 3.71141 40.3604 3.03052 39.9433C2.34964 39.5262 1.80909 38.9148 1.47863 38.1878C1.14817 37.4607 1.04295 36.6514 1.17633 35.864C1.30971 35.0766 1.67568 34.3472 2.22712 33.7696C2.77856 33.1921 3.49023 32.7929 4.27048 32.6234C5.05073 32.4539 5.86375 32.5219 6.60503 32.8186C7.34631 33.1153 7.9819 33.6272 8.42981 34.2883C8.87771 34.9495 9.11744 35.7296 9.11825 36.5282C9.13422 37.0427 9.04769 37.5553 8.86367 38.036C8.67964 38.5167 8.40179 38.956 8.04635 39.3283C7.6909 39.7006 7.26499 39.9984 6.79334 40.2044C6.32169 40.4104 5.81377 40.5205 5.29917 40.5282V40.5282Z" fill="white"/>
<path d="M5.29917 56.3182C4.50154 56.3542 3.71141 56.1504 3.03052 55.7333C2.34964 55.3162 1.80909 54.7048 1.47863 53.9778C1.14817 53.2508 1.04295 52.4415 1.17633 51.6541C1.30971 50.8667 1.67568 50.1372 2.22712 49.5597C2.77856 48.9821 3.49023 48.5829 4.27048 48.4134C5.05073 48.2439 5.86375 48.3119 6.60503 48.6086C7.34631 48.9054 7.9819 49.4172 8.42981 50.0784C8.87771 50.7395 9.11744 51.5196 9.11825 52.3182C9.13422 52.8327 9.04769 53.3453 8.86367 53.826C8.67964 54.3068 8.40179 54.7461 8.04635 55.1184C7.6909 55.4906 7.26499 55.7884 6.79334 55.9944C6.32169 56.2004 5.81377 56.3105 5.29917 56.3182V56.3182Z" fill="white"/>
<path d="M5.29917 72.1083C4.50154 72.1442 3.71141 71.9405 3.03052 71.5234C2.34964 71.1063 1.80909 70.4948 1.47863 69.7678C1.14817 69.0408 1.04295 68.2315 1.17633 67.4441C1.30971 66.6567 1.67568 65.9273 2.22712 65.3497C2.77856 64.7722 3.49023 64.3729 4.27048 64.2034C5.05073 64.0339 5.86375 64.1019 6.60503 64.3987C7.34631 64.6954 7.9819 65.2073 8.42981 65.8684C8.87771 66.5295 9.11744 67.3096 9.11825 68.1083C9.13422 68.6228 9.04769 69.1353 8.86367 69.6161C8.67964 70.0968 8.40179 70.5361 8.04635 70.9084C7.6909 71.2807 7.26499 71.5785 6.79334 71.7845C6.32169 71.9905 5.81377 72.1005 5.29917 72.1083V72.1083Z" fill="white"/>
<path d="M5.29917 87.8983C4.50154 87.9342 3.71141 87.7305 3.03052 87.3134C2.34964 86.8963 1.80909 86.2849 1.47863 85.5579C1.14817 84.8309 1.04295 84.0216 1.17633 83.2342C1.30971 82.4468 1.67568 81.7173 2.22712 81.1398C2.77856 80.5622 3.49023 80.163 4.27048 79.9935C5.05073 79.824 5.86375 79.892 6.60503 80.1887C7.34631 80.4854 7.9819 80.9973 8.42981 81.6584C8.87771 82.3196 9.11744 83.0997 9.11825 83.8983C9.13422 84.4128 9.04769 84.9254 8.86367 85.4061C8.67964 85.8869 8.40179 86.3262 8.04635 86.6984C7.6909 87.0707 7.26499 87.3685 6.79334 87.5745C6.32169 87.7805 5.81377 87.8906 5.29917 87.8983V87.8983Z" fill="white"/>
<path d="M18.535 8.94141C17.9989 8.93381 17.4697 8.82533 16.9783 8.62231C16.4869 8.41928 16.043 8.12576 15.6726 7.75884C15.3023 7.39193 15.0128 6.95895 14.8211 6.48514C14.6293 6.01133 14.5392 5.50615 14.5558 4.99904C14.5162 4.48038 14.59 3.95957 14.7725 3.46908C14.955 2.97859 15.2425 2.52895 15.6168 2.14822C15.9912 1.76749 16.4444 1.46384 16.9483 1.2562C17.4521 1.04857 17.9959 0.941406 18.5455 0.941406C19.0951 0.941406 19.6387 1.04857 20.1426 1.2562C20.6464 1.46384 21.0997 1.76749 21.474 2.14822C21.8483 2.52895 22.1358 2.97859 22.3183 3.46908C22.5009 3.95957 22.5746 4.48038 22.535 4.99904C22.5359 6.01786 22.1198 6.99744 21.3741 7.73241C20.6284 8.46738 19.611 8.90065 18.535 8.94141Z" fill="white"/>
<path d="M18.5394 24.738C17.7425 24.7699 16.9542 24.5627 16.2758 24.143C15.5975 23.7234 15.0601 23.1104 14.7327 22.3829C14.4054 21.6553 14.303 20.8465 14.4387 20.0604C14.5745 19.2742 14.9423 18.5466 15.4946 17.9711C16.047 17.3956 16.7588 16.9984 17.5386 16.8306C18.3184 16.6629 19.1305 16.7322 19.8706 17.0297C20.6107 17.3271 21.2449 17.8392 21.6918 18.5C22.1387 19.1608 22.3779 19.9402 22.3785 20.738C22.3945 21.2542 22.3072 21.7684 22.122 22.2504C21.9367 22.7325 21.6571 23.1727 21.2995 23.5452C20.942 23.9178 20.5137 24.2152 20.0397 24.42C19.5657 24.6248 19.0557 24.7329 18.5394 24.738V24.738Z" fill="white"/>
<path d="M18.5394 40.528C17.7425 40.56 16.9542 40.3528 16.2758 39.9331C15.5975 39.5134 15.0601 38.9004 14.7327 38.1729C14.4054 37.4454 14.303 36.6366 14.4387 35.8504C14.5745 35.0642 14.9423 34.3367 15.4946 33.7611C16.047 33.1856 16.7588 32.7884 17.5386 32.6207C18.3184 32.4529 19.1305 32.5222 19.8706 32.8197C20.6107 33.1172 21.2449 33.6292 21.6918 34.29C22.1387 34.9509 22.3779 35.7302 22.3785 36.528C22.3945 37.0442 22.3072 37.5584 22.122 38.0405C21.9367 38.5225 21.6571 38.9627 21.2995 39.3353C20.942 39.7078 20.5137 40.0052 20.0397 40.21C19.5657 40.4149 19.0557 40.523 18.5394 40.528V40.528Z" fill="white"/>
<path d="M18.5394 56.3181C17.7425 56.35 16.9542 56.1428 16.2758 55.7231C15.5975 55.3034 15.0601 54.6905 14.7327 53.9629C14.4054 53.2354 14.303 52.4266 14.4387 51.6405C14.5745 50.8543 14.9423 50.1267 15.4946 49.5512C16.047 48.9756 16.7588 48.5785 17.5386 48.4107C18.3184 48.243 19.1305 48.3123 19.8706 48.6098C20.6107 48.9072 21.2449 49.4193 21.6918 50.0801C22.1387 50.7409 22.3779 51.5203 22.3785 52.3181C22.3945 52.8343 22.3072 53.3485 22.122 53.8305C21.9367 54.3126 21.6571 54.7528 21.2995 55.1253C20.942 55.4978 20.5137 55.7952 20.0397 56.0001C19.5657 56.2049 19.0557 56.313 18.5394 56.3181V56.3181Z" fill="white"/>
<path d="M18.5394 72.1081C17.7425 72.14 16.9542 71.9328 16.2758 71.5132C15.5975 71.0935 15.0601 70.4805 14.7327 69.753C14.4054 69.0255 14.303 68.2166 14.4387 67.4305C14.5745 66.6443 14.9423 65.9167 15.4946 65.3412C16.047 64.7657 16.7588 64.3685 17.5386 64.2008C18.3184 64.033 19.1305 64.1023 19.8706 64.3998C20.6107 64.6973 21.2449 65.2093 21.6918 65.8701C22.1387 66.5309 22.3779 67.3103 22.3785 68.1081C22.3945 68.6243 22.3072 69.1385 22.122 69.6205C21.9367 70.1026 21.6571 70.5428 21.2995 70.9153C20.942 71.2879 20.5137 71.5853 20.0397 71.7901C19.5657 71.9949 19.0557 72.103 18.5394 72.1081V72.1081Z" fill="white"/>
<path d="M18.5394 87.8982C17.7425 87.9301 16.9542 87.7229 16.2758 87.3032C15.5975 86.8835 15.0601 86.2705 14.7327 85.543C14.4054 84.8155 14.303 84.0067 14.4387 83.2205C14.5745 82.4344 14.9423 81.7068 15.4946 81.1313C16.047 80.5557 16.7588 80.1586 17.5386 79.9908C18.3184 79.823 19.1305 79.8924 19.8706 80.1898C20.6107 80.4873 21.2449 80.9994 21.6918 81.6602C22.1387 82.321 22.3779 83.1004 22.3785 83.8982C22.3945 84.4144 22.3072 84.9285 22.122 85.4106C21.9367 85.8926 21.6571 86.3328 21.2995 86.7054C20.942 87.0779 20.5137 87.3753 20.0397 87.5801C19.5657 87.785 19.0557 87.8931 18.5394 87.8982Z" fill="white"/>
<path d="M31.7748 8.94141C31.2386 8.93381 30.7094 8.82533 30.218 8.62231C29.7266 8.41928 29.2827 8.12576 28.9124 7.75884C28.542 7.39193 28.2527 6.95895 28.0609 6.48514C27.8692 6.01133 27.7789 5.50615 27.7956 4.99904C27.7559 4.48038 27.8297 3.95957 28.0122 3.46908C28.1948 2.97859 28.4822 2.52895 28.8566 2.14822C29.2309 1.76749 29.6841 1.46384 30.188 1.2562C30.6919 1.04857 31.2356 0.941406 31.7852 0.941406C32.3348 0.941406 32.8784 1.04857 33.3823 1.2562C33.8862 1.46384 34.3395 1.76749 34.7139 2.14822C35.0882 2.52895 35.3755 2.97859 35.5581 3.46908C35.7406 3.95957 35.8144 4.48038 35.7747 4.99904C35.7756 6.01786 35.3596 6.99744 34.6139 7.73241C33.8682 8.46738 32.8507 8.90065 31.7748 8.94141Z" fill="white"/>
<path d="M31.7792 24.738C30.9822 24.7699 30.1939 24.5627 29.5156 24.143C28.8372 23.7234 28.2998 23.1104 27.9725 22.3829C27.6451 21.6553 27.5427 20.8465 27.6785 20.0604C27.8142 19.2742 28.182 18.5466 28.7344 17.9711C29.2867 17.3956 29.9985 16.9984 30.7783 16.8306C31.5581 16.6629 32.3702 16.7322 33.1103 17.0297C33.8504 17.3271 34.4846 17.8392 34.9315 18.5C35.3784 19.1608 35.6176 19.9402 35.6183 20.738C35.6342 21.2542 35.5471 21.7684 35.3618 22.2504C35.1766 22.7325 34.897 23.1727 34.5394 23.5452C34.1818 23.9178 33.7534 24.2152 33.2794 24.42C32.8055 24.6248 32.2955 24.7329 31.7792 24.738V24.738Z" fill="white"/>
<path d="M31.7792 40.528C30.9822 40.56 30.1939 40.3528 29.5156 39.9331C28.8372 39.5134 28.2998 38.9004 27.9725 38.1729C27.6451 37.4454 27.5427 36.6366 27.6785 35.8504C27.8142 35.0642 28.182 34.3367 28.7344 33.7611C29.2867 33.1856 29.9985 32.7884 30.7783 32.6207C31.5581 32.4529 32.3702 32.5222 33.1103 32.8197C33.8504 33.1172 34.4846 33.6292 34.9315 34.29C35.3784 34.9509 35.6176 35.7302 35.6183 36.528C35.6342 37.0442 35.5471 37.5584 35.3618 38.0405C35.1766 38.5225 34.897 38.9627 34.5394 39.3353C34.1818 39.7078 33.7534 40.0052 33.2794 40.21C32.8055 40.4149 32.2955 40.523 31.7792 40.528V40.528Z" fill="white"/>
<path d="M31.7792 56.3181C30.9822 56.35 30.1939 56.1428 29.5156 55.7231C28.8372 55.3034 28.2998 54.6905 27.9725 53.9629C27.6451 53.2354 27.5427 52.4266 27.6785 51.6405C27.8142 50.8543 28.182 50.1267 28.7344 49.5512C29.2867 48.9756 29.9985 48.5785 30.7783 48.4107C31.5581 48.243 32.3702 48.3123 33.1103 48.6098C33.8504 48.9072 34.4846 49.4193 34.9315 50.0801C35.3784 50.7409 35.6176 51.5203 35.6183 52.3181C35.6342 52.8343 35.5471 53.3485 35.3618 53.8305C35.1766 54.3126 34.897 54.7528 34.5394 55.1253C34.1818 55.4978 33.7534 55.7952 33.2794 56.0001C32.8055 56.2049 32.2955 56.313 31.7792 56.3181V56.3181Z" fill="white"/>
<path d="M31.7792 72.1081C30.9822 72.14 30.1939 71.9328 29.5156 71.5132C28.8372 71.0935 28.2998 70.4805 27.9725 69.753C27.6451 69.0255 27.5427 68.2166 27.6785 67.4305C27.8142 66.6443 28.182 65.9167 28.7344 65.3412C29.2867 64.7657 29.9985 64.3685 30.7783 64.2008C31.5581 64.033 32.3702 64.1023 33.1103 64.3998C33.8504 64.6973 34.4846 65.2093 34.9315 65.8701C35.3784 66.5309 35.6176 67.3103 35.6183 68.1081C35.6342 68.6243 35.5471 69.1385 35.3618 69.6205C35.1766 70.1026 34.897 70.5428 34.5394 70.9153C34.1818 71.2879 33.7534 71.5853 33.2794 71.7901C32.8055 71.9949 32.2955 72.103 31.7792 72.1081V72.1081Z" fill="white"/>
<path d="M31.7792 87.8982C30.9822 87.9301 30.1939 87.7229 29.5156 87.3032C28.8372 86.8835 28.2998 86.2705 27.9725 85.543C27.6451 84.8155 27.5427 84.0067 27.6785 83.2205C27.8142 82.4344 28.182 81.7068 28.7344 81.1313C29.2867 80.5557 29.9985 80.1586 30.7783 79.9908C31.5581 79.823 32.3702 79.8924 33.1103 80.1898C33.8504 80.4873 34.4846 80.9994 34.9315 81.6602C35.3784 82.321 35.6176 83.1004 35.6183 83.8982C35.6342 84.4144 35.5471 84.9285 35.3618 85.4106C35.1766 85.8926 34.897 86.3328 34.5394 86.7054C34.1818 87.0779 33.7534 87.3753 33.2794 87.5801C32.8055 87.785 32.2955 87.8931 31.7792 87.8982Z" fill="white"/>
<path d="M45.1722 8.94141C44.0671 8.94141 43.0074 8.52605 42.226 7.78671C41.4446 7.04738 41.0055 6.04462 41.0055 4.99904C40.9659 4.48038 41.0397 3.95957 41.2222 3.46908C41.4047 2.97859 41.6922 2.52895 42.0665 2.14822C42.4409 1.76749 42.8941 1.46384 43.398 1.2562C43.9019 1.04857 44.4455 0.941406 44.9951 0.941406C45.5446 0.941406 46.0884 1.04857 46.5923 1.2562C47.0961 1.46384 47.5494 1.76749 47.9237 2.14822C48.2981 2.52895 48.5855 2.97859 48.768 3.46908C48.9506 3.95957 49.0243 4.48038 48.9847 4.99904C49.019 5.99704 48.6393 6.96815 47.9269 7.70483C47.2145 8.44151 46.2258 8.88532 45.1722 8.94141V8.94141Z" fill="white"/>
<path d="M45.0902 24.7381C44.2924 24.7741 43.502 24.5704 42.821 24.1533C42.1399 23.7361 41.5994 23.1247 41.2689 22.3977C40.9383 21.6707 40.833 20.8614 40.9664 20.074C41.0998 19.2866 41.4658 18.5572 42.0174 17.9796C42.569 17.402 43.2808 17.0028 44.0612 16.8333C44.8417 16.6638 45.655 16.7318 46.3965 17.0285C47.1379 17.3253 47.7735 17.8372 48.2216 18.4983C48.6696 19.1594 48.9093 19.9395 48.9102 20.7381C48.9112 21.7685 48.5146 22.7596 47.803 23.5048C47.0913 24.25 46.1195 24.6918 45.0902 24.7381V24.7381Z" fill="white"/>
<path d="M45.0892 40.5282C44.2916 40.5641 43.5014 40.3604 42.8205 39.9433C42.1397 39.5262 41.5992 38.9148 41.2688 38.1878C40.9383 37.4607 40.833 36.6514 40.9663 35.864C41.0997 35.0766 41.4657 34.3472 42.0171 33.7696C42.5686 33.1921 43.2802 32.7929 44.0605 32.6234C44.8408 32.4539 45.6539 32.5219 46.3952 32.8186C47.1365 33.1153 47.7719 33.6272 48.2198 34.2883C48.6677 34.9495 48.9075 35.7296 48.9083 36.5282C48.9243 37.0427 48.8377 37.5553 48.6537 38.036C48.4697 38.5167 48.1918 38.956 47.8364 39.3283C47.4809 39.7006 47.055 39.9984 46.5834 40.2044C46.1117 40.4104 45.6038 40.5205 45.0892 40.5282V40.5282Z" fill="white"/>
<path d="M45.0892 56.3182C44.2916 56.3542 43.5014 56.1504 42.8205 55.7333C42.1397 55.3162 41.5992 54.7048 41.2688 53.9778C40.9383 53.2508 40.833 52.4415 40.9663 51.6541C41.0997 50.8667 41.4657 50.1372 42.0171 49.5597C42.5686 48.9821 43.2802 48.5829 44.0605 48.4134C44.8408 48.2439 45.6539 48.3119 46.3952 48.6086C47.1365 48.9054 47.7719 49.4172 48.2198 50.0784C48.6677 50.7395 48.9075 51.5196 48.9083 52.3182C48.9243 52.8327 48.8377 53.3453 48.6537 53.826C48.4697 54.3068 48.1918 54.7461 47.8364 55.1184C47.4809 55.4906 47.055 55.7884 46.5834 55.9944C46.1117 56.2004 45.6038 56.3105 45.0892 56.3182V56.3182Z" fill="white"/>
<path d="M45.0892 72.1083C44.2916 72.1442 43.5014 71.9405 42.8205 71.5234C42.1397 71.1063 41.5992 70.4948 41.2688 69.7678C40.9383 69.0408 40.833 68.2315 40.9663 67.4441C41.0997 66.6567 41.4657 65.9273 42.0171 65.3497C42.5686 64.7722 43.2802 64.3729 44.0605 64.2034C44.8408 64.0339 45.6539 64.1019 46.3952 64.3987C47.1365 64.6954 47.7719 65.2073 48.2198 65.8684C48.6677 66.5295 48.9075 67.3096 48.9083 68.1083C48.9243 68.6228 48.8377 69.1353 48.6537 69.6161C48.4697 70.0968 48.1918 70.5361 47.8364 70.9084C47.4809 71.2807 47.055 71.5785 46.5834 71.7845C46.1117 71.9905 45.6038 72.1005 45.0892 72.1083V72.1083Z" fill="white"/>
<path d="M45.0892 87.8983C44.2916 87.9342 43.5014 87.7305 42.8205 87.3134C42.1397 86.8963 41.5992 86.2849 41.2688 85.5579C40.9383 84.8309 40.833 84.0216 40.9663 83.2342C41.0997 82.4468 41.4657 81.7173 42.0171 81.1398C42.5686 80.5622 43.2802 80.163 44.0605 79.9935C44.8408 79.824 45.6539 79.892 46.3952 80.1887C47.1365 80.4854 47.7719 80.9973 48.2198 81.6584C48.6677 82.3196 48.9075 83.0997 48.9083 83.8983C48.9243 84.4128 48.8377 84.9254 48.6537 85.4061C48.4697 85.8869 48.1918 86.3262 47.8364 86.6984C47.4809 87.0707 47.055 87.3685 46.5834 87.5745C46.1117 87.7805 45.6038 87.8906 45.0892 87.8983V87.8983Z" fill="white"/>
<path d="M4.63954 103.879C3.84256 103.911 3.05425 103.703 2.37591 103.284C1.69757 102.864 1.16017 102.251 0.832818 101.523C0.505465 100.796 0.403057 99.9872 0.538819 99.201C0.674582 98.4148 1.04235 97.6872 1.59472 97.1117C2.1471 96.5362 2.85889 96.139 3.63868 95.9713C4.41846 95.8035 5.23055 95.8728 5.97065 96.1703C6.71075 96.4678 7.34509 96.9798 7.792 97.6406C8.23891 98.3014 8.47797 99.0808 8.47861 99.8786C8.4946 100.395 8.40746 100.909 8.2222 101.391C8.03693 101.873 7.75732 102.313 7.39976 102.686C7.04219 103.058 6.61389 103.356 6.13992 103.561C5.66595 103.765 5.15583 103.874 4.63954 103.879V103.879Z" fill="white"/>
<path d="M4.63954 119.669C3.84256 119.701 3.05425 119.493 2.37591 119.074C1.69757 118.654 1.16017 118.041 0.832818 117.314C0.505465 116.586 0.403057 115.777 0.538819 114.991C0.674582 114.205 1.04235 113.477 1.59472 112.902C2.1471 112.326 2.85889 111.929 3.63868 111.761C4.41846 111.594 5.23055 111.663 5.97065 111.96C6.71075 112.258 7.34509 112.77 7.792 113.431C8.23891 114.091 8.47797 114.871 8.47861 115.669C8.4946 116.185 8.40746 116.699 8.2222 117.181C8.03693 117.663 7.75732 118.103 7.39976 118.476C7.04219 118.848 6.61389 119.146 6.13992 119.351C5.66595 119.555 5.15583 119.664 4.63954 119.669V119.669Z" fill="white"/>
<path d="M4.64051 135.468C3.84334 135.5 3.05485 135.293 2.37635 134.874C1.69785 134.454 1.16033 133.841 0.8329 133.113C0.505471 132.386 0.403039 131.577 0.538833 130.791C0.674627 130.005 1.04248 129.277 1.59498 128.702C2.14749 128.126 2.85945 127.729 3.63941 127.561C4.41938 127.393 5.23166 127.463 5.97193 127.76C6.7122 128.058 7.34669 128.57 7.7937 129.23C8.24071 129.891 8.47983 130.671 8.48047 131.468C8.4813 132.502 8.08197 133.496 7.36609 134.242C6.65021 134.988 5.6734 135.427 4.64051 135.468Z" fill="white"/>
<path d="M4.64051 151.259C3.84334 151.29 3.05485 151.083 2.37635 150.664C1.69785 150.244 1.16033 149.631 0.8329 148.903C0.505471 148.176 0.403039 147.367 0.538833 146.581C0.674627 145.795 1.04248 145.067 1.59498 144.492C2.14749 143.916 2.85945 143.519 3.63941 143.351C4.41938 143.183 5.23166 143.253 5.97193 143.55C6.7122 143.848 7.34669 144.36 7.7937 145.02C8.24071 145.681 8.47983 146.461 8.48047 147.259C8.4813 148.292 8.08197 149.286 7.36609 150.032C6.65021 150.778 5.6734 151.217 4.64051 151.259Z" fill="white"/>
<path d="M4.64051 167.049C3.84334 167.08 3.05485 166.873 2.37635 166.454C1.69785 166.034 1.16033 165.421 0.8329 164.693C0.505471 163.966 0.403039 163.157 0.538833 162.371C0.674627 161.585 1.04248 160.857 1.59498 160.282C2.14749 159.706 2.85945 159.309 3.63941 159.141C4.41938 158.973 5.23166 159.043 5.97193 159.34C6.7122 159.638 7.34669 160.15 7.7937 160.811C8.24071 161.471 8.47983 162.251 8.48047 163.049C8.4813 164.082 8.08197 165.076 7.36609 165.822C6.65021 166.568 5.6734 167.007 4.64051 167.049Z" fill="white"/>
<path d="M4.64051 182.839C3.84334 182.871 3.05485 182.663 2.37635 182.244C1.69785 181.824 1.16033 181.211 0.8329 180.483C0.505471 179.756 0.403039 178.947 0.538833 178.161C0.674627 177.375 1.04248 176.647 1.59498 176.072C2.14749 175.496 2.85945 175.099 3.63941 174.931C4.41938 174.763 5.23166 174.833 5.97193 175.13C6.7122 175.428 7.34669 175.94 7.7937 176.601C8.24071 177.261 8.47983 178.041 8.48047 178.839C8.4813 179.872 8.08197 180.866 7.36609 181.612C6.65021 182.358 5.6734 182.797 4.64051 182.839Z" fill="white"/>
<path d="M17.9095 103.878C17.1119 103.914 16.3217 103.71 15.6409 103.293C14.96 102.876 14.4195 102.264 14.0891 101.537C13.7586 100.81 13.6533 100.001 13.7867 99.2136C13.92 98.4262 14.286 97.6968 14.8374 97.1192C15.3889 96.5417 16.1006 96.1425 16.8808 95.973C17.6611 95.8035 18.4742 95.8715 19.2155 96.1682C19.9568 96.4649 20.5923 96.9768 21.0402 97.6379C21.4881 98.2991 21.7278 99.0792 21.7286 99.8778C21.7446 100.392 21.658 100.905 21.474 101.386C21.29 101.866 21.0121 102.306 20.6567 102.678C20.3013 103.05 19.8753 103.348 19.4037 103.554C18.932 103.76 18.4241 103.87 17.9095 103.878Z" fill="white"/>
<path d="M17.9095 119.668C17.1119 119.704 16.3217 119.5 15.6409 119.083C14.96 118.666 14.4195 118.054 14.0891 117.327C13.7586 116.6 13.6533 115.791 13.7867 115.004C13.92 114.216 14.286 113.487 14.8374 112.909C15.3889 112.332 16.1006 111.932 16.8808 111.763C17.6611 111.594 18.4742 111.662 19.2155 111.958C19.9568 112.255 20.5923 112.767 21.0402 113.428C21.4881 114.089 21.7278 114.869 21.7286 115.668C21.7446 116.182 21.658 116.695 21.474 117.176C21.29 117.656 21.0121 118.096 20.6567 118.468C20.3013 118.84 19.8753 119.138 19.4037 119.344C18.932 119.55 18.4241 119.66 17.9095 119.668Z" fill="white"/>
<path d="M17.9105 135.468C17.1127 135.504 16.3223 135.3 15.6413 134.883C14.9603 134.466 14.4197 133.854 14.0892 133.127C13.7586 132.4 13.6533 131.591 13.7867 130.803C13.9201 130.016 14.2861 129.287 14.8377 128.709C15.3893 128.132 16.1011 127.732 16.8815 127.563C17.662 127.393 18.4753 127.461 19.2168 127.758C19.9582 128.055 20.5939 128.567 21.0419 129.228C21.4899 129.889 21.7297 130.669 21.7305 131.468C21.7315 132.498 21.3349 133.489 20.6233 134.234C19.9116 134.979 18.9399 135.421 17.9105 135.468Z" fill="white"/>
<path d="M17.9105 151.258C17.1127 151.294 16.3223 151.09 15.6413 150.673C14.9603 150.256 14.4197 149.644 14.0892 148.917C13.7586 148.19 13.6533 147.381 13.7867 146.594C13.9201 145.806 14.2861 145.077 14.8377 144.499C15.3893 143.922 16.1011 143.522 16.8815 143.353C17.662 143.183 18.4753 143.251 19.2168 143.548C19.9582 143.845 20.5939 144.357 21.0419 145.018C21.4899 145.679 21.7297 146.459 21.7305 147.258C21.7315 148.288 21.3349 149.279 20.6233 150.024C19.9116 150.77 18.9399 151.211 17.9105 151.258Z" fill="white"/>
<path d="M17.9105 167.048C17.1127 167.084 16.3223 166.88 15.6413 166.463C14.9603 166.046 14.4197 165.434 14.0892 164.707C13.7586 163.98 13.6533 163.171 13.7867 162.384C13.9201 161.596 14.2861 160.867 14.8377 160.289C15.3893 159.712 16.1011 159.312 16.8815 159.143C17.662 158.973 18.4753 159.041 19.2168 159.338C19.9582 159.635 20.5939 160.147 21.0419 160.808C21.4899 161.469 21.7297 162.249 21.7305 163.048C21.7315 164.078 21.3349 165.069 20.6233 165.814C19.9116 166.56 18.9399 167.001 17.9105 167.048Z" fill="white"/>
<path d="M17.9105 182.838C17.1127 182.874 16.3223 182.67 15.6413 182.253C14.9603 181.836 14.4197 181.224 14.0892 180.497C13.7586 179.77 13.6533 178.961 13.7867 178.174C13.9201 177.386 14.2861 176.657 14.8377 176.079C15.3893 175.502 16.1011 175.102 16.8815 174.933C17.662 174.763 18.4753 174.831 19.2168 175.128C19.9582 175.425 20.5939 175.937 21.0419 176.598C21.4899 177.259 21.7297 178.039 21.7305 178.838C21.7315 179.868 21.3349 180.859 20.6233 181.604C19.9116 182.35 18.9399 182.791 17.9105 182.838Z" fill="white"/>
<path d="M31.1292 103.879C30.3323 103.911 29.5439 103.703 28.8656 103.284C28.1872 102.864 27.6498 102.251 27.3225 101.523C26.9951 100.796 26.8928 99.9872 27.0286 99.201C27.1644 98.4148 27.532 97.6872 28.0844 97.1117C28.6368 96.5362 29.3486 96.139 30.1284 95.9713C30.9082 95.8035 31.7204 95.8728 32.4605 96.1703C33.2006 96.4678 33.8348 96.9798 34.2817 97.6406C34.7286 98.3014 34.9677 99.0808 34.9684 99.8786C34.9843 100.395 34.8972 100.909 34.7119 101.391C34.5267 101.873 34.2471 102.313 33.8895 102.686C33.5319 103.058 33.1036 103.356 32.6296 103.561C32.1557 103.765 31.6455 103.874 31.1292 103.879V103.879Z" fill="white"/>
<path d="M31.1292 119.669C30.3323 119.701 29.5439 119.493 28.8656 119.074C28.1872 118.654 27.6498 118.041 27.3225 117.314C26.9951 116.586 26.8928 115.777 27.0286 114.991C27.1644 114.205 27.532 113.477 28.0844 112.902C28.6368 112.326 29.3486 111.929 30.1284 111.761C30.9082 111.594 31.7204 111.663 32.4605 111.96C33.2006 112.258 33.8348 112.77 34.2817 113.431C34.7286 114.091 34.9677 114.871 34.9684 115.669C34.9843 116.185 34.8972 116.699 34.7119 117.181C34.5267 117.663 34.2471 118.103 33.8895 118.476C33.5319 118.848 33.1036 119.146 32.6296 119.351C32.1557 119.555 31.6455 119.664 31.1292 119.669V119.669Z" fill="white"/>
<path d="M31.1302 135.468C30.333 135.5 29.5445 135.293 28.866 134.874C28.1875 134.454 27.65 133.841 27.3226 133.113C26.9951 132.386 26.8928 131.577 27.0286 130.791C27.1644 130.005 27.5321 129.277 28.0846 128.702C28.6372 128.126 29.3491 127.729 30.1291 127.561C30.9091 127.393 31.7215 127.463 32.4618 127.76C33.202 128.058 33.8364 128.57 34.2834 129.23C34.7305 129.891 34.9696 130.671 34.9702 131.468C34.971 132.502 34.5717 133.496 33.8558 134.242C33.1399 134.988 32.1631 135.427 31.1302 135.468Z" fill="white"/>
<path d="M31.1302 151.259C30.333 151.29 29.5445 151.083 28.866 150.664C28.1875 150.244 27.65 149.631 27.3226 148.903C26.9951 148.176 26.8928 147.367 27.0286 146.581C27.1644 145.795 27.5321 145.067 28.0846 144.492C28.6372 143.916 29.3491 143.519 30.1291 143.351C30.9091 143.183 31.7215 143.253 32.4618 143.55C33.202 143.848 33.8364 144.36 34.2834 145.02C34.7305 145.681 34.9696 146.461 34.9702 147.259C34.971 148.292 34.5717 149.286 33.8558 150.032C33.1399 150.778 32.1631 151.217 31.1302 151.259Z" fill="white"/>
<path d="M31.1302 167.049C30.333 167.08 29.5445 166.873 28.866 166.454C28.1875 166.034 27.65 165.421 27.3226 164.693C26.9951 163.966 26.8928 163.157 27.0286 162.371C27.1644 161.585 27.5321 160.857 28.0846 160.282C28.6372 159.706 29.3491 159.309 30.1291 159.141C30.9091 158.973 31.7215 159.043 32.4618 159.34C33.202 159.638 33.8364 160.15 34.2834 160.811C34.7305 161.471 34.9696 162.251 34.9702 163.049C34.971 164.082 34.5717 165.076 33.8558 165.822C33.1399 166.568 32.1631 167.007 31.1302 167.049Z" fill="white"/>
<path d="M31.1302 182.839C30.333 182.871 29.5445 182.663 28.866 182.244C28.1875 181.824 27.65 181.211 27.3226 180.483C26.9951 179.756 26.8928 178.947 27.0286 178.161C27.1644 177.375 27.5321 176.647 28.0846 176.072C28.6372 175.496 29.3491 175.099 30.1291 174.931C30.9091 174.763 31.7215 174.833 32.4618 175.13C33.202 175.428 33.8364 175.94 34.2834 176.601C34.7305 177.261 34.9696 178.041 34.9702 178.839C34.971 179.872 34.5717 180.866 33.8558 181.612C33.1399 182.358 32.1631 182.797 31.1302 182.839Z" fill="white"/>
<path d="M44.3895 103.879C43.5926 103.911 42.8043 103.703 42.1259 103.284C41.4476 102.864 40.9102 102.251 40.5828 101.523C40.2555 100.796 40.1531 99.9872 40.2888 99.201C40.4246 98.4148 40.7923 97.6872 41.3447 97.1117C41.8971 96.5362 42.6089 96.139 43.3887 95.9713C44.1685 95.8035 44.9806 95.8728 45.7206 96.1703C46.4607 96.4678 47.0951 96.9798 47.542 97.6406C47.9889 98.3014 48.228 99.0808 48.2286 99.8786C48.2446 100.395 48.1575 100.909 47.9722 101.391C47.7869 101.873 47.5073 102.313 47.1498 102.686C46.7922 103.058 46.3639 103.356 45.8899 103.561C45.416 103.765 44.9058 103.874 44.3895 103.879V103.879Z" fill="white"/>
<path d="M44.3895 119.669C43.5926 119.701 42.8043 119.493 42.1259 119.074C41.4476 118.654 40.9102 118.041 40.5828 117.314C40.2555 116.586 40.1531 115.777 40.2888 114.991C40.4246 114.205 40.7923 113.477 41.3447 112.902C41.8971 112.326 42.6089 111.929 43.3887 111.761C44.1685 111.594 44.9806 111.663 45.7206 111.96C46.4607 112.258 47.0951 112.77 47.542 113.431C47.9889 114.091 48.228 114.871 48.2286 115.669C48.2446 116.185 48.1575 116.699 47.9722 117.181C47.7869 117.663 47.5073 118.103 47.1498 118.476C46.7922 118.848 46.3639 119.146 45.8899 119.351C45.416 119.555 44.9058 119.664 44.3895 119.669V119.669Z" fill="white"/>
<path d="M44.3905 135.468C43.5933 135.5 42.8049 135.293 42.1264 134.874C41.4479 134.454 40.9103 133.841 40.5829 133.113C40.2555 132.386 40.153 131.577 40.2888 130.791C40.4246 130.005 40.7925 129.277 41.345 128.702C41.8975 128.126 42.6094 127.729 43.3894 127.561C44.1694 127.393 44.9817 127.463 45.7219 127.76C46.4622 128.058 47.0967 128.57 47.5437 129.23C47.9907 129.891 48.2298 130.671 48.2305 131.468C48.2313 132.502 47.832 133.496 47.1161 134.242C46.4002 134.988 45.4234 135.427 44.3905 135.468Z" fill="white"/>
<path d="M44.3905 151.259C43.5933 151.29 42.8049 151.083 42.1264 150.664C41.4479 150.244 40.9103 149.631 40.5829 148.903C40.2555 148.176 40.153 147.367 40.2888 146.581C40.4246 145.795 40.7925 145.067 41.345 144.492C41.8975 143.916 42.6094 143.519 43.3894 143.351C44.1694 143.183 44.9817 143.253 45.7219 143.55C46.4622 143.848 47.0967 144.36 47.5437 145.02C47.9907 145.681 48.2298 146.461 48.2305 147.259C48.2313 148.292 47.832 149.286 47.1161 150.032C46.4002 150.778 45.4234 151.217 44.3905 151.259Z" fill="white"/>
<path d="M44.3905 167.049C43.5933 167.08 42.8049 166.873 42.1264 166.454C41.4479 166.034 40.9103 165.421 40.5829 164.693C40.2555 163.966 40.153 163.157 40.2888 162.371C40.4246 161.585 40.7925 160.857 41.345 160.282C41.8975 159.706 42.6094 159.309 43.3894 159.141C44.1694 158.973 44.9817 159.043 45.7219 159.34C46.4622 159.638 47.0967 160.15 47.5437 160.811C47.9907 161.471 48.2298 162.251 48.2305 163.049C48.2313 164.082 47.832 165.076 47.1161 165.822C46.4002 166.568 45.4234 167.007 44.3905 167.049Z" fill="white"/>
<path d="M44.3905 182.839C43.5933 182.871 42.8049 182.663 42.1264 182.244C41.4479 181.824 40.9103 181.211 40.5829 180.483C40.2555 179.756 40.153 178.947 40.2888 178.161C40.4246 177.375 40.7925 176.647 41.345 176.072C41.8975 175.496 42.6094 175.099 43.3894 174.931C44.1694 174.763 44.9817 174.833 45.7219 175.13C46.4622 175.428 47.0967 175.94 47.5437 176.601C47.9907 177.261 48.2298 178.041 48.2305 178.839C48.2313 179.872 47.832 180.866 47.1161 181.612C46.4002 182.358 45.4234 182.797 44.3905 182.839Z" fill="white"/>
</svg>
