<svg id="Layer_1" data-name="Layer 1" xmlns="http://www.w3.org/2000/svg" viewBox="0 0 514 514"><defs><style>.cls-1{fill:none;stroke:#231f20;stroke-miterlimit:10;}</style></defs><circle class="cls-1" cx="257" cy="257" r="36.05" transform="translate(-100.67 192.42) rotate(-34.77)"/><circle class="cls-1" cx="257" cy="257" r="51.07"/><path class="cls-1" d="M296.11,224.15s8.31-21.7,27.28-27.27,53.43-4,78.07,22.31c-15.08-7.86-35.48-11.69-44.4-4.47s-4.89,12.54-1.28,15.73,13.39-1.49,7.44-7.44c2.55-8.07,31.08-11.11,52.08,10s23.81,23.81,23.81,23.81"/><path class="cls-1" d="M306.34,243.77s10.48-8.1,27.05-.46a159.85,159.85,0,0,1,23.95,13.43"/><path class="cls-1" d="M303.51,235.86s8.19-6.85,18.39-6.8c12.46.07,18.54,5.26,31,12.59s23.95,15.16,23.95,15.16"/><path class="cls-1" d="M348.39,194.44s3.58-19.66.36-29.19"/><path class="cls-1" d="M319.41,165.46s19.66-3.58,29.19-.37"/><path class="cls-1" d="M295.88,289.62s8.31,21.71,27.28,27.28,53.43,4,78.07-22.31c-15.08,7.86-35.48,11.68-44.4,4.46s-4.88-12.53-1.27-15.72,13.38,1.49,7.43,7.44c2.55,8.07,31.08,11.11,52.08-10s24-24,24-24"/><path class="cls-1" d="M306.11,270s10.48,8.1,27.05.45a159.62,159.62,0,0,0,24.29-13.65"/><path class="cls-1" d="M303.28,277.92s8.2,6.85,18.39,6.79c12.47-.07,18.54-5.26,31-12.59s24.17-15.31,24.17-15.31"/><path class="cls-1" d="M348.16,319.34s3.58,19.66.36,29.18"/><path class="cls-1" d="M289.85,296.11s21.7,8.31,27.27,27.27,4,53.44-22.31,78.08c7.87-15.08,11.69-35.48,4.46-44.4s-12.53-4.89-15.71-1.27,1.48,13.38,7.43,7.43c8.07,2.55,11.11,31.08-9.95,52.08s-23.81,23.81-23.81,23.81"/><path class="cls-1" d="M270.23,306.34s8.1,10.48.46,27.05a159.85,159.85,0,0,1-13.43,23.95"/><path class="cls-1" d="M278.14,303.51s6.85,8.19,6.8,18.39c-.07,12.46-5.26,18.54-12.59,31s-15.16,24-15.16,24"/><path class="cls-1" d="M319.56,348.39s19.66,3.58,29.19.36"/><path class="cls-1" d="M224.38,295.88s-21.71,8.31-27.28,27.28-4,53.43,22.31,78.07c-7.86-15.08-11.68-35.47-4.46-44.4s12.53-4.88,15.72-1.27-1.49,13.38-7.43,7.43c-8.08,2.55-11.12,31.08,9.95,52.08s24,24,24,24"/><path class="cls-1" d="M244,306.11s-8.1,10.48-.45,27.05a159.62,159.62,0,0,0,13.65,24.29"/><path class="cls-1" d="M236.08,303.28s-6.85,8.2-6.79,18.39c.07,12.47,5.26,18.54,12.59,31s15.31,24.18,15.31,24.18"/><path class="cls-1" d="M194.66,348.16s-19.66,3.58-29.18.36"/><path class="cls-1" d="M289.85,217.89s21.7-8.31,27.27-27.27,4-53.44-22.31-78.08c7.86,15.08,11.69,35.48,4.47,44.4s-12.54,4.89-15.72,1.28,1.48-13.39,7.43-7.44c8.07-2.55,11.11-31.08-9.95-52.08s-23.81-23.81-23.81-23.81"/><path class="cls-1" d="M270.23,207.66s8.1-10.48.46-27a161,161,0,0,0-13.42-24"/><path class="cls-1" d="M278.14,210.49s6.85-8.19,6.8-18.39c-.07-12.46-5.26-18.54-12.59-31s-15.16-23.95-15.16-23.95"/><path class="cls-1" d="M224.38,218.12s-21.7-8.31-27.28-27.28-4-53.43,22.31-78.07c-7.86,15.08-11.68,35.48-4.46,44.4s12.53,4.88,15.72,1.27-1.49-13.38-7.43-7.43c-8.08-2.55-11.12-31.08,9.95-52.08s24-24,24-24"/><path class="cls-1" d="M244,207.89s-8.1-10.48-.45-27a159.62,159.62,0,0,1,13.65-24.29"/><path class="cls-1" d="M236.08,210.72s-6.85-8.2-6.79-18.39c.07-12.47,5.26-18.54,12.59-31s15.31-24.17,15.31-24.17"/><path class="cls-1" d="M194.66,165.84s-19.66-3.58-29.18-.36"/><path class="cls-1" d="M217.89,224.15s-8.31-21.7-27.27-27.27-53.44-4-78.08,22.31c15.08-7.87,35.48-11.69,44.4-4.46s4.89,12.53,1.28,15.71S144.83,229,150.78,223c-2.55-8.07-31.08-11.11-52.08,10s-23.81,23.81-23.81,23.81"/><path class="cls-1" d="M207.66,243.77s-10.48-8.1-27-.46a159.85,159.85,0,0,0-24,13.43"/><path class="cls-1" d="M210.49,235.86s-8.19-6.85-18.39-6.8c-12.46.07-18.54,5.26-31,12.59s-24,15.16-24,15.16"/><path class="cls-1" d="M165.61,194.44s-3.58-19.66-.36-29.19"/><path class="cls-1" d="M218.12,289.62s-8.31,21.71-27.28,27.28-53.43,4-78.07-22.31c15.08,7.86,35.47,11.68,44.4,4.46s4.88-12.53,1.27-15.72-13.38,1.49-7.43,7.43c-2.55,8.08-31.08,11.12-52.08-9.95s-24-24-24-24"/><path class="cls-1" d="M207.89,270s-10.48,8.1-27,.45a159.62,159.62,0,0,1-24.29-13.65"/><path class="cls-1" d="M210.72,277.92s-8.2,6.85-18.39,6.79c-12.47-.07-18.54-5.26-31-12.59s-24.18-15.31-24.18-15.31"/><path class="cls-1" d="M165.84,319.34s-3.58,19.66-.36,29.18"/></svg>