<svg id="Layer_1" data-name="Layer 1" xmlns="http://www.w3.org/2000/svg" viewBox="0 0 514 514"><defs><style>.cls-1{fill:none;stroke:#231f20;stroke-miterlimit:10;}</style></defs><path class="cls-1" d="M309.62,262.84a41,41,0,1,1-41-41A41,41,0,0,1,309.62,262.84Z"/><circle class="cls-1" cx="268.6" cy="262.84" r="58.12" transform="translate(-46.34 467.9) rotate(-77.45)"/><path class="cls-1" d="M273.63,204.94s-10.77-24.15,0-43.89,39.75-46.24,80.78-44.87c-18.46,5.81-38,19.14-39.32,32.13s6.16,14,11.63,13.68,9.57-12,0-12c-4.45-8.54,16.06-33.94,49.91-33.89s38.32,0,38.32,0"/><path class="cls-1" d="M297.65,212.5s1.91-15,21.4-22.14a183.71,183.71,0,0,1,30.07-8.47"/><path class="cls-1" d="M289,208.41s1.08-12.11,9.33-20.27c10.08-10,19.15-10.68,35-14.78s31.47-7.08,31.47-7.08"/><path class="cls-1" d="M291.79,139s-12.94-18.7-23.19-23.78"/><path class="cls-1" d="M245.15,139s12.94-18.7,23.2-23.78"/><path class="cls-1" d="M326.13,257.81s24.15,10.77,43.9,0S416.27,218.06,414.9,177c-5.81,18.47-19.15,37.95-32.14,39.32s-14-6.15-13.67-11.62,12-9.58,12,0c8.55,4.44,33.95-16.07,33.9-49.92s0-38.67,0-38.67"/><path class="cls-1" d="M318.58,233.79s14.95-1.91,22.13-21.4a181.84,181.84,0,0,0,8.56-30.53"/><path class="cls-1" d="M322.66,242.44s12.11-1.09,20.27-9.34c10-10.08,10.69-19.14,14.79-35s7.13-31.78,7.13-31.78"/><path class="cls-1" d="M392.11,239.65s18.7,12.94,23.78,23.19"/><path class="cls-1" d="M326.5,267.88s24.15-10.77,43.89,0,46.24,39.75,44.87,80.78c-5.81-18.47-19.14-38-32.13-39.32s-14,6.16-13.68,11.62,12,9.58,12,0c8.54-4.44,33.95,16.07,33.89,49.92s0,38.32,0,38.32"/><path class="cls-1" d="M318.94,291.9s15,1.91,22.14,21.4a183.71,183.71,0,0,1,8.47,30.07"/><path class="cls-1" d="M323,283.25s12.11,1.09,20.27,9.34c10,10.08,10.68,19.14,14.78,35s7.08,31.47,7.08,31.47"/><path class="cls-1" d="M392.47,286s18.7-12.94,23.78-23.2"/><path class="cls-1" d="M273.63,320.38s-10.77,24.15,0,43.9,39.75,46.24,80.78,44.87C336,403.34,316.46,390,315.09,377s6.15-14,11.63-13.67,9.57,12,0,12c-4.45,8.55,16.06,33.95,49.91,33.9s38.67,0,38.67,0"/><path class="cls-1" d="M297.65,312.83s1.91,14.95,21.4,22.13a181.84,181.84,0,0,0,30.53,8.56"/><path class="cls-1" d="M289,316.91s1.09,12.11,9.34,20.27c10.08,10,19.14,10.69,35,14.79s31.78,7.13,31.78,7.13"/><path class="cls-1" d="M291.79,386.36s-12.94,18.7-23.19,23.78"/><path class="cls-1" d="M263.56,204.94s10.77-24.15,0-43.89-39.75-46.24-80.78-44.87c18.47,5.81,37.95,19.14,39.32,32.13s-6.15,14-11.62,13.68-9.58-12,0-12c4.44-8.54-16.07-33.94-49.92-33.89s-38.32,0-38.32,0"/><path class="cls-1" d="M239.54,212.5s-1.91-15-21.4-22.14a183.71,183.71,0,0,0-30.07-8.47"/><path class="cls-1" d="M248.19,208.41s-1.09-12.11-9.34-20.27c-10.08-10-19.14-10.68-35-14.78s-31.47-7.08-31.47-7.08"/><path class="cls-1" d="M211.06,257.81s-24.15,10.77-43.9,0S120.92,218.06,122.29,177c5.81,18.47,19.15,37.95,32.14,39.32s14-6.15,13.67-11.62-12-9.58-12,0c-8.55,4.44-33.95-16.07-33.9-49.92s0-38.67,0-38.67"/><path class="cls-1" d="M218.61,233.79s-15-1.91-22.13-21.4a181.84,181.84,0,0,1-8.56-30.53"/><path class="cls-1" d="M214.53,242.44s-12.11-1.09-20.27-9.34c-10-10.08-10.69-19.14-14.79-35s-7.13-31.78-7.13-31.78"/><path class="cls-1" d="M145.08,239.65s-18.7,12.94-23.77,23.19"/><path class="cls-1" d="M210.69,267.88s-24.15-10.77-43.89,0-46.24,39.75-44.87,80.78c5.81-18.47,19.14-38,32.14-39.32s14,6.16,13.67,11.62-12,9.58-12,0c-8.54-4.44-33.94,16.07-33.89,49.92s0,38.32,0,38.32"/><path class="cls-1" d="M218.25,291.9s-15,1.91-22.13,21.4a184.1,184.1,0,0,0-8.48,30.07"/><path class="cls-1" d="M214.16,283.25s-12.11,1.09-20.27,9.34c-10,10.08-10.68,19.14-14.78,35S172,359.1,172,359.1"/><path class="cls-1" d="M144.72,286s-18.7-12.94-23.78-23.2"/><path class="cls-1" d="M263.56,320.38s10.77,24.15,0,43.9-39.75,46.24-80.78,44.87C201.25,403.34,220.73,390,222.1,377s-6.15-14-11.62-13.67-9.58,12,0,12c4.44,8.55-16.07,33.95-49.92,33.9s-38.67,0-38.67,0"/><path class="cls-1" d="M239.54,312.83s-1.91,14.95-21.4,22.13a182.09,182.09,0,0,1-30.52,8.56"/><path class="cls-1" d="M248.19,316.91s-1.09,12.11-9.34,20.27c-10.08,10-19.14,10.69-35,14.79S172,359.1,172,359.1"/><path class="cls-1" d="M245.4,386.36s12.94,18.7,23.2,23.78"/></svg>