<svg width="330" height="240" viewBox="0 0 330 240" fill="none" xmlns="http://www.w3.org/2000/svg">
<g clip-path="url(#clip0_52_295)">
<rect width="330" height="240" rx="8" fill="url(#paint0_linear_52_295)"/>
<g filter="url(#filter0_d_52_295)">
<path d="M276.766 157.05C272.616 159.022 270.736 164.705 272.897 168.762C273.751 170.383 275.145 171.771 275.328 173.576C275.609 176.342 272.995 178.503 272.184 181.139C271.773 182.719 271.989 184.397 272.786 185.822C273.584 187.247 274.901 188.308 276.463 188.784C277.884 189.156 279.586 189.092 280.536 190.21C281.752 191.636 280.871 193.992 281.914 195.564C282.849 196.974 285.037 197.044 286.447 196.104C287.857 195.164 288.635 193.538 289.191 191.939C289.748 190.34 290.164 188.659 291.125 187.266C292.206 185.737 293.799 184.689 295.085 183.343C298.175 180.102 299.121 175.24 298.424 170.804C297.727 166.369 295.582 162.312 293.156 158.546" fill="#F79B36"/>
<g opacity="0.3">
<path d="M276.766 157.05C272.616 159.022 270.736 164.705 272.897 168.762C273.751 170.383 275.145 171.771 275.328 173.576C275.609 176.342 272.995 178.503 272.184 181.139C271.773 182.719 271.989 184.397 272.786 185.822C273.584 187.247 274.901 188.308 276.463 188.784C277.884 189.156 279.586 189.092 280.536 190.21C281.752 191.636 280.871 193.992 281.914 195.564C282.849 196.974 285.037 197.044 286.447 196.104C287.857 195.164 288.635 193.538 289.191 191.939C289.748 190.34 290.164 188.659 291.125 187.266C292.206 185.737 293.799 184.689 295.085 183.343C298.175 180.102 299.121 175.24 298.424 170.804C297.727 166.369 295.582 162.312 293.156 158.546" fill="white"/>
</g>
<path d="M280.412 159.384C276.895 160.934 275.355 165.813 277.344 169.108C278.559 171.118 280.915 172.933 280.342 175.207C279.953 176.753 278.3 177.698 277.824 179.216C277.192 181.237 279.105 183.381 281.212 183.635C283.319 183.889 285.35 182.765 286.944 181.366C292.459 176.504 293.805 166.996 290.363 160.507" fill="#F79B36"/>
<path d="M298.543 128.46C298.543 128.46 316.608 140.411 314.636 161.086L298.029 153.63L298.543 128.46Z" fill="#F79B36"/>
<path d="M268.526 153.214L272.632 160.016H293.923L298.029 153.603L268.526 153.214Z" fill="#263238"/>
<path d="M282.174 84.5871C278.122 84.8586 274.331 86.6808 271.589 89.675C268.846 92.6692 267.363 96.6051 267.447 100.665L268.527 153.608H298.03L299.013 100.638C299.055 98.4508 298.641 96.2792 297.799 94.2604C296.957 92.2417 295.705 90.42 294.122 88.9109C292.538 87.4018 290.659 86.2382 288.602 85.4939C286.545 84.7495 284.356 84.4408 282.174 84.5871Z" fill="#F79B36"/>
<g opacity="0.8">
<path d="M282.174 84.5871C278.122 84.8586 274.331 86.6808 271.589 89.675C268.846 92.6692 267.363 96.6051 267.447 100.665L268.527 153.608H298.03L299.013 100.638C299.055 98.4508 298.641 96.2792 297.799 94.2604C296.957 92.2417 295.705 90.42 294.122 88.9109C292.538 87.4018 290.659 86.2382 288.602 85.4939C286.545 84.7495 284.356 84.4408 282.174 84.5871Z" fill="white"/>
</g>
<path d="M267.987 128.46C267.987 128.46 249.943 140.411 251.92 161.086L268.527 153.62L267.987 128.46Z" fill="#F79B36"/>
<path d="M267.608 98.9089C273.848 93.4471 293.432 93.5659 298.688 98.0121C297.338 78.3581 282.33 71 282.33 71C266.976 81.632 267.608 98.9089 267.608 98.9089Z" fill="#F79B36"/>
<path d="M282.33 71.0054L282.508 71.1674C282.622 71.2755 282.795 71.4322 283.011 71.6429L283.832 72.4208L284.372 72.9178L284.912 73.5229C285.301 73.9497 285.744 74.4197 286.214 74.9491L287.651 76.7427C287.895 77.0723 288.138 77.4288 288.392 77.7854C288.646 78.142 288.932 78.5093 289.159 78.9145C289.64 79.7141 290.174 80.5352 290.634 81.4807C291.687 83.4901 292.505 85.6148 293.07 87.8123C293.389 89.0341 293.625 90.2758 293.778 91.5292C293.87 92.1775 293.918 92.8365 294.01 93.4902C294.069 94.1693 294.092 94.8509 294.08 95.5324C294.08 101.016 294.01 107.045 293.94 113.36C293.789 126.024 293.61 137.482 293.475 145.775C293.405 149.919 293.346 153.273 293.302 155.596C293.302 156.753 293.259 157.655 293.248 158.298C293.248 158.6 293.248 158.838 293.248 158.989C293.248 159.14 293.248 159.227 293.248 159.227C293.248 159.227 293.248 159.146 293.248 158.989C293.248 158.832 293.248 158.6 293.248 158.298C293.248 157.682 293.248 156.78 293.275 155.596C293.302 153.273 293.346 149.919 293.394 145.775C293.502 137.471 293.648 126.013 293.816 113.36C293.886 107.029 293.967 101 293.967 95.5324C293.982 94.8581 293.958 94.1835 293.897 93.5118C293.81 92.8474 293.762 92.1937 293.675 91.5508C293.524 90.3011 293.29 89.063 292.973 87.8447C292.415 85.6565 291.608 83.5394 290.569 81.5347C290.083 80.5893 289.548 79.7681 289.056 78.9685C288.818 78.5634 288.516 78.2068 288.294 77.8394C288.073 77.4721 287.808 77.1263 287.565 76.7968L286.139 74.9978C285.674 74.4575 285.237 73.9983 284.848 73.5661L284.307 72.9556L283.794 72.4532L282.984 71.6645L282.492 71.1783L282.33 71.0054Z" fill="#263238"/>
<path d="M289.23 112.297C290.157 108.096 287.744 103.991 283.84 103.129C279.936 102.267 276.019 104.974 275.092 109.176C274.164 113.377 276.577 117.481 280.481 118.343C284.385 119.205 288.302 116.498 289.23 112.297Z" fill="#FAFAFA"/>
<path d="M283.837 103.128C283.796 103.134 283.754 103.134 283.713 103.128L283.362 103.079L283.102 103.036H282.783H282.416C282.281 103.036 282.141 103.036 281.995 103.036C281.666 103.056 281.339 103.1 281.017 103.166C280.633 103.247 280.257 103.361 279.893 103.506C279.004 103.861 278.19 104.382 277.495 105.04C276.652 105.835 275.994 106.805 275.566 107.882C275.447 108.176 275.347 108.477 275.269 108.784C275.231 108.941 275.182 109.097 275.144 109.254L275.063 109.74L275.02 109.989V110.237C275.02 110.405 274.993 110.578 274.982 110.745C274.972 110.913 274.982 111.086 274.982 111.258V111.518L275.009 111.782C275.152 113.25 275.715 114.646 276.63 115.802C277.594 117.058 278.971 117.934 280.517 118.276C282.063 118.618 283.681 118.404 285.085 117.671C286.396 116.999 287.487 115.966 288.229 114.694L288.364 114.473L288.478 114.235L288.705 113.776L288.883 113.301L288.969 113.063L289.039 112.82L289.169 112.344C289.207 112.188 289.223 112.026 289.256 111.869C289.31 111.556 289.346 111.24 289.364 110.923C289.436 109.767 289.251 108.608 288.823 107.531C288.329 106.27 287.497 105.169 286.419 104.349C286.154 104.151 285.876 103.971 285.587 103.808C285.452 103.744 285.333 103.668 285.215 103.614L284.874 103.474L284.577 103.355L284.329 103.279L283.983 103.176C283.944 103.166 283.905 103.152 283.869 103.133H283.988L284.334 103.22L284.593 103.29L284.89 103.403L285.236 103.538L285.614 103.727C285.91 103.889 286.195 104.069 286.468 104.268C286.784 104.507 287.082 104.768 287.359 105.051C288.031 105.748 288.563 106.568 288.926 107.466C289.373 108.556 289.57 109.731 289.504 110.907C289.491 111.23 289.457 111.551 289.401 111.869C289.369 112.031 289.353 112.193 289.315 112.355C289.277 112.517 289.229 112.679 289.18 112.841L289.115 113.084L289.029 113.322L288.845 113.808L288.618 114.278L288.505 114.521L288.364 114.748C287.614 116.048 286.503 117.103 285.166 117.785C283.732 118.537 282.077 118.759 280.496 118.41C278.914 118.061 277.506 117.164 276.522 115.877C275.598 114.694 275.035 113.268 274.901 111.772V111.507V111.242C274.901 111.069 274.901 110.891 274.901 110.702C274.901 110.513 274.901 110.356 274.945 110.162V109.908L274.982 109.654C275.015 109.492 275.042 109.324 275.069 109.162C275.096 109 275.155 108.844 275.199 108.681C275.278 108.37 275.381 108.065 275.506 107.768C275.942 106.674 276.615 105.69 277.478 104.889C278.187 104.228 279.016 103.709 279.92 103.36C280.29 103.216 280.671 103.104 281.06 103.025C281.387 102.963 281.717 102.923 282.049 102.906C282.2 102.906 282.341 102.906 282.476 102.906H282.848H283.167L283.426 102.955L283.778 103.02L283.837 103.128Z" fill="#263238"/>
<path d="M274.695 109.568C274.695 109.66 273.031 109.617 271.027 109.979C269.023 110.341 267.478 110.946 267.445 110.859C267.743 110.643 268.075 110.48 268.429 110.378C270.083 109.758 271.837 109.446 273.604 109.46C273.971 109.437 274.34 109.473 274.695 109.568Z" fill="#263238"/>
<path d="M298.548 109.557C298.102 109.56 297.657 109.518 297.219 109.433C296.409 109.335 295.285 109.206 294.042 109.114C292.8 109.022 291.671 109 290.85 108.984C290.406 109.008 289.96 108.988 289.521 108.925C289.952 108.813 290.398 108.762 290.844 108.774C291.925 108.725 293.007 108.739 294.086 108.817C295.155 108.891 296.219 109.026 297.273 109.222C297.71 109.28 298.138 109.393 298.548 109.557Z" fill="#263238"/>
<path d="M298.71 139.854C298.606 139.868 298.5 139.868 298.396 139.854L297.505 139.783L294.226 139.535C291.46 139.34 287.629 139.151 283.421 139.157C279.212 139.162 275.36 139.357 272.589 139.556L269.315 139.816L268.424 139.881C268.32 139.896 268.214 139.896 268.11 139.881C268.21 139.845 268.313 139.824 268.418 139.816L269.304 139.692C270.071 139.589 271.19 139.465 272.546 139.34C275.312 139.081 279.153 138.854 283.394 138.849C287.635 138.843 291.497 139.065 294.236 139.319C295.625 139.443 296.738 139.562 297.51 139.665L298.396 139.783C298.503 139.793 298.609 139.816 298.71 139.854Z" fill="#263238"/>
<path d="M275.48 117.159C275.48 117.202 275.296 117.218 275.172 117.429C275.136 117.483 275.112 117.544 275.102 117.609C275.092 117.673 275.095 117.739 275.113 117.802C275.14 117.868 275.187 117.925 275.246 117.965C275.306 118.006 275.376 118.028 275.448 118.029C275.52 118.039 275.594 118.029 275.66 117.998C275.726 117.967 275.782 117.918 275.82 117.856C275.847 117.796 275.861 117.732 275.861 117.667C275.861 117.601 275.847 117.537 275.82 117.478C275.729 117.251 275.55 117.207 275.561 117.164C275.572 117.121 275.81 117.083 276.009 117.375C276.066 117.462 276.101 117.561 276.112 117.664C276.124 117.767 276.111 117.872 276.074 117.969C276.02 118.09 275.928 118.191 275.812 118.256C275.697 118.321 275.563 118.347 275.431 118.331C275.318 118.325 275.208 118.287 275.115 118.222C275.022 118.156 274.949 118.066 274.905 117.961C274.861 117.856 274.848 117.741 274.866 117.629C274.885 117.516 274.935 117.411 275.01 117.326C275.248 117.04 275.502 117.121 275.48 117.159Z" fill="#263238"/>
<path d="M281.908 120.621C281.908 120.67 281.725 120.686 281.601 120.897C281.566 120.95 281.542 121.011 281.532 121.074C281.522 121.137 281.525 121.202 281.541 121.264C281.567 121.332 281.613 121.39 281.673 121.432C281.733 121.473 281.803 121.496 281.876 121.496C281.949 121.506 282.023 121.494 282.089 121.463C282.155 121.431 282.211 121.381 282.249 121.318C282.274 121.259 282.287 121.196 282.287 121.132C282.287 121.068 282.274 121.004 282.249 120.945C282.152 120.718 281.973 120.675 281.984 120.632C281.995 120.589 282.233 120.551 282.433 120.843C282.489 120.929 282.524 121.027 282.535 121.129C282.547 121.232 282.534 121.335 282.497 121.432C282.443 121.553 282.352 121.654 282.236 121.72C282.12 121.786 281.987 121.814 281.854 121.799C281.736 121.797 281.62 121.761 281.521 121.694C281.423 121.627 281.347 121.533 281.302 121.423C281.257 121.313 281.245 121.192 281.269 121.075C281.292 120.958 281.349 120.851 281.433 120.767C281.676 120.508 281.93 120.567 281.908 120.621Z" fill="#263238"/>
<path d="M289.002 117.666C289.002 117.714 288.823 117.731 288.694 117.941C288.659 117.995 288.635 118.055 288.625 118.119C288.615 118.182 288.618 118.247 288.634 118.309C288.662 118.376 288.71 118.434 288.77 118.475C288.83 118.517 288.901 118.539 288.975 118.541C289.047 118.552 289.12 118.54 289.186 118.509C289.251 118.477 289.306 118.426 289.342 118.363C289.367 118.304 289.38 118.24 289.38 118.176C289.38 118.112 289.367 118.049 289.342 117.99C289.25 117.763 289.066 117.72 289.077 117.671C289.088 117.623 289.326 117.596 289.526 117.887C289.584 117.972 289.621 118.071 289.633 118.173C289.646 118.276 289.633 118.38 289.596 118.476C289.539 118.597 289.447 118.698 289.33 118.763C289.214 118.829 289.08 118.857 288.948 118.844C288.815 118.838 288.688 118.791 288.584 118.708C288.48 118.626 288.405 118.512 288.37 118.384C288.348 118.283 288.351 118.179 288.378 118.079C288.406 117.979 288.456 117.888 288.526 117.812C288.769 117.552 289.023 117.633 289.002 117.666Z" fill="#263238"/>
<path d="M291.308 112.366C291.308 112.41 291.125 112.426 290.995 112.637C290.961 112.692 290.938 112.753 290.929 112.817C290.92 112.881 290.924 112.947 290.941 113.009C290.967 113.077 291.013 113.136 291.073 113.177C291.132 113.219 291.203 113.241 291.276 113.242C291.348 113.251 291.421 113.239 291.486 113.207C291.551 113.176 291.606 113.126 291.643 113.063C291.669 113.005 291.682 112.941 291.682 112.877C291.682 112.813 291.669 112.749 291.643 112.691C291.551 112.464 291.373 112.415 291.379 112.372C291.384 112.329 291.627 112.296 291.832 112.588C291.889 112.674 291.925 112.772 291.936 112.875C291.947 112.977 291.934 113.081 291.897 113.177C291.842 113.297 291.75 113.397 291.635 113.462C291.519 113.527 291.386 113.554 291.254 113.539C291.121 113.534 290.993 113.486 290.888 113.404C290.783 113.321 290.707 113.208 290.671 113.08C290.65 112.979 290.653 112.874 290.68 112.774C290.708 112.675 290.758 112.583 290.827 112.507C291.071 112.253 291.325 112.334 291.308 112.366Z" fill="#263238"/>
<path d="M273.135 111.853C273.135 111.896 272.951 111.912 272.827 112.123C272.792 112.178 272.769 112.239 272.759 112.303C272.748 112.367 272.751 112.433 272.767 112.496C272.794 112.563 272.84 112.621 272.9 112.663C272.959 112.704 273.03 112.727 273.102 112.728C273.175 112.736 273.249 112.724 273.314 112.692C273.38 112.661 273.436 112.611 273.475 112.55C273.502 112.491 273.516 112.428 273.516 112.363C273.516 112.299 273.502 112.235 273.475 112.177C273.383 111.95 273.205 111.901 273.216 111.858C273.227 111.815 273.464 111.783 273.664 112.074C273.721 112.16 273.757 112.258 273.768 112.361C273.779 112.463 273.766 112.567 273.729 112.663C273.675 112.784 273.583 112.885 273.467 112.95C273.352 113.015 273.218 113.041 273.086 113.025C272.953 113.02 272.825 112.973 272.72 112.89C272.615 112.808 272.539 112.694 272.503 112.566C272.482 112.464 272.485 112.359 272.514 112.26C272.542 112.16 272.594 112.069 272.665 111.993C272.903 111.739 273.156 111.82 273.135 111.853Z" fill="#263238"/>
<path d="M288.99 104.582C288.99 104.539 289.174 104.522 289.298 104.312C289.334 104.257 289.358 104.196 289.368 104.132C289.378 104.067 289.375 104.002 289.357 103.939C289.329 103.872 289.283 103.815 289.224 103.774C289.164 103.733 289.095 103.709 289.022 103.707C288.95 103.697 288.877 103.709 288.812 103.741C288.747 103.773 288.692 103.823 288.655 103.885C288.627 103.943 288.612 104.007 288.612 104.071C288.612 104.136 288.627 104.2 288.655 104.258C288.747 104.485 288.925 104.533 288.914 104.576C288.904 104.62 288.666 104.652 288.466 104.36C288.409 104.274 288.374 104.176 288.362 104.074C288.351 103.971 288.364 103.868 288.401 103.771C288.455 103.65 288.547 103.55 288.663 103.485C288.779 103.42 288.912 103.393 289.044 103.409C289.163 103.411 289.279 103.447 289.377 103.514C289.475 103.581 289.552 103.676 289.597 103.786C289.642 103.896 289.653 104.017 289.63 104.133C289.606 104.25 289.549 104.357 289.465 104.441C289.222 104.701 288.968 104.614 288.99 104.582Z" fill="#263238"/>
<path d="M281.898 101.437C281.898 101.393 282.082 101.377 282.206 101.167C282.241 101.112 282.264 101.05 282.275 100.986C282.285 100.922 282.282 100.857 282.266 100.794C282.237 100.727 282.19 100.669 282.129 100.628C282.069 100.587 281.998 100.564 281.925 100.562C281.853 100.552 281.78 100.564 281.715 100.596C281.65 100.628 281.595 100.678 281.558 100.74C281.533 100.799 281.52 100.862 281.52 100.926C281.52 100.99 281.533 101.054 281.558 101.113C281.65 101.345 281.834 101.388 281.823 101.431C281.812 101.475 281.574 101.512 281.374 101.215C281.303 101.119 281.261 101.004 281.256 100.885C281.25 100.765 281.28 100.647 281.342 100.545C281.404 100.442 281.496 100.361 281.604 100.311C281.713 100.261 281.834 100.245 281.952 100.264C282.085 100.27 282.212 100.317 282.316 100.4C282.42 100.482 282.495 100.596 282.53 100.724C282.551 100.825 282.548 100.929 282.521 101.029C282.494 101.128 282.443 101.22 282.374 101.296C282.131 101.556 281.877 101.475 281.898 101.437Z" fill="#263238"/>
<path d="M274.885 104.582C274.885 104.539 275.068 104.522 275.193 104.312C275.227 104.257 275.251 104.195 275.261 104.131C275.271 104.067 275.268 104.002 275.252 103.939C275.223 103.872 275.176 103.814 275.116 103.773C275.055 103.732 274.985 103.709 274.912 103.707C274.84 103.697 274.767 103.709 274.701 103.741C274.636 103.773 274.582 103.823 274.544 103.885C274.519 103.944 274.506 104.007 274.506 104.071C274.506 104.135 274.519 104.199 274.544 104.258C274.636 104.484 274.82 104.533 274.809 104.576C274.798 104.62 274.561 104.652 274.361 104.36C274.289 104.264 274.248 104.149 274.242 104.03C274.236 103.91 274.266 103.792 274.328 103.69C274.391 103.587 274.482 103.506 274.591 103.456C274.699 103.406 274.821 103.39 274.939 103.409C275.071 103.415 275.199 103.462 275.303 103.545C275.406 103.627 275.481 103.741 275.517 103.869C275.538 103.97 275.534 104.074 275.507 104.174C275.48 104.273 275.43 104.365 275.36 104.441C275.117 104.701 274.863 104.614 274.885 104.582Z" fill="#263238"/>
<path d="M281.001 130.632L281.633 162.241C281.643 162.68 281.827 163.097 282.144 163.401C282.461 163.705 282.885 163.871 283.324 163.862C283.751 163.852 284.158 163.678 284.46 163.377C284.762 163.075 284.935 162.668 284.945 162.241C285.01 156.547 285.221 137.39 285.253 130.599C285.254 130.293 285.189 129.99 285.062 129.711C284.935 129.432 284.749 129.184 284.517 128.984C284.285 128.784 284.012 128.636 283.718 128.551C283.423 128.466 283.114 128.446 282.811 128.492C282.302 128.569 281.837 128.829 281.504 129.222C281.172 129.616 280.993 130.116 281.001 130.632Z" fill="#F79B36"/>
<g opacity="0.3">
<path d="M281.001 130.631L281.633 162.241C281.643 162.68 281.827 163.097 282.144 163.401C282.461 163.704 282.885 163.87 283.324 163.861C283.751 163.852 284.158 163.678 284.46 163.376C284.762 163.074 284.935 162.668 284.945 162.241C285.01 156.547 285.221 137.39 285.253 130.599C285.254 130.292 285.189 129.989 285.062 129.71C284.935 129.432 284.749 129.184 284.517 128.983C284.285 128.783 284.012 128.636 283.718 128.551C283.423 128.466 283.114 128.446 282.811 128.492C282.302 128.569 281.837 128.828 281.504 129.222C281.172 129.615 280.993 130.116 281.001 130.631Z" fill="black"/>
</g>
<path d="M281.979 72.8101C282.071 72.9181 281.023 73.9338 279.494 75.7166C278.727 76.6026 277.873 77.7046 276.971 78.958C276.012 80.3333 275.128 81.7599 274.324 83.2313C273.54 84.7115 272.838 86.2337 272.222 87.791C271.682 89.2334 271.223 90.557 270.904 91.6861C270.261 93.9443 269.991 95.3814 269.823 95.3597C269.656 95.3381 269.764 93.8687 270.261 91.5294C270.559 90.1624 270.945 88.8162 271.417 87.4992C272.002 85.886 272.699 84.3154 273.502 82.7991C274.328 81.2989 275.252 79.8551 276.269 78.4772C277.108 77.3568 278.019 76.2921 278.997 75.2898C280.699 73.5664 281.909 72.729 281.979 72.8101Z" fill="white"/>
<path d="M267.321 131.604C267.408 131.739 265.911 132.685 263.826 134.641L263.021 135.408C262.74 135.678 262.481 135.986 262.189 136.283C261.6 136.877 261.049 137.579 260.449 138.298C259.197 139.896 258.086 141.598 257.127 143.387C256.192 145.191 255.411 147.07 254.793 149.006C254.539 149.902 254.253 150.756 254.112 151.572C254.026 151.982 253.923 152.371 253.858 152.755C253.794 153.138 253.734 153.5 253.68 153.835C253.259 156.65 253.297 158.427 253.14 158.433C253.075 158.433 253.016 157.995 252.962 157.185C252.962 156.98 252.935 156.753 252.924 156.51C252.913 156.266 252.924 155.996 252.924 155.71C252.928 155.058 252.966 154.407 253.037 153.76C253.075 153.398 253.118 153.02 253.161 152.625C253.205 152.231 253.297 151.826 253.367 151.41C253.502 150.561 253.745 149.681 253.988 148.752C255.135 144.722 257.113 140.977 259.796 137.758C260.378 137.057 260.994 136.387 261.643 135.748C261.946 135.451 262.232 135.148 262.529 134.889L263.394 134.149C263.889 133.724 264.406 133.325 264.944 132.955C265.176 132.788 265.393 132.625 265.598 132.49L266.176 132.145C266.905 131.75 267.283 131.55 267.321 131.604Z" fill="white"/>
<path d="M244.07 234.672C243.343 234.26 242.76 233.635 242.4 232.881C242.039 232.127 241.919 231.281 242.054 230.457C242.189 229.632 242.574 228.869 243.157 228.271C243.74 227.672 244.492 227.266 245.312 227.108C246.792 226.817 248.645 227.238 249.575 226.028C250.423 224.947 249.785 223.521 250.158 221.792C250.531 220.064 252.017 219.248 253.654 219.269C254.474 219.317 255.269 219.572 255.965 220.01C256.66 220.449 257.233 221.056 257.63 221.776C258.506 223.377 258.902 225.196 258.77 227.017C258.332 230.75 256.339 232.662 253.859 234.245C251.379 235.828 246.684 236.19 244.07 234.639" fill="#F79B36"/>
<g opacity="0.8">
<path d="M244.07 234.672C243.343 234.26 242.76 233.635 242.4 232.881C242.039 232.127 241.919 231.281 242.054 230.457C242.189 229.632 242.574 228.869 243.157 228.271C243.74 227.672 244.492 227.266 245.312 227.108C246.792 226.817 248.645 227.238 249.575 226.028C250.423 224.947 249.785 223.521 250.158 221.792C250.531 220.064 252.017 219.248 253.654 219.269C254.474 219.317 255.269 219.572 255.965 220.01C256.66 220.449 257.233 221.056 257.63 221.776C258.506 223.377 258.902 225.196 258.77 227.017C258.332 230.75 256.339 232.662 253.859 234.245C251.379 235.828 246.684 236.19 244.07 234.639" fill="white"/>
</g>
<path d="M304.679 204.748C305.282 203.596 306.221 202.656 307.373 202.054C308.524 201.451 309.832 201.215 311.122 201.376C312.411 201.538 313.62 202.09 314.587 202.958C315.555 203.826 316.233 204.969 316.532 206.234C317.073 208.53 316.532 211.436 318.439 212.825C320.174 214.083 322.367 212.997 325.09 213.473C327.813 213.948 329.174 216.217 329.233 218.778C329.293 221.339 327.726 223.77 325.56 225.131C323.116 226.594 320.303 227.321 317.456 227.227C311.605 226.768 308.499 223.77 305.879 219.999C303.259 216.228 302.416 208.919 304.679 204.748Z" fill="#F79B36"/>
<g opacity="0.8">
<path d="M304.679 204.748C305.282 203.596 306.221 202.656 307.373 202.054C308.524 201.451 309.832 201.215 311.122 201.376C312.411 201.538 313.62 202.09 314.587 202.958C315.555 203.826 316.233 204.969 316.532 206.234C317.073 208.53 316.532 211.436 318.439 212.825C320.174 214.083 322.367 212.997 325.09 213.473C327.813 213.948 329.174 216.217 329.233 218.778C329.293 221.339 327.726 223.77 325.56 225.131C323.116 226.594 320.303 227.321 317.456 227.227C311.605 226.768 308.499 223.77 305.879 219.999C303.259 216.228 302.416 208.919 304.679 204.748Z" fill="white"/>
</g>
<path d="M261.022 197.087C260.371 197.422 259.825 197.93 259.443 198.555C259.062 199.18 258.861 199.899 258.861 200.631C258.888 201.445 259.177 202.228 259.685 202.864C260.193 203.5 260.892 203.955 261.679 204.162C262.467 204.369 263.299 204.317 264.054 204.012C264.809 203.708 265.446 203.169 265.87 202.474C266.293 201.779 266.482 200.966 266.406 200.155C266.331 199.345 265.996 198.58 265.452 197.975C264.907 197.37 264.182 196.957 263.384 196.797C262.586 196.637 261.758 196.739 261.022 197.087Z" fill="#F79B36"/>
<g opacity="0.8">
<path d="M261.022 197.087C260.371 197.422 259.825 197.93 259.443 198.555C259.062 199.18 258.861 199.899 258.861 200.631C258.888 201.445 259.177 202.228 259.685 202.864C260.193 203.5 260.892 203.955 261.679 204.162C262.467 204.369 263.299 204.317 264.054 204.012C264.809 203.708 265.446 203.169 265.87 202.474C266.293 201.779 266.482 200.966 266.406 200.155C266.331 199.345 265.996 198.58 265.452 197.975C264.907 197.37 264.182 196.957 263.384 196.797C262.586 196.637 261.758 196.739 261.022 197.087Z" fill="white"/>
</g>
</g>
</g>
<defs>
<filter id="filter0_d_52_295" x="242" y="71" width="91.1354" height="178.9" filterUnits="userSpaceOnUse" color-interpolation-filters="sRGB">
<feFlood flood-opacity="0" result="BackgroundImageFix"/>
<feColorMatrix in="SourceAlpha" type="matrix" values="0 0 0 0 0 0 0 0 0 0 0 0 0 0 0 0 0 0 127 0" result="hardAlpha"/>
<feOffset dx="2" dy="2"/>
<feGaussianBlur stdDeviation="0.95"/>
<feComposite in2="hardAlpha" operator="out"/>
<feColorMatrix type="matrix" values="0 0 0 0 0 0 0 0 0 0 0 0 0 0 0 0 0 0 0.25 0"/>
<feBlend mode="normal" in2="BackgroundImageFix" result="effect1_dropShadow_52_295"/>
<feBlend mode="normal" in="SourceGraphic" in2="effect1_dropShadow_52_295" result="shape"/>
</filter>
<linearGradient id="paint0_linear_52_295" x1="330" y1="120" x2="6.14086" y2="75.4043" gradientUnits="userSpaceOnUse">
<stop stop-color="#EEA849"/>
<stop offset="1" stop-color="#F46B45"/>
</linearGradient>
<clipPath id="clip0_52_295">
<rect width="330" height="240" rx="8" fill="white"/>
</clipPath>
</defs>
</svg>
