<svg xmlns="http://www.w3.org/2000/svg" xmlns:xlink="http://www.w3.org/1999/xlink" viewBox="0 0 330.26 285.15"><defs><style>.cls-1{fill:none;}.cls-2{isolation:isolate;}.cls-3{clip-path:url(#clip-path);}.cls-4{mix-blend-mode:multiply;fill:url(#radial-gradient);}.cls-5{fill:url(#linear-gradient);}.cls-6{fill:url(#linear-gradient-2);}.cls-7{fill:#fff;}.cls-8{fill:#eae5de;}.cls-9{fill:url(#linear-gradient-3);}.cls-10{fill:#fab482;}.cls-11{fill:#ffce63;}.cls-12{fill:#221d57;}.cls-13{fill:url(#linear-gradient-4);}.cls-14{fill:#d8e6ef;}.cls-15{font-size:12px;font-family:KantumruyPro-Bold;font-weight:500;}</style><clipPath id="clip-path"><rect class="cls-1" x="-255.05" width="600" height="300"/></clipPath><radialGradient id="radial-gradient" cx="135.77" cy="237.4" r="19.98" gradientTransform="matrix(0.9, -3.18, 1.64, 0.47, -329.36, 416.49)" gradientUnits="userSpaceOnUse"><stop offset="0" stop-color="gray"/><stop offset="0.01" stop-color="#828282"/><stop offset="0.24" stop-color="#afafaf"/><stop offset="0.46" stop-color="#d2d2d2"/><stop offset="0.66" stop-color="#ebebeb"/><stop offset="0.85" stop-color="#fafafa"/><stop offset="1" stop-color="#fff"/></radialGradient><linearGradient id="linear-gradient" x1="-6022.47" y1="-2749.18" x2="-6003.49" y2="-2749.08" gradientTransform="matrix(0.95, 0.31, 0.31, -0.95, 6759.69, -647.05)" gradientUnits="userSpaceOnUse"><stop offset="0" stop-color="#f37221"/><stop offset="0.5" stop-color="#f8a240"/><stop offset="1" stop-color="#fdd661"/></linearGradient><linearGradient id="linear-gradient-2" x1="10299.14" y1="-2676.09" x2="10280.23" y2="-2676.06" gradientTransform="translate(10777.6 620.98) rotate(-162.66)" gradientUnits="userSpaceOnUse"><stop offset="0" stop-color="#fdd661"/><stop offset="0.5" stop-color="#f8a240"/><stop offset="1" stop-color="#f37221"/></linearGradient><linearGradient id="linear-gradient-3" x1="153.26" y1="362.5" x2="178.39" y2="362.5" gradientTransform="matrix(0.95, 0.3, 0.3, -0.95, -62.26, 326.99)" xlink:href="#linear-gradient-2"/><linearGradient id="linear-gradient-4" x1="154.98" y1="322.78" x2="174.08" y2="322.78" gradientTransform="matrix(0.95, 0.3, 0.3, -0.95, -62.26, 326.99)" gradientUnits="userSpaceOnUse"><stop offset="0" stop-color="#3753a4"/><stop offset="1" stop-color="#2a3378"/></linearGradient></defs><g class="cls-2"><g id="Layer_1" data-name="Layer 1"><g class="cls-3"><path d="M215.34,131.22c3.35-26.64-13.51-41-30.5-45.63-9.13-2.47-23.06-2.45-34.86,5-8.84,5.61-14.55,14.42-16.51,25.48-2.42,13.69,1.23,25.11,4.15,34.29,2,6.36,3.79,11.86,3,16.43-1.13,6.79-1.15,13.59,3.56,19.27-4,1.28-5.1,3.42-5.35,4.88a6.4,6.4,0,0,0,1.62,5.06,7,7,0,0,0-2.76,4.08,8.91,8.91,0,0,0,1.07,6.33l.69,1.15a5.64,5.64,0,0,0,.39.55c0,.06,0,.11,0,.16l.24,19a1.4,1.4,0,0,0,2.6.7l1.84-3.09,0,13.2a1.4,1.4,0,0,0,1,1.35,1.42,1.42,0,0,0,.89-.05,1.34,1.34,0,0,0,.68-.59l6.77-11.32v3.59a1.4,1.4,0,0,0,2.6.72l10.2-17.08a2.59,2.59,0,0,0,.54-1c.72-2.81-3.35-5.7-10.86-7.7-6-1.59-11.08-1.59-14.82-.64a6,6,0,0,1-1-4.61,4.3,4.3,0,0,1,2-2.67c2.75,2.33,6.94,4.57,12.34,6.51,4.38,1.58,12.11,3.84,14.83,1.35a2.62,2.62,0,0,0,.76-2.68c-.86-3.2-7.23-6.57-16.23-8.61-4.81-1.08-8.44-.9-11.07,0-1.1-1.22-1.57-2.33-1.43-3.2.19-1.08,1.63-2.3,4.84-3,3.43,3,8.47,5.55,15.8,7.56,8.79,2.4,11,1.25,11.9.18a2.59,2.59,0,0,0,.26-2.84c-1.61-3.44-10.92-8.41-21.84-8.36a37.44,37.44,0,0,0-5.26.36c-4.67-4.77-5.12-10.78-3.9-18.08.87-5.25-1-11.06-3.13-17.78-3-9.33-6.36-19.91-4.07-32.9,1.82-10.25,7.08-18.39,15.22-23.55,11-7,24-7,32.55-4.7,7.6,2,32.32,11.28,28.4,42.49a49.51,49.51,0,0,1-2,9c-3,7.86-7.81,12.52-12.82,17.41-3.68,3.58-7.47,7.28-10.58,12.31a11.58,11.58,0,0,0-.89,1.34c-2.47,4.26-7.57,13-14.33,11.12l-.32-.09c-5.64-1.87-8.44-7.62-8-14.49l-3-.84c-.53,6.41,1.74,15.17,10,17.92.16.06.33.1.49.15,8.94,2.54,14.76-7.51,17.59-12.38a4.55,4.55,0,0,1,.53-.78c3-5,6.73-8.65,10.38-12.2,5.12-5,10.36-10,13.6-18.66A50.15,50.15,0,0,0,215.34,131.22ZM156.72,226v-3.6a1.4,1.4,0,0,0-2.6-.72L147.34,233V219.85a1.41,1.41,0,0,0-2.61-.72l-1.89,3.18-.15-11.64a28.56,28.56,0,0,0,8.93,4.23,41,41,0,0,0,10.91,1.4ZM155,208.63c6.2,1.64,8.31,3.53,8.72,4.17-.74.41-4,1.07-12.06-.9a19.87,19.87,0,0,1-8.58-4.22A29.15,29.15,0,0,1,155,208.63Zm-2.07-11.32c9.79,2.2,13.59,5.35,14,6.41-.71.36-4,.79-11.78-2a42.36,42.36,0,0,1-10-4.92A21.42,21.42,0,0,1,152.93,197.31Zm-.89-9.58c10.14,0,18.08,4.58,19.13,6.51-.67.18-2.83.43-8.71-1.18a42.41,42.41,0,0,1-12.54-5.27C150.59,187.75,151.29,187.73,152,187.73Z"/><path d="M66.4,276.19a1.34,1.34,0,0,1-.48-.08,1.5,1.5,0,0,1-1-1.9,14,14,0,0,1,12.27-9.5,16.77,16.77,0,0,1,16-11.56l.77,0a12.39,12.39,0,0,1,15.14-4.82,15.88,15.88,0,0,1,12.16-5.7,15.71,15.71,0,0,1,5.51,1,11.87,11.87,0,0,1,10.51-6.24,1.51,1.51,0,0,1,0,3,8.91,8.91,0,0,0-8.36,5.73,1.53,1.53,0,0,1-.85.86,1.5,1.5,0,0,1-1.21,0,12.73,12.73,0,0,0-5.6-1.29,12.91,12.91,0,0,0-10.48,5.42,1.51,1.51,0,0,1-1.94.46,9.38,9.38,0,0,0-12.73,3.9,1.47,1.47,0,0,1-1.48.79,14.21,14.21,0,0,0-1.44-.08,13.79,13.79,0,0,0-13.36,10.4,1.51,1.51,0,0,1-1.46,1.14h-.18a10.91,10.91,0,0,0-10.36,7.47A1.51,1.51,0,0,1,66.4,276.19Z"/><path d="M224.33,276.19a1.51,1.51,0,0,1-1.43-1c-1.49-4.44-5.63-9.16-10.38-9.16h-.17a1.51,1.51,0,0,1-1.46-1.14,13.76,13.76,0,0,0-13.35-10.39,14,14,0,0,0-1.44.07,1.48,1.48,0,0,1-1.49-.79,9.37,9.37,0,0,0-8.3-5,9.51,9.51,0,0,0-4.43,1.11,1.5,1.5,0,0,1-1.94-.45,12.82,12.82,0,0,0-16.22-4.07,1.51,1.51,0,0,1-2-.57,8.91,8.91,0,0,0-7.68-4.35,1.51,1.51,0,0,1,0-3,11.88,11.88,0,0,1,9.51,4.7,15.55,15.55,0,0,1,5.88-1.15,15.88,15.88,0,0,1,12.16,5.7,12.56,12.56,0,0,1,4.69-.92,12.39,12.39,0,0,1,10.46,5.74h.77a16.77,16.77,0,0,1,16,11.56c5.78.55,10.5,5.89,12.26,11.18a1.49,1.49,0,0,1-.95,1.9A1.29,1.29,0,0,1,224.33,276.19Z"/><path d="M126.28,259.45a1.52,1.52,0,0,1-1.45-1.92,8.41,8.41,0,0,1,13.67-4,1.5,1.5,0,1,1-2,2.25,5.39,5.39,0,0,0-8.78,2.59A1.52,1.52,0,0,1,126.28,259.45Z"/><path d="M180.7,264.57a1.52,1.52,0,0,1-1.51-1.48,4.8,4.8,0,0,0-6.61-4.37,1.5,1.5,0,0,1-1.21,0,1.53,1.53,0,0,1-.8-.91,4.8,4.8,0,0,0-7.58-2.32,1.5,1.5,0,1,1-1.88-2.35,7.82,7.82,0,0,1,11.76,2.4A7.81,7.81,0,0,1,182.2,263a1.51,1.51,0,0,1-1.48,1.53Z"/><path class="cls-4" d="M203.82,21.41c18.89,5.37,21,56.2,10.57,92.79s-34.16,61.89-53,56.52-25.76-39.39-15.35-76S184.93,16,203.82,21.41Z"/><path d="M182.3,150.42a24.3,24.3,0,0,0-.09-10.28,14.18,14.18,0,0,0-1.86-4.56,1.47,1.47,0,0,0-.8-.56l-14.91-4.24a1.59,1.59,0,0,0-1,.07,14.48,14.48,0,0,0-3.92,2.88,24.39,24.39,0,0,0-5.49,8.7,38.94,38.94,0,0,0-2.34,11.25,1.48,1.48,0,0,0,.89,1.48,1.51,1.51,0,0,0,1.74-.38,24.5,24.5,0,0,1,2.46-2.43,25,25,0,0,0,.62,7.35,25.43,25.43,0,0,0,3.1,7.48,2.45,2.45,0,0,0,1.4,1.08,2.19,2.19,0,0,0,1.59-.15,25.37,25.37,0,0,0,5.64-3.8,25,25,0,0,0,5.43-6.91,26.12,26.12,0,0,1,.82,3.27l0,.17a1.55,1.55,0,0,0,1.27,1.17,1.51,1.51,0,0,0,1.53-.8A38.86,38.86,0,0,0,182.3,150.42Zm-4.89,6.79a9.62,9.62,0,0,0-1.79-3.76,1.32,1.32,0,0,0-1.22-.38,1.28,1.28,0,0,0-1,.84,21.49,21.49,0,0,1-5.88,8.44,22.53,22.53,0,0,1-4.77,3.27,22.94,22.94,0,0,1-2.67-6.52,20.88,20.88,0,0,1-.22-9,1.33,1.33,0,0,0-.37-1.23,1.28,1.28,0,0,0-1.25-.32,9.94,9.94,0,0,0-3.49,2.24,34.15,34.15,0,0,1,1.85-7.39,21.75,21.75,0,0,1,4.89-7.77,13,13,0,0,1,2.81-2.18l.28.08-2.1,7.4a1.31,1.31,0,0,0,2.52.72l2.1-7.4,3,.85-2.74,9.65a1.31,1.31,0,0,0,2.52.72l2.74-9.66,3,.85-2.11,7.4a1.32,1.32,0,0,0,.91,1.62,1.29,1.29,0,0,0,1.61-.9l2.11-7.4.27.07a13.47,13.47,0,0,1,1.24,3.33,21.76,21.76,0,0,1,.07,9.18A33.26,33.26,0,0,1,177.41,157.21Z"/><path class="cls-5" d="M206.39,97.66l3.14,19.61a12.2,12.2,0,0,1-1.26,7.32l-11.21,21.9c-.36.72-1.1.79-1.33.14L188.16,126Z"/><path class="cls-6" d="M163.66,84.34,149.87,98.58a12.27,12.27,0,0,0-3.16,6.72l-3.36,24.38c-.11.79.45,1.27,1,.87l18-12.52Z"/><path class="cls-7" d="M218,53.85c-2.62-15-7.53-27.09-12.35-28.59S189,31.55,179.25,41.75s-13.09,20.19-15.78,31.93L155,124.87,190.7,136l22.13-46.93C217.3,77.91,220.63,68.89,218,53.85Z"/><path class="cls-8" d="M214.46,39.25l-7.39-2.31c2.19,7.8,4.34,23.44,1.3,35.77s-21.48,55.6-28.94,53.27l-18-5.61c-2.88-.89-2.17-21.61-2.17-21.61L155,124.9h0l-.15.89a4.22,4.22,0,0,0,2.9,4.72l27.53,8.6a4.23,4.23,0,0,0,5.07-2.23l.39-.82h0l22.14-46.93c4.46-11.18,7.8-20.21,5.19-35.24A104.9,104.9,0,0,0,214.46,39.25Z"/><ellipse class="cls-8" cx="193.93" cy="72.37" rx="16.78" ry="17.82" transform="translate(67.05 235.92) rotate(-72.66)"/><path class="cls-8" d="M186.11,111.92s-1.59,9.17-.46,12.31-11.3,1.57-11.3,1.57Z"/><path class="cls-9" d="M214.46,39.25l-24-7.49c6.33-4.71,12.17-7.45,15.21-6.5S211.92,31.56,214.46,39.25Z"/><path class="cls-10" d="M154.83,125.76a4.21,4.21,0,0,0,2.9,4.72l27.53,8.6a4.23,4.23,0,0,0,5.07-2.23l.39-.82L155,124.87Z"/><path class="cls-11" d="M189.14,102.23c.32-2.19-2.54-7.43-4.88-8.16S176.59,96,175.6,98s-5.3,33.42-3.21,34.08S188.81,104.43,189.14,102.23Z"/><circle class="cls-11" cx="191.81" cy="69.91" r="16.78"/><circle class="cls-10" cx="191.81" cy="69.91" r="13.57"/><path class="cls-10" d="M207.82,74.91a16.79,16.79,0,0,1-32.23-.65,16.79,16.79,0,0,0,29-15.2A16.77,16.77,0,0,1,207.82,74.91Z"/><circle class="cls-12" cx="191.81" cy="69.91" r="12.24"/><circle class="cls-13" cx="190.99" cy="67.91" r="9.55"/><ellipse class="cls-14" cx="188.49" cy="63.23" rx="4.9" ry="3.68" transform="translate(-7.81 94.73) rotate(-27.66)"/><path class="cls-10" d="M172.39,132.09c-.46-.15-.61-1.74-.53-4.17a1.42,1.42,0,0,0,2.53.09c1.45-1.7,9.41-23.3,9.68-26.71s-4.84-6.17-4.84-6.17h0l2.27-.88a5.16,5.16,0,0,1,2.78-.17c2.33.73,5.2,6,4.87,8.16S174.48,132.74,172.39,132.09Z"/><path d="M130.06,41.8a.91.91,0,0,0,.5-.45,13,13,0,0,1,5.33-5.47.92.92,0,0,0-.89-1.62,14.81,14.81,0,0,0-6.08,6.24.92.92,0,0,0,.4,1.25A1,1,0,0,0,130.06,41.8Z"/><path d="M160.44,33a2.4,2.4,0,0,0-.11-.23c-.88-1.57-4.57-.75-8.74.86-.24.08-.49.18-.73.28A15.72,15.72,0,0,0,124.5,48.79l-.69.53C118.56,53.44,118.42,55,119,56c.78,1.37,3.71.9,7.24-.31l1.5-.56a15.72,15.72,0,0,0,27-15.06l.82-.63c.89-.7,1.63-1.33,2.25-1.88C160.5,35.05,160.76,33.82,160.44,33Zm-8.21,17.7,0,.07a13.67,13.67,0,0,1-17.46,7l-.13-.05-.4-.17-.42-.2-.11-.06a13.41,13.41,0,0,1-3.92-3c5.41-2.29,11-5.39,12.1-6a125.17,125.17,0,0,0,11-6.91,13.56,13.56,0,0,1-.48,8.9C152.34,50.44,152.29,50.57,152.23,50.7ZM138.4,42.14a119.77,119.77,0,0,1,11.72-5.83,13.65,13.65,0,0,1,2.06,3.21,120.8,120.8,0,0,1-11.27,7.1,117,117,0,0,1-12.37,6.11,13.74,13.74,0,0,1-1.35-2.58c-.1-.25-.19-.51-.27-.76A121.4,121.4,0,0,1,138.4,42.14Zm-12,5.24a13.58,13.58,0,0,1,8.41-14.85,13.68,13.68,0,0,1,13.79,2.3c-5.1,2.24-10.14,5.05-11.17,5.63-3.49,1.95-6.76,4-9.57,5.89Zm-.89,6.52c-2.41.85-4.06,1.21-4.77,1.09.31-.76,1.81-2.26,4.35-4.24a15.39,15.39,0,0,0,1.42,2.77C126.2,53.66,125.86,53.78,125.54,53.9Zm30.52-17.42c-.6.53-1.32,1.11-2.13,1.74a16.38,16.38,0,0,0-1.71-2.77l1.42-.52c2.48-.89,4.18-1.27,4.9-1.16A10.1,10.1,0,0,1,156.06,36.48Z"/><path d="M183.15,25.12a4.17,4.17,0,0,0,1.37-.27,4.17,4.17,0,0,0-1.37-.27,4.84,4.84,0,0,0-.31-1.61,4.82,4.82,0,0,0-.3,1.61,4.23,4.23,0,0,0-1.38.27,4.23,4.23,0,0,0,1.38.27,4.82,4.82,0,0,0,.3,1.61A4.6,4.6,0,0,0,183.15,25.12Z"/><path d="M241.13,40.13a2.87,2.87,0,0,0,1-.21,2.67,2.67,0,0,0-1-.22,4.54,4.54,0,0,0-.22-1.3,3.94,3.94,0,0,0-.22,1.3,2.72,2.72,0,0,0-1,.22,2.93,2.93,0,0,0,1,.21,3.94,3.94,0,0,0,.22,1.3A4.54,4.54,0,0,0,241.13,40.13Z"/><path d="M275.42,70.29a3,3,0,0,0,1-.23,2.75,2.75,0,0,0-1-.23,4.63,4.63,0,0,0-.23-1.37,4.33,4.33,0,0,0-.23,1.37,2.65,2.65,0,0,0-1,.23,3.06,3.06,0,0,0,1,.23,4.15,4.15,0,0,0,.23,1.37A4.74,4.74,0,0,0,275.42,70.29Z"/><path d="M102.44,34.33a3,3,0,0,0,1-.23,2.79,2.79,0,0,0-1-.23,4.34,4.34,0,0,0-.24-1.37,4.63,4.63,0,0,0-.23,1.37,2.79,2.79,0,0,0-1,.23,3,3,0,0,0,1,.23,4.68,4.68,0,0,0,.23,1.37A4.39,4.39,0,0,0,102.44,34.33Z"/><path d="M232.89,60.84a5,5,0,0,0,1.74-.39,4.75,4.75,0,0,0-1.74-.38,7.59,7.59,0,0,0-.39-2.29,7.59,7.59,0,0,0-.39,2.29,4.75,4.75,0,0,0-1.74.38,5,5,0,0,0,1.74.39,7.7,7.7,0,0,0,.39,2.29A7.7,7.7,0,0,0,232.89,60.84Z"/><path d="M112.56,43.63a.47.47,0,1,1-.46-.47A.47.47,0,0,1,112.56,43.63Z"/><path d="M254.62,45.85a.44.44,0,0,1-.44.44.45.45,0,1,1,.44-.44Z"/><path d="M50.72,36.57a2.72,2.72,0,0,0,1-.22,2.72,2.72,0,0,0-1-.22,4.48,4.48,0,0,0-.22-1.29,4.48,4.48,0,0,0-.22,1.29,2.72,2.72,0,0,0-1,.22,2.72,2.72,0,0,0,1,.22,4.48,4.48,0,0,0,.22,1.29A3.89,3.89,0,0,0,50.72,36.57Z"/><path d="M83.25,49.84A4.81,4.81,0,0,0,85,49.45a4.8,4.8,0,0,0-1.75-.38,7.34,7.34,0,0,0-.39-2.29,7.65,7.65,0,0,0-.39,2.29,4.75,4.75,0,0,0-1.74.38,4.57,4.57,0,0,0,1.74.39,7.65,7.65,0,0,0,.39,2.29A7.34,7.34,0,0,0,83.25,49.84Z"/><path d="M64.22,42.28a.45.45,0,1,1-.45-.44A.45.45,0,0,1,64.22,42.28Z"/><path d="M318.22,40.4a3.36,3.36,0,0,0,1.22-.27,3.41,3.41,0,0,0-1.23-.27,5.28,5.28,0,0,0-.27-1.61,5.28,5.28,0,0,0-.27,1.61,3.41,3.41,0,0,0-1.23.27,3.41,3.41,0,0,0,1.23.27,5.39,5.39,0,0,0,.27,1.62A5.41,5.41,0,0,0,318.22,40.4Z"/><path d="M294.34,46.74a1.08,1.08,0,1,1-1.07-1.08A1.08,1.08,0,0,1,294.34,46.74Z"/><path d="M98.27,71.46A.47.47,0,1,1,97.8,71,.47.47,0,0,1,98.27,71.46Z"/><path d="M271.84,28.81a.47.47,0,1,1-.46-.47A.47.47,0,0,1,271.84,28.81Z"/><path d="M128.61,161.93a.29.29,0,0,1,.21.09.33.33,0,0,1,0,.47c-.39.42-.8.83-1.23,1.25a.35.35,0,0,1-.48,0,.34.34,0,0,1,0-.48c.43-.4.83-.81,1.21-1.22A.33.33,0,0,1,128.61,161.93Zm-2.5,2.39a.28.28,0,0,1,.23.12.33.33,0,0,1,0,.47c-.44.37-.89.74-1.37,1.1a.34.34,0,0,1-.47-.07.34.34,0,0,1,.06-.47c.47-.35.91-.71,1.34-1.07A.32.32,0,0,1,126.11,164.32Zm-2.76,2.09a.35.35,0,0,1,.26.15.35.35,0,0,1-.09.47c-.47.32-1,.63-1.47.94a.33.33,0,0,1-.35-.57q.75-.45,1.44-.93A.42.42,0,0,1,123.35,166.41Zm-3,1.8a.34.34,0,0,1,.28.17.35.35,0,0,1-.14.46c-.5.27-1,.53-1.56.79a.34.34,0,0,1-.29-.61c.53-.25,1-.51,1.53-.77A.3.3,0,0,1,120.39,168.21Zm-3.12,1.49a.34.34,0,0,1,.29.2.33.33,0,0,1-.18.44c-.53.23-1.07.44-1.63.65a.35.35,0,0,1-.43-.2.34.34,0,0,1,.2-.43l1.6-.63A.27.27,0,0,1,117.27,169.7ZM114,170.9a.34.34,0,0,1,.08.66c-.54.17-1.1.34-1.67.5a.33.33,0,0,1-.41-.23.34.34,0,0,1,.23-.42c.56-.15,1.11-.32,1.65-.49A.25.25,0,0,1,114,170.9Zm-3.33.94a.33.33,0,0,1,.3.25.34.34,0,0,1-.25.41c-.55.13-1.12.26-1.7.37a.32.32,0,0,1-.39-.26.34.34,0,0,1,.26-.4q.86-.17,1.68-.36A.17.17,0,0,1,110.69,171.84Zm-3.4.68a.32.32,0,0,1,.31.28.34.34,0,0,1-.27.39l-1.73.26a.34.34,0,0,1-.37-.29.33.33,0,0,1,.28-.38c.58-.08,1.15-.16,1.71-.26Zm-3.43.46a.34.34,0,0,1,0,.67c-.56.06-1.14.11-1.73.15a.33.33,0,0,1-.36-.31.34.34,0,0,1,.31-.36q.87-.06,1.71-.15Zm-3.45.26a.33.33,0,0,1,.31.32.33.33,0,0,1-.32.35l-1.74.06a.34.34,0,0,1-.34-.33.34.34,0,0,1,.33-.35l1.72,0Zm-3.46.07a.34.34,0,0,1,.31.34.34.34,0,0,1-.34.33l-1.74,0a.34.34,0,0,1-.33-.35.35.35,0,0,1,.35-.33l1.72,0Z"/><path d="M83.41,162a4.88,4.88,0,0,0-3.14,8.6v3.78a2.31,2.31,0,0,0,.65,1.57,4,4,0,0,0,5,0,2.23,2.23,0,0,0,.64-1.57v-3.78a4.87,4.87,0,0,0-3.14-8.6Zm3.22,4.87a3.22,3.22,0,1,1-3.22-3.22A3.24,3.24,0,0,1,86.63,166.89Zm-4.75,4.63.13,0a5,5,0,0,0,2.81,0l.13,0v2.89h0c0,.14-.09.82-1.54.82s-1.53-.68-1.53-.81Z"/><path d="M83.41,160.8a.76.76,0,0,0,.76-.76V158.6a.76.76,0,1,0-1.51,0V160A.76.76,0,0,0,83.41,160.8Z"/><path d="M88.54,162.59a.75.75,0,0,0,.53-.22l1-1a.75.75,0,0,0,0-1.08.79.79,0,0,0-1.07,0l-1,1a.78.78,0,0,0,0,1.08A.76.76,0,0,0,88.54,162.59Z"/><path d="M91.73,165.86H90.29a.76.76,0,1,0,0,1.51h1.44a.76.76,0,1,0,0-1.51Z"/><path d="M89.56,170.72a.77.77,0,0,0-1.07,0,.72.72,0,0,0-.23.53.76.76,0,0,0,.23.54l1,1a.76.76,0,0,0,1.08-1.08Z"/><path d="M77.27,170.69l-1,1a.76.76,0,0,0,.54,1.29.76.76,0,0,0,.54-.22l1-1a.76.76,0,1,0-1.07-1.07Z"/><path d="M78.12,162.37a.79.79,0,0,0,.54.22.76.76,0,0,0,.53-1.3l-1-1a.77.77,0,0,0-1.07,0,.78.78,0,0,0,0,1.08Z"/><path d="M77.3,166.61a.76.76,0,0,0-.76-.75H75.1a.76.76,0,1,0,0,1.51h1.44A.76.76,0,0,0,77.3,166.61Z"/><text class="cls-15" transform="translate(9.21 172.51)">Resources</text><path d="M99.57,104.77c-.39-.36-.77-.72-1.14-1.09a.27.27,0,0,1,0-.37.25.25,0,0,1,.36,0l1.13,1.08a.26.26,0,1,1-.35.38Zm1.14.69a.27.27,0,0,1,.37,0c.39.35.79.68,1.19,1a.25.25,0,0,1,0,.37.26.26,0,0,1-.37,0c-.41-.33-.81-.67-1.2-1h0A.26.26,0,0,1,100.71,105.46Zm-3.39-2.9-1.07-1.15a.26.26,0,1,1,.38-.35c.35.38.7.76,1.07,1.14a.27.27,0,0,1,0,.37.27.27,0,0,1-.36,0Zm5.81,4.9a.25.25,0,0,1,.36,0l1.25.93a.25.25,0,0,1,.06.36.27.27,0,0,1-.36.06l-1.27-.94v0A.25.25,0,0,1,103.13,107.46Zm-7.93-7.23-1-1.2a.27.27,0,0,1,0-.37.26.26,0,0,1,.37,0l1,1.19a.26.26,0,0,1,0,.37.27.27,0,0,1-.35,0Zm10.46,9.08a.26.26,0,0,1,.36-.07c.43.28.87.57,1.31.84a.27.27,0,0,1,.09.36.26.26,0,0,1-.36.08l-1.33-.85,0,0A.26.26,0,0,1,105.66,109.31Zm2.66,1.67a.25.25,0,0,1,.35-.1c.45.26.91.5,1.37.75a.26.26,0,0,1-.24.46l-1.39-.76s0,0,0,0A.25.25,0,0,1,108.32,111Zm2.77,1.47a.24.24,0,0,1,.34-.12l1.42.64a.27.27,0,0,1,.14.34.28.28,0,0,1-.35.14c-.48-.21-1-.43-1.43-.66l-.07,0A.26.26,0,0,1,111.09,112.45Zm2.87,1.26a.25.25,0,0,1,.33-.15c.48.19,1,.36,1.46.53a.26.26,0,0,1-.16.5L114.1,114,114,114A.26.26,0,0,1,114,113.71Zm3,1a.27.27,0,0,1,.33-.18q.74.23,1.5.42a.26.26,0,0,1,.18.32.24.24,0,0,1-.31.18c-.52-.13-1-.27-1.52-.42a.21.21,0,0,1-.1-.06A.25.25,0,0,1,116.91,114.75Zm3,.8a.27.27,0,0,1,.31-.2q.77.16,1.53.3a.26.26,0,0,1,.21.3.25.25,0,0,1-.3.21c-.52-.09-1-.19-1.55-.3a.34.34,0,0,1-.12-.06A.29.29,0,0,1,119.94,115.55Zm3.09.57a.27.27,0,0,1,.29-.23c.51.08,1,.14,1.55.19a.26.26,0,0,1,.23.28.25.25,0,0,1-.28.23c-.53,0-1-.11-1.57-.18a.23.23,0,0,1-.14-.07A.25.25,0,0,1,123,116.12Z"/><path d="M65.18,82.48a1.71,1.71,0,1,0-1.7-1.7A1.71,1.71,0,0,0,65.18,82.48Zm0-2.84A1.14,1.14,0,1,1,64,80.78,1.14,1.14,0,0,1,65.18,79.64Z"/><path d="M72.51,83.62a7.75,7.75,0,0,0-4.81-5l.21-.53-.85.18a1.49,1.49,0,0,1-1.46-.56l-.42-.56-.42.56a1.48,1.48,0,0,1-1.45.56l-.86-.18.21.53a7.62,7.62,0,0,0-4.79,4.92,2.58,2.58,0,0,0-1.48,2,2.54,2.54,0,0,0,1.16,2.49.55.55,0,0,1,.24.47V89a1.13,1.13,0,0,0,1,1.12,7.71,7.71,0,0,0,2.13,2.13v1.87H57.51v.57H72.85v-.57h-4V92.62a7.78,7.78,0,0,0,2.86-2.75h1.68v-.56h-.57v-.57H74V83.62Zm.91,2.27H72.29v-1.7h1.13Zm-2.84,2.28V86.46h1.14v1.71Zm-1.7-1.71H70v1.71H68.88Zm0-.57v-1.7H70v1.7Zm1.7,0v-1.7h1.14v1.7Zm-7.27-7a2,2,0,0,0,1.87-.74,2,2,0,0,0,1.87.74,2,2,0,0,0,.74,1.91A2,2,0,0,0,67,82.64a2,2,0,0,0-1.83.79,2.06,2.06,0,0,0-1.59-.76,1.27,1.27,0,0,0-.28,0,2,2,0,0,0-.74-1.91,2,2,0,0,0,.74-1.91Zm-5.45,8.7a2,2,0,0,1,.84-3.65h.23a2,2,0,0,1,2,2A2,2,0,0,1,60,87.57a1.1,1.1,0,0,0-.5.88h-.29V86.7a.87.87,0,0,0,.57-.81.85.85,0,0,0-1.7,0,.86.86,0,0,0,.56.81v1.75h-.28a1.16,1.16,0,0,0-.5-.88Zm.78-1.68a.29.29,0,1,1,.29.29A.29.29,0,0,1,58.64,85.89ZM58.36,89H59.5a.58.58,0,0,1-.57.57A.57.57,0,0,1,58.36,89Zm8.24.57v1.3l-1.13-.23v3.48H64.33v-4l-.57.11v-.62Zm-2.84,1.2v3.35H61.49v-2.9ZM66,94.14V91.36l2.28.45v2.33ZM68.88,92v-.61L67.17,91V89H66.6v-.57H66V89h-.56V87.88H64.9V89h-.57v-.57h-.57V89h-.57v1.3l-2.27.46v.8A7.11,7.11,0,0,1,59.41,90a1.13,1.13,0,0,0,.66-1v-.51a.53.53,0,0,1,.24-.46,2.56,2.56,0,0,0-1.68-4.7l-.09,0a7.08,7.08,0,0,1,4.22-4.16,1.45,1.45,0,0,1-.7,1.24l-.56.33.56.33a1.47,1.47,0,0,1,.6,1.8l-.21.52.86-.17a1.46,1.46,0,0,1,1.45.56l.42.56.45-.6a1.45,1.45,0,0,1,1.4-.56l.8.13-.17-.46a1.45,1.45,0,0,1,.61-1.76l.59-.35-.55-.33a1.46,1.46,0,0,1-.71-1.24,7.19,7.19,0,0,1,4.31,4.41h-3.6v5.12h1.13v.57h-.56v.56h2.19A7,7,0,0,1,68.88,92Zm3.41-2.65H70v-.57h2.28Zm0-1.14V86.46h1.13v1.71Z"/><path d="M73.42,94.14H74v.57h-.57Z"/><path d="M56.37,94.14h.57v.57h-.57Z"/><path d="M66.6,93h1.14v.57H66.6Z"/><path d="M62.05,91.86h1.14v.57H62.05Z"/><path d="M62.05,93h1.14v.57H62.05Z"/><path d="M63.19,85h4v.57h-4Z"/><path d="M66.6,86.18h.57v.57H66.6Z"/><path d="M64.33,86.18h.57v.57h-.57Z"/><path d="M63.19,86.18h.57v.57h-.57Z"/><path d="M65.47,86.18H66v.57h-.56Z"/><path d="M255.57,116.05l.09,0a.31.31,0,0,1,.12.4c-.24.43-.5.87-.77,1.31a.3.3,0,0,1-.4.09.28.28,0,0,1-.09-.4c.27-.43.52-.85.75-1.28A.29.29,0,0,1,255.57,116.05ZM254,118.59a.16.16,0,0,1,.11,0,.29.29,0,0,1,.07.4q-.42.58-.93,1.2a.29.29,0,0,1-.41,0,.3.3,0,0,1,0-.41c.33-.4.63-.79.91-1.17A.3.3,0,0,1,254,118.59Zm-1.91,2.31a.26.26,0,0,1,.15.07.29.29,0,0,1,0,.41c-.33.36-.68.72-1.06,1.08a.29.29,0,0,1-.4-.42c.37-.35.71-.7,1-1.05A.27.27,0,0,1,252.07,120.9ZM249.91,123a.32.32,0,0,1,.17.09.3.3,0,0,1,0,.41c-.38.32-.77.64-1.19,1a.28.28,0,0,1-.4-.06.29.29,0,0,1,0-.4c.41-.31.79-.62,1.16-.93A.27.27,0,0,1,249.91,123Zm-2.39,1.8a.28.28,0,0,1,.19.12.29.29,0,0,1-.08.41c-.41.27-.83.54-1.28.8a.29.29,0,0,1-.4-.1.3.3,0,0,1,.11-.4c.43-.25.85-.52,1.25-.79A.31.31,0,0,1,247.52,124.77ZM245,126.3a.27.27,0,0,1,.21.15.3.3,0,0,1-.13.39c-.44.23-.89.45-1.36.66a.28.28,0,0,1-.38-.14.3.3,0,0,1,.14-.39c.46-.2.91-.42,1.33-.65A.25.25,0,0,1,245,126.3Zm-2.72,1.24a.29.29,0,0,1,.22.18.3.3,0,0,1-.16.38c-.46.18-.93.35-1.42.52a.29.29,0,1,1-.19-.55c.48-.16.94-.33,1.39-.51A.3.3,0,0,1,242.23,127.54Zm-2.83,1a.29.29,0,0,1,.23.21.29.29,0,0,1-.2.35c-.47.14-1,.27-1.46.39a.29.29,0,0,1-.35-.21.29.29,0,0,1,.22-.35c.49-.12,1-.25,1.43-.38A.2.2,0,0,1,239.4,128.51Zm-2.9.71a.29.29,0,0,1,0,.57c-.48.1-1,.19-1.48.27a.29.29,0,0,1-.09-.58c.49-.08,1-.16,1.46-.26Zm-3,.47a.29.29,0,0,1,0,.57l-1.5.16a.31.31,0,0,1-.32-.27.29.29,0,0,1,.27-.31c.5,0,1-.09,1.48-.15Zm-3,.25a.29.29,0,0,1,.24.27.3.3,0,0,1-.28.31l-1.5,0a.31.31,0,0,1-.3-.29A.29.29,0,0,1,229,130l1.49-.05Zm-3,.05a.3.3,0,0,1,.24.29.29.29,0,0,1-.29.29l-1.51,0a.29.29,0,1,1,0-.58l1.48,0Z"/><text class="cls-15" transform="translate(255.81 112.9)">Programs</text><text class="cls-15" transform="translate(223.45 215.46)">Events</text><path d="M237.94,111.53a2.1,2.1,0,1,1,2.1-2.1A2.1,2.1,0,0,1,237.94,111.53Zm0-3.43a1.33,1.33,0,1,0,1.34,1.33A1.34,1.34,0,0,0,237.94,108.1Z"/><path d="M235.33,113.27a.4.4,0,0,1-.15,0,.39.39,0,0,1-.2-.5,3.18,3.18,0,0,1,2.93-1.95H238a3.12,3.12,0,0,1,1.86.61.38.38,0,0,1,.09.53.39.39,0,0,1-.54.09,2.38,2.38,0,0,0-1.41-.46h-.07a2.4,2.4,0,0,0-2.22,1.47.4.4,0,0,1-.36.24Z"/><path d="M248.46,111.53a2.1,2.1,0,1,1,2.09-2.1A2.1,2.1,0,0,1,248.46,111.53Zm0-3.43a1.33,1.33,0,1,0,1.33,1.33A1.34,1.34,0,0,0,248.46,108.1Z"/><path d="M251.07,113.27a.4.4,0,0,1-.36-.24,2.4,2.4,0,0,0-2.22-1.47h-.07A2.38,2.38,0,0,0,247,112a.4.4,0,0,1-.54-.09.38.38,0,0,1,.09-.53,3.12,3.12,0,0,1,1.86-.61h.07a3.18,3.18,0,0,1,2.93,1.95.39.39,0,0,1-.2.5.4.4,0,0,1-.15,0Z"/><path d="M243.2,111.54a2.1,2.1,0,1,1,2.1-2.1A2.1,2.1,0,0,1,243.2,111.54Zm0-3.43a1.33,1.33,0,1,0,1.33,1.33A1.33,1.33,0,0,0,243.2,108.11Z"/><path d="M240.48,113.58h-.11a.39.39,0,0,1-.26-.48,3.2,3.2,0,0,1,3.06-2.3h.06a3.2,3.2,0,0,1,3.06,2.3.39.39,0,0,1-.26.48.39.39,0,0,1-.48-.27,2.42,2.42,0,0,0-2.32-1.74h-.06a2.42,2.42,0,0,0-2.32,1.75A.4.4,0,0,1,240.48,113.58Z"/><path d="M239.65,107.25a.38.38,0,0,1-.38-.38v-1.45h-.55a.38.38,0,0,1-.38-.38V102.6a.38.38,0,0,1,.38-.38h9a.38.38,0,0,1,.38.38V105a.38.38,0,0,1-.38.38h-6.53a.38.38,0,1,1,0-.76h6.15V103h-8.2v1.67h.55a.38.38,0,0,1,.38.38v1.83a.38.38,0,0,1-.38.38Z"/><path d="M246.75,107.15a.38.38,0,0,1-.38-.38v-1.54a.38.38,0,0,1,.76,0v1.54A.38.38,0,0,1,246.75,107.15Z"/><path d="M241.59,102.85a.38.38,0,0,1-.38-.39V102a.38.38,0,0,1,.38-.38.39.39,0,0,1,.39.38v.48A.39.39,0,0,1,241.59,102.85Z"/><path d="M244.81,102.85a.38.38,0,0,1-.38-.39V102a.38.38,0,0,1,.76,0v.48A.38.38,0,0,1,244.81,102.85Z"/><path d="M243.2,99.82a2.1,2.1,0,1,1,2.1-2.1A2.1,2.1,0,0,1,243.2,99.82Zm0-3.43a1.33,1.33,0,1,0,1.33,1.33A1.34,1.34,0,0,0,243.2,96.39Z"/><path d="M246,102.65a.38.38,0,0,1-.38-.38,2.43,2.43,0,0,0-2.42-2.42h-.06a2.43,2.43,0,0,0-2.42,2.42.38.38,0,1,1-.76,0,3.18,3.18,0,0,1,3.18-3.18h.06a3.18,3.18,0,0,1,3.18,3.18A.38.38,0,0,1,246,102.65Z"/><path d="M243.2,101.67a.39.39,0,0,1-.29-.13l-1.19-1.41.59-.5.89,1.06.89-1.09.59.48-1.18,1.45a.39.39,0,0,1-.3.14Z"/><path d="M242.82,101.29h.76v1.26h-.76Z"/><path d="M203.05,167.69s0-.05,0-.08a.3.3,0,0,1,.41-.08c.41.28.82.58,1.22.9a.29.29,0,0,1,.05.41.31.31,0,0,1-.41,0c-.39-.31-.79-.61-1.19-.88A.29.29,0,0,1,203.05,167.69Zm2.36,1.85a.24.24,0,0,1,.06-.11.3.3,0,0,1,.41,0c.36.32.73.67,1.1,1a.28.28,0,0,1,0,.41.29.29,0,0,1-.41,0c-.36-.36-.72-.7-1.07-1A.29.29,0,0,1,205.41,169.54Zm2.11,2.12a.28.28,0,0,1,.09-.13.29.29,0,0,1,.41,0q.48.55,1,1.17a.29.29,0,0,1,0,.41.3.3,0,0,1-.41,0c-.31-.41-.62-.78-.94-1.14A.29.29,0,0,1,207.52,171.66Zm1.84,2.37a.31.31,0,0,1,.11-.16.3.3,0,0,1,.41.07c.27.41.55.83.82,1.27a.29.29,0,0,1-.1.4.28.28,0,0,1-.4-.1c-.26-.43-.53-.84-.8-1.24A.26.26,0,0,1,209.36,174Zm1.55,2.55a.29.29,0,0,1,.14-.17.3.3,0,0,1,.4.12c.23.43.45.88.67,1.35a.29.29,0,1,1-.53.25c-.21-.46-.43-.9-.66-1.33A.34.34,0,0,1,210.91,176.58Zm1.26,2.72a.25.25,0,0,1,.17-.19.29.29,0,0,1,.38.16c.18.46.35.93.52,1.42a.29.29,0,1,1-.55.18c-.16-.47-.33-.94-.51-1.38A.25.25,0,0,1,212.17,179.3Zm1,2.83a.31.31,0,0,1,.2-.2.3.3,0,0,1,.36.2c.13.47.26,1,.38,1.46a.3.3,0,0,1-.22.35.29.29,0,0,1-.35-.22c-.11-.49-.24-1-.37-1.43A.43.43,0,0,1,213.13,182.13Zm.68,2.91a.28.28,0,0,1,.23-.2.28.28,0,0,1,.33.23c.09.48.17,1,.24,1.49a.28.28,0,0,1-.24.33.29.29,0,0,1-.33-.25q-.1-.75-.24-1.47A.29.29,0,0,1,213.81,185Zm.41,3a.3.3,0,0,1,.25-.21.3.3,0,0,1,.32.27c.05.49.09,1,.11,1.5a.29.29,0,0,1-.27.31.31.31,0,0,1-.31-.28c0-.5-.06-1-.11-1.48A.41.41,0,0,1,214.22,188Zm.17,3a.29.29,0,0,1,.57.07c0,.5,0,1,0,1.51a.29.29,0,1,1-.58,0c0-.5,0-1,0-1.48A.28.28,0,0,1,214.39,191Zm0,3a.27.27,0,0,1,.29-.21.3.3,0,0,1,.28.31c0,.49-.06,1-.11,1.5a.29.29,0,1,1-.57-.05c0-.5.07-1,.1-1.48A.15.15,0,0,1,214.34,194Zm-.25,3a.3.3,0,0,1,.31-.21.31.31,0,0,1,.26.33c-.06.48-.12,1-.2,1.49a.29.29,0,0,1-.33.24.28.28,0,0,1-.24-.33c.07-.49.13-1,.19-1.47A.09.09,0,0,1,214.09,197Z"/><path d="M215.33,208.49a4.09,4.09,0,0,0-4,1.75h-.48a2.26,2.26,0,0,0-1.35.66l-.71.71a.25.25,0,0,0-.06.28.28.28,0,0,0,.24.18l1.25.05-.12.35a1.8,1.8,0,0,0-.68,1.93.27.27,0,0,0,.21.22,2.81,2.81,0,0,0,.49,0,1.77,1.77,0,0,0,1.44-.73l.35-.13.06,1.26a.27.27,0,0,0,.17.24h.1a.26.26,0,0,0,.19-.07l.7-.71a2.28,2.28,0,0,0,.66-1.36v-.47a4.12,4.12,0,0,0,1.76-4,.27.27,0,0,0-.19-.18ZM215,209a2.58,2.58,0,0,1-.13,1.33l-1.2-1.2A2.57,2.57,0,0,1,215,209Zm-3.57,4.42-.86-.86.18-.45,1.14,1.13a3.66,3.66,0,0,1-.46.18Zm-1.9-1.83.27-.28a1.79,1.79,0,0,1,1-.5h.08a6.49,6.49,0,0,0-.47.82Zm.32,2.56a1.22,1.22,0,0,1,.41-1.14l.73.73A1.25,1.25,0,0,1,209.89,214.12Zm3.34-.94a1.79,1.79,0,0,1-.51,1l-.27.28,0-.86a9.29,9.29,0,0,0,.82-.48v.08Zm-.79-.22-1.4-1.39a6.09,6.09,0,0,1,1.58-1.88,3.79,3.79,0,0,1,.56-.36l1.5,1.49a6.12,6.12,0,0,1-.37.57,5.89,5.89,0,0,1-1.87,1.57Zm.85-2.24a.33.33,0,1,1-.47,0A.33.33,0,0,1,213.29,210.72Zm6.42-6.69h-1.6v-.64c0-.35-.36-.62-.83-.62s-.83.27-.83.62V204h-1.76v-.64c0-.35-.37-.62-.83-.62s-.83.27-.83.62V204h-1.77v-.64c0-.35-.36-.62-.83-.62s-.83.27-.83.62V204h-1.76v-.64c0-.35-.37-.62-.83-.62s-.83.27-.83.62V204h-1.6a1,1,0,0,0-1,1v12.29a1,1,0,0,0,1,1h15.13a1,1,0,0,0,1-1V205a1,1,0,0,0-1-1Zm-1.55,9.87a.24.24,0,0,0-.23,0,.26.26,0,0,0-.11.21,2.38,2.38,0,0,1-2.34,2.41h-10.9a.47.47,0,0,1-.47-.47v-8.93h16.07v7.3Zm1.61,1-2,1.18-.27.14.07-.07a3.12,3.12,0,0,0,.75-1.65ZM217,203.4a.4.4,0,0,1,.29-.1.41.41,0,0,1,.3.1V204H217v-.63Zm-3.43,0a.44.44,0,0,1,.3-.1.38.38,0,0,1,.29.1V204h-.59v-.63Zm-3.42,0a.38.38,0,0,1,.29-.1.41.41,0,0,1,.3.1V204h-.59v-.63Zm-3.43,0a.44.44,0,0,1,.3-.1.38.38,0,0,1,.29.1V204h-.59v-.63Zm-2.13,1.17h1.6V205c0,.35.36.62.83.62a.27.27,0,1,0,0-.53.44.44,0,0,1-.3-.1v-.41h2.89V205c0,.35.37.62.83.62a.27.27,0,1,0,0-.53.38.38,0,0,1-.29-.1v-.41H213V205c0,.35.36.62.83.62a.27.27,0,1,0,0-.53.44.44,0,0,1-.3-.1v-.41h2.89V205c0,.35.37.62.83.62a.27.27,0,1,0,0-.53.4.4,0,0,1-.29-.1v-.41h2.72a.47.47,0,0,1,.47.46v1.6H204.11V205A.47.47,0,0,1,204.58,204.57Zm15.13,13.22H204.58a.47.47,0,0,1-.47-.47V217a1,1,0,0,0,.47.11h11.47a3.73,3.73,0,0,0,2-.55l2.12-1.26v2a.47.47,0,0,1-.47.47Z"/><text class="cls-15" transform="translate(76.16 90.87)">Ecosystem</text></g></g></g></svg>
