<svg width="161" height="312" viewBox="0 0 161 312" fill="none" xmlns="http://www.w3.org/2000/svg">
<path d="M64.3514 159.28C56.6714 162.93 53.1914 173.45 57.1914 180.96C58.7714 183.96 61.3514 186.53 61.6914 189.87C62.2114 194.99 57.3714 198.99 55.8714 203.87C55.1105 206.795 55.5098 209.901 56.9859 212.538C58.4619 215.175 60.9004 217.139 63.7914 218.02C66.4214 218.71 69.5714 218.59 71.3314 220.66C73.5814 223.3 71.9514 227.66 73.8814 230.57C75.6114 233.18 79.6614 233.31 82.2714 231.57C84.8814 229.83 86.3214 226.82 87.3514 223.86C88.3814 220.9 89.1514 217.79 90.9314 215.21C92.9314 212.38 95.8814 210.44 98.2614 207.95C103.981 201.95 105.731 192.95 104.441 184.74C103.151 176.53 99.1814 169.02 94.6914 162.05" fill="#F79B36"/>
<g opacity="0.3">
<path d="M64.3514 159.28C56.6714 162.93 53.1914 173.45 57.1914 180.96C58.7714 183.96 61.3514 186.53 61.6914 189.87C62.2114 194.99 57.3714 198.99 55.8714 203.87C55.1105 206.795 55.5098 209.901 56.9859 212.538C58.4619 215.175 60.9004 217.139 63.7914 218.02C66.4214 218.71 69.5714 218.59 71.3314 220.66C73.5814 223.3 71.9514 227.66 73.8814 230.57C75.6114 233.18 79.6614 233.31 82.2714 231.57C84.8814 229.83 86.3214 226.82 87.3514 223.86C88.3814 220.9 89.1514 217.79 90.9314 215.21C92.9314 212.38 95.8814 210.44 98.2614 207.95C103.981 201.95 105.731 192.95 104.441 184.74C103.151 176.53 99.1814 169.02 94.6914 162.05" fill="white"/>
</g>
<path d="M71.1014 163.6C64.5914 166.47 61.7414 175.5 65.4214 181.6C67.6714 185.32 72.0314 188.68 70.9714 192.89C70.2514 195.75 67.1914 197.5 66.3114 200.31C65.1414 204.05 68.6814 208.02 72.5814 208.49C76.4814 208.96 80.2414 206.88 83.1914 204.29C93.4014 195.29 95.8914 177.69 89.5214 165.68" fill="#F79B36"/>
<path d="M104.661 106.36C104.661 106.36 138.101 128.48 134.451 166.75L103.711 152.95L104.661 106.36Z" fill="#F79B36"/>
<path d="M49.1006 152.18L56.7006 164.77H96.1106L103.711 152.9L49.1006 152.18Z" fill="#263238"/>
<path d="M74.361 25.15C66.8618 25.6525 59.8446 29.0254 54.7679 34.5678C49.6911 40.1101 46.9453 47.3956 47.101 54.91L49.101 152.91H103.711L105.531 54.86C105.608 50.812 104.843 46.7922 103.284 43.0555C101.726 39.3188 99.4073 35.9468 96.4766 33.1534C93.546 30.36 90.0667 28.2061 86.2596 26.8283C82.4525 25.4506 78.4007 24.879 74.361 25.15Z" fill="#F79B36"/>
<g opacity="0.8">
<path d="M74.361 25.15C66.8618 25.6525 59.8446 29.0254 54.7679 34.5678C49.6911 40.1101 46.9453 47.3956 47.101 54.91L49.101 152.91H103.711L105.531 54.86C105.608 50.812 104.843 46.7922 103.284 43.0555C101.726 39.3188 99.4073 35.9468 96.4766 33.1534C93.546 30.36 90.0667 28.2061 86.2596 26.8283C82.4525 25.4506 78.4007 24.879 74.361 25.15Z" fill="white"/>
</g>
<path d="M48.1013 106.36C48.1013 106.36 14.7013 128.48 18.3613 166.75L49.1013 152.93L48.1013 106.36Z" fill="#F79B36"/>
<path d="M47.4013 51.66C58.9513 41.55 95.2013 41.77 104.931 50C102.431 13.62 74.6513 0 74.6513 0C46.2313 19.68 47.4013 51.66 47.4013 51.66Z" fill="#F79B36"/>
<path d="M74.6514 0.0100098L74.9814 0.310013C75.1914 0.510013 75.5114 0.80001 75.9114 1.19001L77.4314 2.63001L78.4314 3.55001L79.4314 4.67001C80.1514 5.46001 80.9714 6.33001 81.8414 7.31001L84.5014 10.63C84.9514 11.24 85.4014 11.9 85.8714 12.56C86.3414 13.22 86.8714 13.9 87.2914 14.65C88.1814 16.13 89.1714 17.65 90.0214 19.4C91.9721 23.1195 93.4855 27.0523 94.5314 31.12C95.1211 33.3815 95.5587 35.68 95.8414 38C96.0114 39.2 96.1014 40.42 96.2714 41.63C96.3801 42.8869 96.4235 44.1486 96.4014 45.41C96.4014 55.56 96.2714 66.72 96.1414 78.41C95.8614 101.85 95.5314 123.06 95.2814 138.41C95.1514 146.08 95.0413 152.29 94.9613 156.59C94.9613 158.73 94.8814 160.4 94.8614 161.59C94.8614 162.15 94.8614 162.59 94.8614 162.87C94.8614 163.15 94.8614 163.31 94.8614 163.31C94.8614 163.31 94.8614 163.16 94.8614 162.87C94.8614 162.58 94.8614 162.15 94.8614 161.59C94.8614 160.45 94.8614 158.78 94.9114 156.59C94.9614 152.29 95.0414 146.08 95.1314 138.41C95.3314 123.04 95.6014 101.83 95.9114 78.41C96.0414 66.69 96.1914 55.53 96.1914 45.41C96.2187 44.1619 96.1753 42.9132 96.0614 41.67C95.9014 40.44 95.8114 39.23 95.6514 38.04C95.372 35.7268 94.9377 33.435 94.3514 31.18C93.3188 27.1296 91.8257 23.2107 89.9014 19.5C89.0014 17.75 88.0114 16.23 87.1014 14.75C86.6614 14 86.1014 13.34 85.6914 12.66C85.2814 11.98 84.7914 11.34 84.3414 10.73L81.7014 7.40001C80.8414 6.40001 80.0314 5.55001 79.3114 4.75001L78.3114 3.62001L77.3614 2.69001L75.8614 1.23001L74.9514 0.330013L74.6514 0.0100098Z" fill="#263238"/>
<path d="M87.4221 76.4415C89.139 68.6648 84.6726 61.0672 77.446 59.4717C70.2194 57.8762 62.9693 62.8871 61.2523 70.6637C59.5354 78.4404 64.0019 86.038 71.2284 87.6335C78.455 89.229 85.7052 84.2181 87.4221 76.4415Z" fill="#FAFAFA"/>
<path d="M77.4414 59.4701C77.3651 59.4811 77.2876 59.4811 77.2114 59.4701L76.5614 59.3801L76.0814 59.3001H75.4914H74.8114C74.5614 59.3001 74.3014 59.3001 74.0314 59.3001C73.4232 59.3379 72.8184 59.4181 72.2214 59.5401C71.5114 59.6906 70.8155 59.9014 70.1414 60.1701C68.4949 60.8271 66.9882 61.7908 65.7014 63.0101C64.1417 64.4818 62.9232 66.2772 62.1314 68.2701C61.9107 68.8137 61.727 69.3717 61.5814 69.9401C61.5114 70.2301 61.4214 70.5201 61.3514 70.8101L61.2014 71.7101L61.1214 72.1701V72.6301C61.1214 72.9401 61.0714 73.2601 61.0514 73.5701C61.0314 73.8801 61.0514 74.2001 61.0514 74.5201V75.0001L61.1014 75.4901C61.3649 78.207 62.4066 80.7902 64.1014 82.9301C65.8861 85.2557 68.4338 86.8775 71.2962 87.5104C74.1586 88.1432 77.1525 87.7465 79.7514 86.3901C82.1776 85.1466 84.1971 83.2346 85.5714 80.8801L85.8214 80.4701L86.0314 80.0301L86.4514 79.1801L86.7814 78.3001L86.9414 77.8601L87.0714 77.4101L87.3114 76.5301C87.3814 76.2401 87.4114 75.9401 87.4714 75.6501C87.572 75.0711 87.6387 74.4868 87.6714 73.9001C87.8045 71.7586 87.463 69.6142 86.6714 67.6201C85.7558 65.286 84.2164 63.2485 82.2214 61.7301C81.7299 61.3641 81.2156 61.0301 80.6814 60.7301C80.4314 60.6101 80.2114 60.4701 79.9914 60.3701L79.3614 60.1101L78.8114 59.8901L78.3514 59.7501L77.7114 59.5601C77.6386 59.5414 77.5681 59.5145 77.5014 59.4801H77.7214L78.3614 59.6401L78.8414 59.7701L79.3914 59.9801L80.0314 60.2301L80.7314 60.5801C81.2791 60.8788 81.8069 61.2129 82.3114 61.5801C82.8961 62.0224 83.4475 62.5071 83.9614 63.0301C85.2053 64.3207 86.1898 65.8382 86.8614 67.5001C87.6878 69.5173 88.0534 71.6935 87.9314 73.8701C87.9071 74.4669 87.8437 75.0615 87.7414 75.6501C87.6814 75.9501 87.6514 76.2501 87.5814 76.5501C87.5114 76.8501 87.4214 77.1501 87.3314 77.4501L87.2113 77.9001L87.0514 78.3401L86.7114 79.2401L86.2914 80.1101L86.0814 80.5601L85.8214 80.9801C84.4332 83.3866 82.3768 85.3388 79.9014 86.6001C77.2465 87.9934 74.1845 88.4033 71.2566 87.7573C68.3288 87.1114 65.7235 85.4511 63.9014 83.0701C62.19 80.8787 61.1483 78.2395 60.9014 75.4701V74.9801V74.4901C60.9014 74.1701 60.9014 73.8401 60.9014 73.4901C60.9014 73.1401 60.9014 72.8501 60.9814 72.4901V72.0201L61.0514 71.5501C61.1114 71.2501 61.1614 70.9401 61.2114 70.6401C61.2614 70.3401 61.3714 70.0501 61.4514 69.7501C61.5992 69.1734 61.7897 68.6085 62.0214 68.0601C62.8269 66.0343 64.0738 64.2135 65.6714 62.7301C66.9828 61.5058 68.5173 60.5451 70.1914 59.9001C70.8759 59.6342 71.5818 59.4268 72.3014 59.2801C72.9055 59.1645 73.517 59.091 74.1314 59.0601C74.4114 59.0601 74.6714 59.0601 74.9214 59.0601H75.6114H76.2014L76.6814 59.1501L77.3314 59.2701L77.4414 59.4701Z" fill="#263238"/>
<path d="M60.5206 71.39C60.5206 71.56 57.4406 71.48 53.7306 72.15C50.0206 72.82 47.1606 73.94 47.1006 73.78C47.6509 73.3798 48.2668 73.0786 48.9206 72.89C51.9827 71.741 55.23 71.1647 58.5006 71.19C59.1803 71.1465 59.8626 71.2141 60.5206 71.39Z" fill="#263238"/>
<path d="M104.671 71.37C103.845 71.3754 103.021 71.2984 102.211 71.14C100.711 70.96 98.631 70.72 96.331 70.55C94.031 70.38 91.941 70.34 90.421 70.31C89.5993 70.354 88.7754 70.3171 87.9609 70.2C88.7605 69.9924 89.5852 69.8982 90.4109 69.92C92.4108 69.8293 94.4142 69.856 96.4109 70C98.3903 70.1377 100.36 70.3881 102.311 70.75C103.12 70.8582 103.913 71.0664 104.671 71.37Z" fill="#263238"/>
<path d="M104.971 127.45C104.779 127.476 104.584 127.476 104.391 127.45L102.741 127.32L96.6711 126.86C91.5511 126.5 84.4611 126.15 76.6711 126.16C68.8811 126.17 61.7511 126.53 56.6211 126.9L50.5611 127.38L48.9111 127.5C48.7188 127.528 48.5234 127.528 48.3311 127.5C48.5149 127.435 48.7066 127.395 48.9011 127.38L50.5411 127.15C51.9611 126.96 54.0311 126.73 56.5411 126.5C61.6611 126.02 68.7711 125.6 76.6211 125.59C84.4711 125.58 91.6211 125.99 96.6911 126.46C99.2611 126.69 101.321 126.91 102.751 127.1L104.391 127.32C104.589 127.337 104.784 127.381 104.971 127.45Z" fill="#263238"/>
<path d="M61.971 85.44C61.971 85.52 61.631 85.55 61.401 85.94C61.3342 86.0404 61.2898 86.1539 61.2708 86.273C61.2519 86.3921 61.2587 86.5138 61.291 86.63C61.3419 86.753 61.4278 86.8584 61.538 86.933C61.6482 87.0077 61.7779 87.0483 61.911 87.05C62.0447 87.0701 62.1814 87.0505 62.3041 86.9936C62.4267 86.9367 62.53 86.8451 62.601 86.73C62.6507 86.62 62.6764 86.5007 62.6764 86.38C62.6764 86.2593 62.6507 86.14 62.601 86.03C62.431 85.61 62.101 85.53 62.121 85.45C62.141 85.37 62.581 85.3 62.951 85.84C63.0555 86.0012 63.1208 86.1847 63.1417 86.3757C63.1625 86.5668 63.1383 86.76 63.071 86.94C62.9703 87.1642 62.8004 87.3502 62.5862 87.4707C62.372 87.5913 62.1249 87.6401 61.881 87.61C61.6707 87.5988 61.4678 87.5286 61.2956 87.4074C61.1234 87.2862 60.9889 87.1189 60.9075 86.9247C60.826 86.7305 60.801 86.5173 60.8352 86.3095C60.8694 86.1017 60.9616 85.9078 61.101 85.75C61.541 85.22 62.011 85.37 61.971 85.44Z" fill="#263238"/>
<path d="M73.8712 91.85C73.8712 91.94 73.5312 91.97 73.3012 92.36C73.2364 92.4594 73.1932 92.5713 73.1742 92.6884C73.1553 92.8055 73.1611 92.9253 73.1912 93.04C73.2394 93.1657 73.3243 93.2739 73.4349 93.3506C73.5455 93.4273 73.6766 93.4689 73.8112 93.47C73.9458 93.4879 74.0827 93.4662 74.2053 93.4076C74.3278 93.349 74.4306 93.2561 74.5012 93.14C74.5483 93.0311 74.5725 92.9137 74.5725 92.795C74.5725 92.6764 74.5483 92.559 74.5012 92.45C74.3212 92.03 73.9912 91.95 74.0112 91.87C74.0312 91.79 74.4712 91.72 74.8412 92.26C74.9456 92.4194 75.0109 92.6012 75.0318 92.7907C75.0526 92.9801 75.0285 93.1717 74.9612 93.35C74.8608 93.5751 74.6913 93.7623 74.4774 93.8846C74.2634 94.0068 74.0161 94.0578 73.7712 94.03C73.5511 94.0273 73.3367 93.9598 73.1548 93.8359C72.9728 93.7121 72.8314 93.5373 72.7482 93.3336C72.665 93.1298 72.6436 92.906 72.6868 92.6902C72.7301 92.4744 72.8359 92.276 72.9912 92.12C73.4412 91.64 73.9112 91.75 73.8712 91.85Z" fill="#263238"/>
<path d="M87.0007 86.38C87.0007 86.47 86.6707 86.5 86.4307 86.89C86.3659 86.9893 86.3227 87.1012 86.3037 87.2183C86.2848 87.3354 86.2906 87.4552 86.3207 87.57C86.3729 87.6949 86.4602 87.802 86.572 87.8783C86.6838 87.9546 86.8154 87.9969 86.9507 88C87.0841 88.0198 87.2203 87.9989 87.3417 87.94C87.463 87.8811 87.5637 87.787 87.6307 87.67C87.6778 87.561 87.702 87.4436 87.702 87.325C87.702 87.2063 87.6778 87.0889 87.6307 86.9799C87.4607 86.5599 87.1207 86.48 87.1407 86.39C87.1607 86.3 87.6007 86.2499 87.9707 86.7899C88.0791 86.9475 88.1475 87.129 88.1702 87.3189C88.1928 87.5088 88.169 87.7013 88.1007 87.88C87.9961 88.1039 87.8243 88.2897 87.6093 88.4115C87.3942 88.5334 87.1466 88.5853 86.9007 88.56C86.6553 88.5498 86.4195 88.462 86.2273 88.3092C86.035 88.1565 85.8961 87.9467 85.8307 87.71C85.7911 87.523 85.7968 87.3292 85.8472 87.1448C85.8977 86.9604 85.9914 86.7908 86.1207 86.6499C86.5707 86.1699 87.0407 86.32 87.0007 86.38Z" fill="#263238"/>
<path d="M91.2706 76.57C91.2706 76.65 90.9306 76.68 90.6906 77.07C90.6273 77.1719 90.5857 77.2858 90.5685 77.4046C90.5513 77.5233 90.5588 77.6443 90.5906 77.76C90.6388 77.8857 90.7237 77.9939 90.8343 78.0706C90.9449 78.1473 91.076 78.1889 91.2106 78.19C91.3438 78.2071 91.479 78.185 91.5998 78.1264C91.7206 78.0678 91.8217 77.9752 91.8906 77.86C91.9377 77.7511 91.9619 77.6337 91.9619 77.515C91.9619 77.3964 91.9377 77.279 91.8906 77.17C91.7206 76.75 91.3906 76.66 91.4006 76.58C91.4106 76.5 91.8606 76.44 92.2406 76.98C92.3458 77.1391 92.4115 77.321 92.4324 77.5105C92.4533 77.7001 92.4287 77.8919 92.3606 78.07C92.2586 78.2932 92.0885 78.4783 91.8747 78.5987C91.6608 78.7191 91.4143 78.7686 91.1706 78.74C90.9239 78.7304 90.6866 78.643 90.4926 78.4903C90.2986 78.3376 90.1579 78.1275 90.0906 77.89C90.0518 77.703 90.0579 77.5094 90.1083 77.3252C90.1587 77.141 90.252 76.9713 90.3806 76.83C90.8306 76.36 91.3006 76.51 91.2706 76.57Z" fill="#263238"/>
<path d="M57.6306 75.6201C57.6306 75.7001 57.2906 75.7301 57.0606 76.1201C56.9961 76.2215 56.9531 76.335 56.9342 76.4537C56.9152 76.5724 56.9208 76.6936 56.9506 76.8101C56.9999 76.935 57.0851 77.0424 57.1955 77.119C57.3058 77.1955 57.4363 77.2376 57.5706 77.2401C57.705 77.2554 57.841 77.2326 57.963 77.1743C58.085 77.1159 58.1882 77.0243 58.2606 76.9101C58.3101 76.8018 58.3357 76.6841 58.3357 76.5651C58.3357 76.446 58.3101 76.3284 58.2606 76.2201C58.0906 75.8001 57.7606 75.7101 57.7806 75.6301C57.8006 75.5501 58.2406 75.4901 58.6106 76.0301C58.7157 76.1892 58.7815 76.371 58.8023 76.5606C58.8232 76.7501 58.7986 76.9419 58.7306 77.1201C58.6298 77.3443 58.4599 77.5303 58.2458 77.6508C58.0316 77.7714 57.7845 77.8202 57.5406 77.7901C57.2939 77.7804 57.0566 77.693 56.8626 77.5404C56.6686 77.3877 56.5279 77.1776 56.4606 76.9401C56.4214 76.7523 56.4283 76.5578 56.4805 76.3733C56.5328 76.1887 56.6288 76.0195 56.7606 75.8801C57.2006 75.4101 57.6706 75.5601 57.6306 75.6201Z" fill="#263238"/>
<path d="M86.9805 62.1599C86.9805 62.0799 87.3205 62.0499 87.5505 61.6599C87.6173 61.5595 87.6617 61.4459 87.6807 61.3269C87.6996 61.2078 87.6928 61.0861 87.6605 60.9699C87.609 60.8465 87.5233 60.7404 87.4134 60.6642C87.3035 60.588 87.1741 60.5449 87.0405 60.5399C86.9074 60.5228 86.7721 60.5449 86.6513 60.6035C86.5305 60.6621 86.4295 60.7547 86.3605 60.8699C86.3083 60.9774 86.2812 61.0954 86.2812 61.2149C86.2812 61.3344 86.3083 61.4524 86.3605 61.5599C86.5305 61.9799 86.8605 62.0699 86.8405 62.1499C86.8205 62.2299 86.3805 62.2899 86.0105 61.7499C85.9053 61.5908 85.8396 61.4089 85.8187 61.2194C85.7979 61.0298 85.8225 60.838 85.8905 60.6599C85.9912 60.4357 86.1611 60.2497 86.3753 60.1291C86.5895 60.0085 86.8366 59.9597 87.0805 59.9899C87.3006 59.9926 87.515 60.0601 87.697 60.184C87.8789 60.3079 88.0204 60.4826 88.1036 60.6864C88.1868 60.8901 88.2081 61.1139 88.1649 61.3297C88.1217 61.5456 88.0158 61.7439 87.8605 61.8999C87.4105 62.3799 86.9405 62.2199 86.9805 62.1599Z" fill="#263238"/>
<path d="M73.8513 56.3399C73.8513 56.2599 74.1913 56.2299 74.4213 55.8399C74.4858 55.7385 74.5288 55.625 74.5477 55.5063C74.5666 55.3876 74.5611 55.2663 74.5313 55.1499C74.4781 55.0257 74.3906 54.9193 74.279 54.8431C74.1674 54.767 74.0364 54.7242 73.9013 54.7199C73.7682 54.7028 73.6329 54.7249 73.5121 54.7835C73.3913 54.8421 73.2903 54.9347 73.2213 55.0499C73.1743 55.1589 73.15 55.2763 73.15 55.3949C73.15 55.5136 73.1743 55.631 73.2213 55.7399C73.3913 56.1699 73.7313 56.2499 73.7113 56.3299C73.6913 56.4099 73.2513 56.4799 72.8813 55.9299C72.7486 55.7525 72.6721 55.5395 72.6614 55.3183C72.6508 55.097 72.7066 54.8777 72.8217 54.6884C72.9368 54.4991 73.1058 54.3486 73.3071 54.2562C73.5084 54.1638 73.7328 54.1338 73.9513 54.1699C74.1967 54.1801 74.4325 54.2679 74.6248 54.4206C74.8171 54.5734 74.9559 54.7832 75.0213 55.0199C75.0601 55.2069 75.054 55.4005 75.0036 55.5847C74.9532 55.769 74.8599 55.9387 74.7313 56.0799C74.2813 56.5599 73.8113 56.4099 73.8513 56.3399Z" fill="#263238"/>
<path d="M60.8709 62.16C60.8709 62.08 61.2109 62.05 61.4409 61.66C61.5053 61.5586 61.5484 61.445 61.5673 61.3264C61.5862 61.2077 61.5806 61.0864 61.5509 60.97C61.4976 60.8458 61.4101 60.7394 61.2985 60.6632C61.1869 60.587 61.0559 60.5443 60.9209 60.54C60.7877 60.5229 60.6524 60.545 60.5317 60.6036C60.4109 60.6622 60.3098 60.7548 60.2409 60.87C60.1938 60.9789 60.1695 61.0963 60.1695 61.215C60.1695 61.3336 60.1938 61.451 60.2409 61.56C60.4109 61.98 60.7509 62.07 60.7309 62.15C60.7109 62.23 60.2709 62.29 59.9009 61.75C59.7682 61.5726 59.6916 61.3596 59.681 61.1384C59.6703 60.9171 59.7261 60.6977 59.8412 60.5085C59.9563 60.3192 60.1253 60.1687 60.3267 60.0763C60.528 59.9839 60.7523 59.9538 60.9709 59.99C61.2162 60.0002 61.452 60.0879 61.6443 60.2407C61.8366 60.3934 61.9754 60.6033 62.0409 60.84C62.0796 61.027 62.0735 61.2206 62.0231 61.4048C61.9727 61.589 61.8794 61.7587 61.7509 61.9C61.3009 62.38 60.8309 62.22 60.8709 62.16Z" fill="#263238"/>
<path d="M72.191 110.38L73.361 168.89C73.3793 169.703 73.7191 170.475 74.3059 171.037C74.8926 171.599 75.6784 171.906 76.491 171.89C77.281 171.872 78.0338 171.55 78.5926 170.992C79.1513 170.433 79.4731 169.68 79.491 168.89C79.611 158.35 80.001 122.89 80.061 110.32C80.0631 109.753 79.9424 109.192 79.7071 108.676C79.4719 108.16 79.1278 107.701 78.6983 107.33C78.2689 106.959 77.7643 106.686 77.2193 106.529C76.6743 106.372 76.1017 106.335 75.541 106.42C74.5978 106.563 73.7385 107.043 73.1224 107.771C72.5063 108.499 72.1754 109.426 72.191 110.38Z" fill="#F79B36"/>
<g opacity="0.3">
<path d="M72.191 110.38L73.361 168.89C73.3793 169.703 73.7191 170.475 74.3059 171.037C74.8926 171.599 75.6784 171.906 76.491 171.89C77.281 171.872 78.0338 171.55 78.5926 170.992C79.1513 170.433 79.4731 169.68 79.491 168.89C79.611 158.35 80.001 122.89 80.061 110.32C80.0631 109.753 79.9424 109.192 79.7071 108.676C79.4719 108.16 79.1278 107.701 78.6983 107.33C78.2689 106.959 77.7643 106.686 77.2193 106.529C76.6743 106.372 76.1017 106.335 75.541 106.42C74.5978 106.563 73.7385 107.043 73.1224 107.771C72.5063 108.499 72.1754 109.426 72.191 110.38Z" fill="black"/>
</g>
<path d="M74.0012 3.35002C74.1712 3.55002 72.2312 5.43002 69.4012 8.73002C67.9812 10.37 66.4012 12.41 64.7312 14.73C62.9554 17.2758 61.3197 19.9163 59.8312 22.64C58.3807 25.3799 57.0821 28.1975 55.9412 31.08C54.9412 33.75 54.0912 36.2 53.5012 38.29C52.3112 42.47 51.8112 45.13 51.5012 45.09C51.1912 45.05 51.3912 42.33 52.3112 38C52.8622 35.4697 53.5771 32.9777 54.4512 30.54C55.534 27.5538 56.8238 24.6468 58.3112 21.84C59.8391 19.0631 61.5495 16.3906 63.4312 13.84C64.985 11.7661 66.6719 9.79528 68.4812 7.94002C71.6312 4.75002 73.8712 3.20002 74.0012 3.35002Z" fill="white"/>
<path d="M46.8708 112.18C47.0308 112.43 44.2608 114.18 40.4008 117.8L38.9108 119.22C38.3908 119.72 37.9108 120.29 37.3708 120.84C36.2808 121.94 35.2608 123.24 34.1508 124.57C31.8335 127.527 29.7759 130.679 28.0008 133.99C26.2704 137.329 24.8253 140.808 23.6808 144.39C23.2108 146.05 22.6808 147.63 22.4208 149.14C22.2608 149.9 22.0708 150.62 21.9508 151.33C21.8308 152.04 21.7208 152.71 21.6208 153.33C20.8408 158.54 20.9108 161.83 20.6208 161.84C20.5008 161.84 20.3908 161.03 20.2908 159.53C20.2908 159.15 20.2408 158.73 20.2208 158.28C20.2008 157.83 20.2208 157.33 20.2208 156.8C20.2286 155.594 20.2987 154.389 20.4308 153.19C20.5008 152.52 20.5808 151.82 20.6608 151.09C20.7408 150.36 20.9108 149.61 21.0408 148.84C21.2908 147.27 21.7408 145.64 22.1908 143.92C24.3134 136.46 27.9754 129.528 32.9408 123.57C34.018 122.274 35.1594 121.032 36.3608 119.85C36.9208 119.3 37.4508 118.74 38.0008 118.26L39.6008 116.89C40.5175 116.103 41.4755 115.365 42.4708 114.68C42.9008 114.37 43.3008 114.07 43.6808 113.82L44.7508 113.18C46.1008 112.45 46.8008 112.08 46.8708 112.18Z" fill="white"/>
<path d="M3.83094 302.96C2.48577 302.197 1.40687 301.04 0.739733 299.645C0.0725968 298.25 -0.150679 296.684 0.100009 295.158C0.350696 293.632 1.06329 292.22 2.1417 291.112C3.2201 290.003 4.61244 289.252 6.13094 288.96C8.87094 288.42 12.3009 289.2 14.0209 286.96C15.5909 284.96 14.4109 282.32 15.1009 279.12C15.7909 275.92 18.5409 274.41 21.5709 274.45C23.0899 274.538 24.5618 275.01 25.8489 275.822C27.136 276.633 28.1964 277.757 28.9309 279.09C30.5531 282.053 31.2858 285.421 31.0409 288.79C30.2309 295.7 26.5409 299.24 21.9509 302.17C17.3609 305.1 8.67094 305.77 3.83094 302.9" fill="#F79B36"/>
<g opacity="0.8">
<path d="M3.83094 302.96C2.48577 302.197 1.40687 301.04 0.739733 299.645C0.0725968 298.25 -0.150679 296.684 0.100009 295.158C0.350696 293.632 1.06329 292.22 2.1417 291.112C3.2201 290.003 4.61244 289.252 6.13094 288.96C8.87094 288.42 12.3009 289.2 14.0209 286.96C15.5909 284.96 14.4109 282.32 15.1009 279.12C15.7909 275.92 18.5409 274.41 21.5709 274.45C23.0899 274.538 24.5618 275.01 25.8489 275.822C27.136 276.633 28.1964 277.757 28.9309 279.09C30.5531 282.053 31.2858 285.421 31.0409 288.79C30.2309 295.7 26.5409 299.24 21.9509 302.17C17.3609 305.1 8.67094 305.77 3.83094 302.9" fill="white"/>
</g>
<path d="M116.021 247.57C117.136 245.438 118.875 243.698 121.006 242.582C123.138 241.467 125.559 241.03 127.946 241.329C130.333 241.628 132.571 242.649 134.361 244.256C136.151 245.863 137.407 247.979 137.961 250.32C138.961 254.57 137.961 259.95 141.491 262.52C144.701 264.85 148.761 262.84 153.801 263.72C158.841 264.6 161.361 268.8 161.471 273.54C161.581 278.28 158.681 282.78 154.671 285.3C150.147 288.007 144.94 289.354 139.671 289.18C128.841 288.33 123.091 282.78 118.241 275.8C113.391 268.82 111.831 255.29 116.021 247.57Z" fill="#F79B36"/>
<g opacity="0.8">
<path d="M116.021 247.57C117.136 245.438 118.875 243.698 121.006 242.582C123.138 241.467 125.559 241.03 127.946 241.329C130.333 241.628 132.571 242.649 134.361 244.256C136.151 245.863 137.407 247.979 137.961 250.32C138.961 254.57 137.961 259.95 141.491 262.52C144.701 264.85 148.761 262.84 153.801 263.72C158.841 264.6 161.361 268.8 161.471 273.54C161.581 278.28 158.681 282.78 154.671 285.3C150.147 288.007 144.94 289.354 139.671 289.18C128.841 288.33 123.091 282.78 118.241 275.8C113.391 268.82 111.831 255.29 116.021 247.57Z" fill="white"/>
</g>
<path d="M35.2109 233.39C34.0054 234.01 32.9942 234.95 32.2885 236.107C31.5827 237.265 31.2099 238.594 31.2109 239.95C31.2612 241.456 31.796 242.905 32.7357 244.083C33.6755 245.26 34.9701 246.103 36.4272 246.486C37.8842 246.869 39.426 246.772 40.8234 246.209C42.2208 245.646 43.3993 244.647 44.1836 243.361C44.968 242.074 45.3164 240.569 45.177 239.069C45.0377 237.569 44.4181 236.154 43.4103 235.034C42.4025 233.914 41.0603 233.149 39.5831 232.853C38.1059 232.557 36.5726 232.745 35.2109 233.39Z" fill="#F79B36"/>
<g opacity="0.8">
<path d="M35.2109 233.39C34.0054 234.01 32.9942 234.95 32.2885 236.107C31.5827 237.265 31.2099 238.594 31.2109 239.95C31.2612 241.456 31.796 242.905 32.7357 244.083C33.6755 245.26 34.9701 246.103 36.4272 246.486C37.8842 246.869 39.426 246.772 40.8234 246.209C42.2208 245.646 43.3993 244.647 44.1836 243.361C44.968 242.074 45.3164 240.569 45.177 239.069C45.0377 237.569 44.4181 236.154 43.4103 235.034C42.4025 233.914 41.0603 233.149 39.5831 232.853C38.1059 232.557 36.5726 232.745 35.2109 233.39Z" fill="white"/>
</g>
</svg>
