<svg id="Layer_1" data-name="Layer 1" xmlns="http://www.w3.org/2000/svg" viewBox="0 0 124 124"><defs><style>.cls-1{fill:#010101;}</style></defs><g id="Outline"><path class="cls-1" d="M120,58H108V56a6,6,0,0,0-6-6H98a6,6,0,0,0-6,6v2H81.09l-.25-1.39h0A8,8,0,0,0,73.57,50l-1-4H86a8,8,0,0,0,8-8V10a8,8,0,0,0-8-8H38a8,8,0,0,0-8,8V38a8,8,0,0,0,8,8H51.44l-1,4a8,8,0,0,0-7.27,6.59L42.91,58H34V52a2,2,0,0,0-2-2H28V44a2,2,0,0,0-2-2H8a2,2,0,0,0-2,2V58H4a2,2,0,0,0-2,2v4a6,6,0,0,0,6,6h3.67L4.72,115.14A6,6,0,0,0,16.49,117L23.72,70H40.79L38,85.65a2,2,0,0,0,.56,1.76,29.54,29.54,0,0,0,8.16,5.32l-5.49,22a5.88,5.88,0,0,0,11.41,2.85l.79-3.14L62,108l8.54,6.4.78,3.14a5.89,5.89,0,0,0,11.42-2.85l-5.49-22a29.54,29.54,0,0,0,8.16-5.32A2,2,0,0,0,86,85.65L83.21,70h17.07l7.23,47a6,6,0,0,0,11.77-1.8h0l-7-45.14H116a6,6,0,0,0,6-6V60A2,2,0,0,0,120,58ZM96,56a2,2,0,0,1,2-2h4a2,2,0,0,1,2,2v2H96ZM34,38V10a4,4,0,0,1,4-4H86a4,4,0,0,1,4,4V38a4,4,0,0,1-4,4H38A4,4,0,0,1,34,38Zm34.44,8,1,4H54.56l1-4ZM24,46v4H10V46ZM10,54H30v4H10Zm2.54,62.34a2,2,0,0,1-3.86-.59l7-45.75h4ZM8,66a2,2,0,0,1-2-2V62H42.2l-.7,4Zm40.12,51.6a1.89,1.89,0,0,1-3-1.94l5.37-21.47a35.37,35.37,0,0,0,3.63,1l-5.35,21.4A1.83,1.83,0,0,1,48.12,117.6ZM65.89,95.8l.9,3.6L62,103l-4.79-3.6.9-3.6a38.9,38.9,0,0,0,7.78,0ZM55,108.25l1.16-4.64,2.51,1.89Zm10.33-2.75,2.51-1.89L69,108.25Zm13.53,10.16a1.88,1.88,0,0,1-1.37,2.28,1.92,1.92,0,0,1-1.62-.34,1.87,1.87,0,0,1-.66-1l-5.35-21.4a35.37,35.37,0,0,0,3.63-1ZM62,92a31.79,31.79,0,0,1-19.84-6.76L47.09,57.3A4,4,0,0,1,51,54H73a4,4,0,0,1,3.94,3.3h0l4.93,27.94A31.79,31.79,0,0,1,62,92Zm53.32,23.75a2,2,0,0,1-3.86.59h0L104.33,70h4ZM118,64a2,2,0,0,1-2,2H82.5l-.7-4H118Z"/><rect class="cls-1" x="54" y="22" width="16" height="4" transform="translate(1.19 50.87) rotate(-45)"/><rect class="cls-1" x="63.66" y="27.65" width="8" height="4" transform="translate(-1.15 56.53) rotate(-45)"/><rect class="cls-1" x="52.34" y="16.34" width="8" height="4" transform="translate(3.53 45.21) rotate(-45)"/><path class="cls-1" d="M98,40v6h4V42h10V54h4V40a2,2,0,0,0-2-2h-1.44l1.38-5.52-3.88-1L108.44,38h-2.88l-1.62-6.49-3.88,1L101.44,38H100A2,2,0,0,0,98,40Z"/></g></svg>