<svg id="Layer_1" data-name="Layer 1" xmlns="http://www.w3.org/2000/svg" viewBox="0 0 124 124"><defs><style>.cls-1{fill:#010101;}</style></defs><path class="cls-1" d="M51.83,27.5a9.9,9.9,0,0,0,4.38,5.42v1l-7.75,3a10.71,10.71,0,0,0-6.78,10.39v6.75A1.89,1.89,0,0,0,43.57,56h4.82a1.9,1.9,0,0,0,0-3.79H45.47V47.39a7,7,0,0,1,4.25-6.82l.09,0,7.1-2.78,3.77,3.67A1.87,1.87,0,0,0,62,42h0a1.91,1.91,0,0,0,1.33-.58l3.56-3.7L74,40.53l.1,0a7,7,0,0,1,4.26,6.82v4.86h-24a1.9,1.9,0,1,0,0,3.79H80.26a1.91,1.91,0,0,0,1.9-1.91V47.39A10.72,10.72,0,0,0,75.38,37l-7.55-3V32.92a9.88,9.88,0,0,0,4.38-5.43,5.34,5.34,0,0,0,3-9.45V14.7A12.72,12.72,0,0,0,62.45,2h-.9a12.71,12.71,0,0,0-12.7,12.7V18a5.33,5.33,0,0,0,3,9.47Zm20.86-6.44.21.06a1.5,1.5,0,0,1,.43,1.06,1.52,1.52,0,0,1-.64,1.24ZM64,35.22,62,37.39l-2-1.91V34.19a8.92,8.92,0,0,0,1.16.08h1.72A8.92,8.92,0,0,0,64,34.19ZM68.9,24.45a6,6,0,0,1-6,6H61.16a6,6,0,0,1-6-6v-5a19.5,19.5,0,0,0,10.13-3.91,8.56,8.56,0,0,0,3.63,3.48v5.4ZM52.63,14.7a8.93,8.93,0,0,1,8.92-8.91h.9a8.93,8.93,0,0,1,8.92,8.91v1.2l-.1,0h0c-2.62-.6-3.48-4.09-3.48-4.12a1.9,1.9,0,0,0-3.39-.69c-3.4,4.71-11,4.76-11.1,4.76H53l-.14,0-.07,0-.11,0h0V14.7ZM51,21.16a1.77,1.77,0,0,0,.31-.08v2.39A1.53,1.53,0,0,1,51,21.16Z"/><path class="cls-1" d="M79.44,8.57a56.53,56.53,0,0,1,29.83,23.12,1.87,1.87,0,0,0,1.59.87,1.81,1.81,0,0,0,1-.3,1.89,1.89,0,0,0,.58-2.61A60.29,60.29,0,0,0,80.62,5a1.89,1.89,0,1,0-1.18,3.6Z"/><path class="cls-1" d="M12,32.26a1.81,1.81,0,0,0,1,.3,1.9,1.9,0,0,0,1.6-.87A56.38,56.38,0,0,1,44.78,8.45a1.89,1.89,0,1,0-1.15-3.61A60.09,60.09,0,0,0,11.38,29.65,1.88,1.88,0,0,0,12,32.26Z"/><path class="cls-1" d="M38.47,113.1a56.28,56.28,0,0,1-23.9-20.8,1.9,1.9,0,0,0-3.19,2,60.05,60.05,0,0,0,25.5,22.19,1.89,1.89,0,1,0,1.59-3.44Z"/><path class="cls-1" d="M111.88,91.73a1.89,1.89,0,0,0-2.61.57,56.41,56.41,0,0,1-23.52,20.62,1.89,1.89,0,1,0,1.61,3.43,60.11,60.11,0,0,0,25.1-22A1.91,1.91,0,0,0,111.88,91.73Z"/><path class="cls-1" d="M42.48,87.11V80.37A10.73,10.73,0,0,0,35.71,70l-7.55-3V65.9a9.87,9.87,0,0,0,4.37-5.43A5.33,5.33,0,0,0,35.48,51V47.68A12.72,12.72,0,0,0,22.77,35h-.9a12.72,12.72,0,0,0-12.7,12.7V51a5.33,5.33,0,0,0,3,9.47,9.84,9.84,0,0,0,4.37,5.42v1L8.78,70A10.71,10.71,0,0,0,2,80.37v6.75A1.9,1.9,0,0,0,3.89,89H8.71a1.9,1.9,0,0,0,0-3.79H5.79V80.37a7,7,0,0,1,4.26-6.82l.08,0,7.1-2.78L21,74.41a1.89,1.89,0,0,0,1.32.54h0a1.92,1.92,0,0,0,1.34-.58l3.56-3.7,7.08,2.84.09,0a7,7,0,0,1,4.27,6.82v4.86h-24a1.9,1.9,0,1,0,0,3.79H40.58A1.91,1.91,0,0,0,42.48,87.11ZM33,54l.21.06A1.54,1.54,0,0,1,33,56.4V54ZM11.67,56.45a1.55,1.55,0,0,1-.31-2.31,1.57,1.57,0,0,0,.31-.08Zm1.9-7.66h-.25l-.14,0-.07,0-.11,0h0V47.68a8.92,8.92,0,0,1,8.91-8.91h.9a8.93,8.93,0,0,1,8.92,8.91v1.2l-.1,0h-.05c-2.62-.6-3.47-4.09-3.48-4.12A1.89,1.89,0,0,0,24.68,44C21.27,48.74,13.67,48.79,13.57,48.79ZM24.37,68.2l-2.09,2.17-2-1.91V67.17a9,9,0,0,0,1.17.08H23.2a9,9,0,0,0,1.17-.08ZM23.2,63.46H21.49a6,6,0,0,1-6-6v-5h0A19.53,19.53,0,0,0,25.6,48.55,8.51,8.51,0,0,0,29.23,52v5.4A6,6,0,0,1,23.2,63.46Z"/><path class="cls-1" d="M115.23,70l-7.55-3V65.9a9.87,9.87,0,0,0,4.37-5.43A5.34,5.34,0,0,0,115,51V47.68A12.72,12.72,0,0,0,102.3,35h-.91a12.72,12.72,0,0,0-12.7,12.7V51a5.33,5.33,0,0,0,3,9.47,9.84,9.84,0,0,0,4.37,5.42v1L88.3,70a10.71,10.71,0,0,0-6.78,10.39v6.75a1.9,1.9,0,0,0,1.9,1.9h4.81a1.9,1.9,0,0,0,0-3.79H85.31V80.37a7,7,0,0,1,4.26-6.82l.08,0,7.1-2.78,3.77,3.67a1.89,1.89,0,0,0,1.32.54h0a1.92,1.92,0,0,0,1.34-.58l3.56-3.7,7.08,2.84.09,0a7,7,0,0,1,4.27,6.82v4.86h-24a1.9,1.9,0,0,0,0,3.79h25.86A1.91,1.91,0,0,0,122,87.11V80.37A10.73,10.73,0,0,0,115.23,70ZM112.54,54a1.66,1.66,0,0,0,.21.06,1.54,1.54,0,0,1-.21,2.3V54ZM91.19,56.45a1.55,1.55,0,0,1-.31-2.31,1.57,1.57,0,0,0,.31-.08Zm1.9-7.66h-.25l-.13,0-.08,0-.11,0h0V47.68a8.92,8.92,0,0,1,8.91-8.91h.91a8.92,8.92,0,0,1,8.91,8.91v1.2l-.1,0h0c-2.61-.6-3.47-4.09-3.48-4.12A1.89,1.89,0,0,0,104.2,44C100.79,48.74,93.19,48.79,93.09,48.79Zm10.8,19.41-2.09,2.17-2-1.91V67.17a9,9,0,0,0,1.17.08h1.71a9,9,0,0,0,1.17-.08Zm-1.17-4.74H101a6,6,0,0,1-6-6v-5h0a19.5,19.5,0,0,0,10.14-3.91A8.51,8.51,0,0,0,108.75,52v5.4A6,6,0,0,1,102.72,63.46Z"/><path class="cls-1" d="M75.38,103l-7.55-3V98.88a9.83,9.83,0,0,0,4.38-5.42,5.34,5.34,0,0,0,3-9.45V80.67A12.72,12.72,0,0,0,62.45,68h-.9a12.71,12.71,0,0,0-12.7,12.71V84a5.32,5.32,0,0,0,3,9.46,9.83,9.83,0,0,0,4.38,5.42v1.05l-7.75,3a10.7,10.7,0,0,0-6.78,10.39v6.75A1.89,1.89,0,0,0,43.57,122h4.81a1.9,1.9,0,1,0,0-3.79H45.47v-4.85a7,7,0,0,1,4.25-6.82l.09,0,7.1-2.77,3.77,3.67a1.9,1.9,0,0,0,1.32.53h0a1.83,1.83,0,0,0,1.33-.58l3.56-3.69L74,106.5l.08,0a7,7,0,0,1,4.28,6.83v4.85h-24a1.9,1.9,0,1,0,0,3.79H80.26a1.91,1.91,0,0,0,1.9-1.91v-6.73A10.7,10.7,0,0,0,75.38,103ZM72.69,87l.21,0a1.51,1.51,0,0,1,.43,1.06,1.54,1.54,0,0,1-.64,1.25V87Zm-21.34,2.4a1.53,1.53,0,0,1-.7-1.29,1.51,1.51,0,0,1,.39-1l.31-.08Zm1.9-7.65H53l-.13,0-.09,0-.09,0,0,0V80.67a8.93,8.93,0,0,1,8.92-8.92h.9a8.93,8.93,0,0,1,8.92,8.92v1.19l-.1,0h0c-2.62-.6-3.48-4.1-3.48-4.13A1.9,1.9,0,0,0,64.35,77C61,81.72,53.34,81.78,53.25,81.78ZM64,101.19,62,103.35l-2-1.91v-1.28a8.92,8.92,0,0,0,1.16.07h1.72a8.92,8.92,0,0,0,1.16-.07Zm-1.16-4.75H61.16a6,6,0,0,1-6-6v-5h0a19.53,19.53,0,0,0,10.13-3.92A8.51,8.51,0,0,0,68.9,85v5.41A6,6,0,0,1,62.88,96.44Z"/></svg>