<svg id="Layer_1" data-name="Layer 1" xmlns="http://www.w3.org/2000/svg" viewBox="0 0 124 124"><defs><style>.cls-1{fill:#010101;}</style></defs><path class="cls-1" d="M110.63,96.47a4.17,4.17,0,0,0-1.23-3l-7-7-2.65,2.66,7,7a.47.47,0,0,1,0,.66l-10,10a.47.47,0,0,1-.66,0h0l-7-7a1.88,1.88,0,0,0-2.37-.23,45.06,45.06,0,0,1-5,2.87l1.65,3.37c1.41-.69,2.8-1.46,4.14-2.29l5.9,5.9a4.22,4.22,0,0,0,6,0l10-10A4.15,4.15,0,0,0,110.63,96.47Z"/><path class="cls-1" d="M64,24.55l-.19,3.75A33.78,33.78,0,0,1,90.66,44.16l3.18-2A37.53,37.53,0,0,0,64,24.55Z"/><path class="cls-1" d="M34.6,36.39,37.34,39A33.55,33.55,0,0,1,60.22,28.3L60,24.55A37.32,37.32,0,0,0,34.6,36.39Z"/><path class="cls-1" d="M14.6,99.45l10,10a4.22,4.22,0,0,0,6,0l5.9-5.9a48.49,48.49,0,0,0,14.34,6v8.33A4.22,4.22,0,0,0,55,122H69a4.22,4.22,0,0,0,4.22-4.22v-8.34a46.35,46.35,0,0,0,6.3-2L78.2,104a45,45,0,0,1-7.2,2.1,1.88,1.88,0,0,0-1.5,1.84v9.84a.47.47,0,0,1-.47.47H55a.47.47,0,0,1-.47-.47v-9.84A1.88,1.88,0,0,0,53,106.1a44.51,44.51,0,0,1-15.81-6.55,1.88,1.88,0,0,0-2.37.23l-7,7a.47.47,0,0,1-.66,0h0l-9.95-10a.47.47,0,0,1,0-.66h0l7-7a1.88,1.88,0,0,0,.23-2.37A45,45,0,0,1,20,78.2l-3.49,1.35a48.14,48.14,0,0,0,4,8l-5.9,5.9A4.22,4.22,0,0,0,14.6,99.45Z"/><path class="cls-1" d="M22.4,40.61c.63-1.17,1.32-2.32,2.05-3.42a1.88,1.88,0,0,0-.23-2.37l-7-7a.47.47,0,0,1,0-.66l10-9.95a.47.47,0,0,1,.66,0h0l7,7a1.88,1.88,0,0,0,2.37.23A44.51,44.51,0,0,1,53,17.9a1.88,1.88,0,0,0,1.5-1.84V6.22A.47.47,0,0,1,55,5.75H69a.47.47,0,0,1,.47.47v9.84A1.88,1.88,0,0,0,71,17.9a44.51,44.51,0,0,1,15.81,6.55,1.88,1.88,0,0,0,2.37-.23l7-7a.47.47,0,0,1,.66,0h0l10,10a.47.47,0,0,1,0,.66l-7,7a1.86,1.86,0,0,0-.23,2.36,46.45,46.45,0,0,1,3.85,7.15l3.45-1.47a47.5,47.5,0,0,0-3.35-6.45l5.9-5.9a4.22,4.22,0,0,0,0-6h0l-10-9.94a4.22,4.22,0,0,0-6,0l-5.9,5.9a48.49,48.49,0,0,0-14.34-5.95V6.22A4.22,4.22,0,0,0,69,2H55a4.22,4.22,0,0,0-4.22,4.22v8.33A48.49,48.49,0,0,0,36.41,20.5l-5.9-5.9a4.22,4.22,0,0,0-6,0l-10,10a4.22,4.22,0,0,0,0,6l5.9,5.9c-.49.79-1,1.6-1.4,2.41Z"/><rect class="cls-1" x="2" y="71.38" width="22.5" height="3.75"/><path class="cls-1" d="M30.67,46.92l16.95-5.13.3-.12A2.81,2.81,0,0,1,50,41.51l5.52,2.69,1.65-3.37-5.63-2.74L51.38,38a6.59,6.59,0,0,0-5,.23l-16.54,5h-9.1V47h9.37A2,2,0,0,0,30.67,46.92Z"/><rect class="cls-1" x="2" y="43.25" width="15" height="3.75"/><path class="cls-1" d="M70.13,86.33l-1.59-.91a6.55,6.55,0,0,0-4.68-.73,6.6,6.6,0,0,0-3.11-4.18l-1.59-.92a6.54,6.54,0,0,0-4.72-.71,6.57,6.57,0,0,0-3.06-4L49.79,74a6.51,6.51,0,0,0-4.73-.71,6.56,6.56,0,0,0-3.06-4l-1.59-.92a6.57,6.57,0,0,0-9,2.41l-3.78,6.54a6.57,6.57,0,0,0,2.4,9h0l1.59.91h0a6.58,6.58,0,0,0,4.73.72h0a6.55,6.55,0,0,0,3.06,4L41,92.8h0a6.57,6.57,0,0,0,3.27.88,6.39,6.39,0,0,0,1.45-.17h0a6.52,6.52,0,0,0,3,4l1.59.91h0a6.49,6.49,0,0,0,3.27.88,6.78,6.78,0,0,0,1.42-.15,6.55,6.55,0,0,0,3.1,4.18l1.59.91a6.56,6.56,0,0,0,9-2.4l1.39-2.41A6.6,6.6,0,0,0,75,98.21L89.84,87.92,87.7,84.84,72.83,95.15l-.06,0-.28.19,0-.08A6.58,6.58,0,0,0,70.13,86.33ZM37.05,82.92a5.08,5.08,0,0,0-.4.81,2.84,2.84,0,0,1-3.11.2h0L32,83a2.81,2.81,0,0,1-1-3.84l3.78-6.55a2.82,2.82,0,0,1,3.84-1l1.59.92a2.82,2.82,0,0,1,1.36,2.91,6.48,6.48,0,0,0-.67,1Zm9.37,5.62a7.61,7.61,0,0,0-.4.81,2.8,2.8,0,0,1-3.11.2h0l-1.59-.92A2.81,2.81,0,0,1,40,85.73a6.41,6.41,0,0,0,.68-1l3.77-6.54a5.53,5.53,0,0,0,.4-.81,2.78,2.78,0,0,1,1.71-.58,2.75,2.75,0,0,1,1.4.38l1.59.91A2.83,2.83,0,0,1,50.87,81a6.35,6.35,0,0,0-.67,1Zm9.38,5.82q-.15.26-.27.51a2.82,2.82,0,0,1-3.24.31h0l-1.59-.92a2.81,2.81,0,0,1-1.37-2.91A6.8,6.8,0,0,0,50,90.4l3.78-6.55a7.61,7.61,0,0,0,.4-.81,2.84,2.84,0,0,1,1.71-.57,2.87,2.87,0,0,1,1.4.37l1.59.92a2.83,2.83,0,0,1,1.31,3.17,6.75,6.75,0,0,0-.62.89Zm13.48-.94L65.5,100a2.82,2.82,0,0,1-3.84,1l-1.59-.92a2.81,2.81,0,0,1-1.3-3.17,7.78,7.78,0,0,0,.61-.89l3.78-6.54c.09-.17.18-.34.26-.51a2.82,2.82,0,0,1,3.24-.31l1.59.92a2.81,2.81,0,0,1,1,3.84Z"/><path class="cls-1" d="M122,78.88V75.12h-1.88a2,2,0,0,0-.48.07L98.58,80.81a7.51,7.51,0,0,1-8.49-3.61L84.26,66.71A1.87,1.87,0,0,0,81.71,66a1.28,1.28,0,0,0-.21.14l-.37.28a7.51,7.51,0,0,1-10.27-1.2L67.19,60.8a1.87,1.87,0,0,0-2.28-.48l-7.5,3.75-.06,0a11,11,0,0,1-13.41-1.88l18.9-15.36,15.9-3.45.14,0a2.81,2.81,0,0,1,2.6.53l0,0L94.6,54.11a1.89,1.89,0,0,0,1.7.31l9.38-2.89L104.57,48l-8.44,2.6L83.86,41a6.55,6.55,0,0,0-6-1.24L61.6,43.29a2,2,0,0,0-.78.38L40.06,60.55a1.86,1.86,0,0,0-.28,2.62l.13.17A15.57,15.57,0,0,0,48.77,69a14.85,14.85,0,0,0,10.35-1.6l6.14-3.07L68,67.61a11.26,11.26,0,0,0,14,2.7L86.81,79a11.24,11.24,0,0,0,12.73,5.41l20.83-5.55Z"/><path class="cls-1" d="M122,43.25h-1.88a2.09,2.09,0,0,0-.55.08l-11.25,3.46,1.11,3.59,11-3.38H122Z"/></svg>