<svg id="Layer_1" data-name="Layer 1" xmlns="http://www.w3.org/2000/svg" viewBox="0 0 124 124"><defs><style>.cls-1{fill:#010101;}</style></defs><path class="cls-1" d="M120.85,52.51h-4.27l-6.36,3.34a9.52,9.52,0,0,0-2.26-.93l-8-2V52a13.33,13.33,0,0,0,5.7-10.89V37.8c0-7.37-5.78-13.54-12.88-13.76-.36,0-.72,0-1.07,0l2.07-4.85-10-10L77.8,13a32.34,32.34,0,0,0-7.1-2.94L69.23,3.15H54.77L53.3,10.07A31.9,31.9,0,0,0,46.2,13L40.27,9.16l-10,10,2,4.86L32,24a13.3,13.3,0,0,0-13.7,13.28v3.8A13.35,13.35,0,0,0,24,52v.91l-5.21,1.31L9.36,48.71H3.15V88.05l18.68,6.22h3.64l.45-1.59,5.72,3.44a5.91,5.91,0,0,0,5.7,5.72,5.92,5.92,0,0,0,5.7,5.7,5.91,5.91,0,0,0,5.69,5.69A5.9,5.9,0,0,0,58,117.92l1.69,1.48a5.77,5.77,0,0,0,3.82,1.45h.35a5.79,5.79,0,0,0,5.77-5.71,5.77,5.77,0,0,0,5.69-5.69,5.78,5.78,0,0,0,5.7-5.7,5.84,5.84,0,0,0,5.7-5.83,5.25,5.25,0,0,0,0-.56l34.2-17.1Zm-18.2-15.18v3.38a9.71,9.71,0,0,1-4.85,8.37l-1,.56v6.13l9.67,2.41L85.23,69.39V64.17a9.63,9.63,0,0,0-2.78-6.74l6.65-1.66V49.64l-1-.56a9.7,9.7,0,0,1-4.84-8.37V36.84a9.67,9.67,0,0,1,10-9.67A10,10,0,0,1,102.65,37.33ZM64.92,67.87l-8.76-2.8a24,24,0,0,0-12.41-.57l-1.1.25v-.58A5.79,5.79,0,0,1,47,58.54l11.09-2.77V49.64l-1-.56a9.73,9.73,0,0,1-4.84-8.37V36.84a9.67,9.67,0,0,1,10-9.67,10,10,0,0,1,9.38,10.16v3.38a9.71,9.71,0,0,1-4.85,8.37l-1,.56v6.13L77,58.54a5.79,5.79,0,0,1,4.39,5.63v7.26l-.47.25H79.69l-11.9-3.4A11.63,11.63,0,0,0,64.92,67.87ZM43.08,31a21.27,21.27,0,0,1,37.76-.16,13.51,13.51,0,0,0-1.42,6v3.87a13.6,13.6,0,0,0,5.81,11.11v.92l-7.75,1.94-7.74-1.94v-.92a13.6,13.6,0,0,0,5.81-11.11V37.33c0-7.52-5.89-13.81-13.13-14a13.54,13.54,0,0,0-14,13.54v3.87a13.6,13.6,0,0,0,5.81,11.11v.92l-7.74,1.94-7.75-1.94v-.92a13.6,13.6,0,0,0,5.81-11.11V37.33A14.32,14.32,0,0,0,43.08,31Zm-8.9-11.71,6.18-6.18,5.44,3.54L46.85,16a28.47,28.47,0,0,1,8.38-3.47l1.19-.29,1.34-6.35h8.48l1.34,6.35,1.19.28A29,29,0,0,1,77.15,16l1,.64,5.45-3.54,6.17,6.17L87.62,24.4a13.44,13.44,0,0,0-4.09,2.71l-.22.24a25.14,25.14,0,0,0-42.69.12,13.63,13.63,0,0,0-4.27-3Zm-7,36.51V49.64l-1-.56a9.71,9.71,0,0,1-4.85-8.37V36.84a9.67,9.67,0,0,1,10-9.67,10,10,0,0,1,9.38,10.16v3.38a9.73,9.73,0,0,1-4.84,8.37l-1,.56v6.13l6.64,1.66a9.63,9.63,0,0,0-2.78,6.74v1.44l-6,1.34.15-.55L33,62.82l-10.21-6ZM5.87,52.32H7.28L21.2,60.44l-7,28.1L5.87,85.77ZM21.67,91l-3.81-1.27,6.82-27.29,4.42,2.58v.55L21.83,91ZM34.9,96.6a2.15,2.15,0,0,1,.64-1.53l3.4-3.4a2.17,2.17,0,0,1,3.71,1.53A2.23,2.23,0,0,1,42,94.74l-3.4,3.4a2.22,2.22,0,0,1-1.54.63A2.17,2.17,0,0,1,34.9,96.6Zm5.81,5.81a2.18,2.18,0,0,1,.63-1.53l3.41-3.41a2.17,2.17,0,0,1,3.07,3.07L44.41,104a2.17,2.17,0,0,1-3.7-1.54Zm5.81,5.81a2.22,2.22,0,0,1,.63-1.54l3.4-3.4a2.22,2.22,0,0,1,1.54-.63,2.17,2.17,0,0,1,2.17,2.17,2.15,2.15,0,0,1-.64,1.53l-3.4,3.4a2.15,2.15,0,0,1-1.53.64A2.17,2.17,0,0,1,46.52,108.22Zm8,8A2.17,2.17,0,0,1,52.32,114a2.15,2.15,0,0,1,.64-1.53l3.4-3.4a2.15,2.15,0,0,1,1.53-.64,2.17,2.17,0,0,1,2.17,2.17,2.22,2.22,0,0,1-.63,1.54l-3.4,3.4A2.22,2.22,0,0,1,54.49,116.19Zm9.36,1.94h-.36a2,2,0,0,1-1.33-.51l-1.45-1.27,1.46-1.46a6,6,0,0,0,1.22-1.8l1.76,1.47a2,2,0,0,1-1.3,3.57Zm17.36-17.42h-.34a2.09,2.09,0,0,1-1.33-.48L69.05,91.48l-2.48,3L76.76,103a2,2,0,0,1-1.29,3.57H75a2,2,0,0,1-1.29-.47L63.24,97.29l-2.48,3L71,108.76a2,2,0,0,1,.73,1.54,2,2,0,0,1-2,2,3.22,3.22,0,0,1-2-.73L63.3,108a6,6,0,0,0-5.19-3.38,6,6,0,0,0-5.81-5.8A6,6,0,0,0,46.49,93a6,6,0,0,0-6-5.83,6.11,6.11,0,0,0-4.28,1.77l-3.4,3.4a6.88,6.88,0,0,0-.54.67l-5.95-3.57,5.22-18.24,13.06-2.91A19.92,19.92,0,0,1,55,68.75l2.85.91L48.16,74.5a6.43,6.43,0,0,0-3.58,5.79v.39a6.49,6.49,0,0,0,9.82,5.56l7.21-4.33a4,4,0,0,1,4.64.45L82.6,97.08a2.08,2.08,0,0,1-1.39,3.63Zm36.92-22.49L85.52,94.53q-.15-.16-.33-.33L68.84,79.49a7.76,7.76,0,0,0-9.23-.89L52.4,82.92a2.61,2.61,0,0,1-3.95-2.24v-.39A2.6,2.6,0,0,1,49.9,78l10.79-5.4a8.4,8.4,0,0,1,6-.56l12.17,3.47,2.94.08,36.3-19.11Z"/></svg>