<svg id="Layer_1" data-name="Layer 1" xmlns="http://www.w3.org/2000/svg" viewBox="0 0 124 124"><defs><style>.cls-1{fill:#010101;}</style></defs><path class="cls-1" d="M120.24,110.36h-2.12v-6a1.76,1.76,0,0,0-1.76-1.76h-6v-6a1.76,1.76,0,0,0-1.76-1.76h-2.12V56.36h2.12a1.76,1.76,0,0,0,1.76-1.76v-6h6a1.76,1.76,0,0,0,1.76-1.76V39.07a1.76,1.76,0,0,0-1.76-1.76H113L63,2.68a1.74,1.74,0,0,0-2,0L11,37.31H7.64a1.76,1.76,0,0,0-1.76,1.76v7.76a1.76,1.76,0,0,0,1.76,1.76h6v6a1.76,1.76,0,0,0,1.76,1.76h2.12V94.82H15.41a1.76,1.76,0,0,0-1.76,1.76v6h-6a1.76,1.76,0,0,0-1.76,1.76v6H3.76A1.75,1.75,0,0,0,2,112.11v7.77a1.76,1.76,0,0,0,1.76,1.76H120.24a1.76,1.76,0,0,0,1.76-1.76v-7.77A1.75,1.75,0,0,0,120.24,110.36Zm-13.4-7.77H90.94V98.34h15.9Zm-12-7.77V56.36H103V94.82Zm12-42H90.94V48.59h15.9ZM89.18,56.36H91.3V94.82H89.18a1.76,1.76,0,0,0-1.76,1.76v6h-14v-6a1.76,1.76,0,0,0-1.76-1.76H69.58V56.36h2.13a1.76,1.76,0,0,0,1.76-1.76v-6h14v6A1.76,1.76,0,0,0,89.18,56.36ZM54.05,48.59H70v4.25H54.05Zm3.88,7.77h8.14V94.82H57.93Zm12,42v4.25H54.05V98.34ZM9.4,40.83H40.07a1.76,1.76,0,0,0,0-3.52H17.15L62,6.26l44.85,31.05H47.11a1.76,1.76,0,0,0,0,3.52H114.6v4.25H9.4Zm7.76,7.76h15.9v4.25H17.16Zm12,7.77V94.82H21.05V56.36Zm-12,42h15.9v4.25H17.16Zm17.66-3.52H32.7V56.36h2.12a1.76,1.76,0,0,0,1.76-1.76v-6h14v6a1.75,1.75,0,0,0,1.75,1.76h2.13V94.82H52.29a1.75,1.75,0,0,0-1.75,1.76v6h-14v-6A1.76,1.76,0,0,0,34.82,94.82ZM9.4,106.11H114.6v4.25H9.4Zm109.08,12H5.52v-4.25h113Z"/></svg>