<svg id="Layer_1" data-name="Layer 1" xmlns="http://www.w3.org/2000/svg" viewBox="0 0 124 124"><defs><style>.cls-1{fill:#010101;}</style></defs><path class="cls-1" d="M118.13,106.86V77.42a9.65,9.65,0,0,0-5.81-17.37,9.43,9.43,0,0,0-1.93.2V52.31h3l3.69-5.55a6.31,6.31,0,0,0,1.08-3.54,6.4,6.4,0,0,0-3.87-5.87v-16h3.87V9.73H75.31L66.64,3.48a8.06,8.06,0,0,0-9.28,0L48.69,9.73H5.87V21.34H9.74v16a6.4,6.4,0,0,0-3.87,5.87A6.31,6.31,0,0,0,7,46.76l3.69,5.55h3v7.94a9.43,9.43,0,0,0-1.93-.2A9.65,9.65,0,0,0,5.87,77.42v29.44A5.79,5.79,0,0,0,2,112.31V122H122v-9.68A5.79,5.79,0,0,0,118.13,106.86Zm-3.87-.36h-3.87V79.21a9.43,9.43,0,0,0,1.93.2,9.6,9.6,0,0,0,1.94-.2ZM36.84,91H29.1V63.92h7.74Zm69.68,3.87v3.87h-89V94.89ZM56.19,91H48.45V63.92h7.74Zm19.36,0H67.81V63.92h7.74ZM94.9,91H87.16V63.92H94.9ZM17.48,102.63h89v3.87h-89Zm100.65-32.9a5.81,5.81,0,1,1-5.81-5.81A5.81,5.81,0,0,1,118.13,69.73ZM110.39,35l-19-13.64h19Zm3.87-21.38v3.87H86.07L80.69,13.6Zm-54.63-7a4.12,4.12,0,0,1,4.74,0l41.95,30.21H99.41L62,9.26,24.59,36.83H17.68ZM92.88,36.83H31.12L62,14.07ZM9.74,13.6H43.31l-5.37,3.87H9.74Zm22.82,7.74L13.61,35V21.34ZM10.17,44.62a2.51,2.51,0,0,1,2.09-3.92h99.48a2.51,2.51,0,0,1,2.09,3.92l-2.54,3.82H12.71Zm7.31,7.69h89V62a9.58,9.58,0,0,0,0,15.38V91H98.77v-31H83.29V91H79.42v-31H63.94V91H60.06v-31H44.58V91H40.71v-31H25.23V91H17.48V77.42a9.58,9.58,0,0,0,0-15.38Zm-5.8,11.61a5.81,5.81,0,1,1-5.81,5.81A5.81,5.81,0,0,1,11.68,63.92Zm0,15.49a9.43,9.43,0,0,0,1.93-.2V106.5H9.74V79.21a9.6,9.6,0,0,0,1.94.2Zm106.45,38.71H5.87v-5.81a1.94,1.94,0,0,1,1.94-1.94H116.19a1.94,1.94,0,0,1,1.94,1.94Z"/><path class="cls-1" d="M56.19,27.15A5.81,5.81,0,1,0,62,21.34,5.81,5.81,0,0,0,56.19,27.15Zm7.75,0A1.94,1.94,0,1,1,62,25.21,1.94,1.94,0,0,1,63.94,27.15Z"/></svg>