<svg id="Layer_1" data-name="Layer 1" xmlns="http://www.w3.org/2000/svg" viewBox="0 0 124 124"><defs><style>.cls-1{fill:#010101;}</style></defs><path class="cls-1" d="M120.24,113.78h-3.88V64.7h3.88A1.76,1.76,0,0,0,121.72,62L108.57,41.33a1.75,1.75,0,0,0-1.48-.82h-35l-8.36-8.36v-6.9h17a1.76,1.76,0,0,0,1.46-2.74l-3.1-4.66,3.1-4.66a1.76,1.76,0,0,0-1.46-2.74h-17v-2a1.76,1.76,0,1,0-3.52,0V32.15l-8.36,8.36h-35a1.75,1.75,0,0,0-1.48.82L2.28,62A1.76,1.76,0,0,0,3.76,64.7H7.64v49.08H3.76a1.76,1.76,0,0,0,0,3.52H120.24a1.76,1.76,0,1,0,0-3.52ZM106.12,44,117,61.18H92.79L75.65,44ZM77.5,14l-1.94,2.89a1.79,1.79,0,0,0,0,2l1.94,2.9H63.76V14ZM17.88,44H48.35L31.21,61.18H7ZM11.16,64.7H32.29l.08,0,.08,0,.08,0,.09,0,.07,0a.2.2,0,0,0,.08,0l.07,0,.08,0,.08-.05.06,0a1.42,1.42,0,0,0,.13-.12L62,35.37,90.81,64.18a1.42,1.42,0,0,0,.13.12l.06,0,.08.05.08,0,.07,0a.2.2,0,0,0,.08,0l.07,0,.08,0,.09,0,.08,0,.08,0h21.13v49.08H75V89.24a5.52,5.52,0,0,0-5.52-5.52h-15A5.52,5.52,0,0,0,49,89.24v24.54H11.16ZM71.51,91.24h-19v-2a2,2,0,0,1,2-2h15a2,2,0,0,1,2,2Zm-19,3.52h7.75v19H52.49Zm11.27,0h7.75v19H63.76Z"/><path class="cls-1" d="M62,77.85a13,13,0,1,0-13-13A13,13,0,0,0,62,77.85Zm0-22.54a9.51,9.51,0,1,1-9.51,9.51A9.52,9.52,0,0,1,62,55.31Z"/><path class="cls-1" d="M62,66.58a1.76,1.76,0,0,0,1.76-1.76V59.18a1.76,1.76,0,1,0-3.52,0v3.88H56.36a1.76,1.76,0,1,0,0,3.52Z"/><path class="cls-1" d="M43.21,93.12H33.82a1.76,1.76,0,0,0-1.76,1.76v11.27a1.76,1.76,0,0,0,1.76,1.76h9.39A1.76,1.76,0,0,0,45,106.15V94.88A1.75,1.75,0,0,0,43.21,93.12Zm-1.76,3.52v2.11H35.58V96.64Zm-5.87,7.75v-2.12h5.87v2.12Z"/><path class="cls-1" d="M26.31,93.12h-9.4a1.76,1.76,0,0,0-1.76,1.76v11.27a1.76,1.76,0,0,0,1.76,1.76h9.4a1.76,1.76,0,0,0,1.76-1.76V94.88A1.76,1.76,0,0,0,26.31,93.12Zm-1.77,3.52v2.11H18.67V96.64Zm-5.87,7.75v-2.12h5.87v2.12Z"/><path class="cls-1" d="M42.63,70.57H34.41a2.35,2.35,0,0,0-2.35,2.35V85.48a1.76,1.76,0,0,0,1.76,1.76h9.39A1.75,1.75,0,0,0,45,85.48V72.92A2.35,2.35,0,0,0,42.63,70.57Zm-1.18,3.52v4H35.58v-4Zm-5.87,9.63V81.61h5.87v2.11Z"/><path class="cls-1" d="M25.72,70.57H17.5a2.35,2.35,0,0,0-2.35,2.35V85.48a1.76,1.76,0,0,0,1.76,1.76h9.4a1.76,1.76,0,0,0,1.76-1.76V72.92A2.35,2.35,0,0,0,25.72,70.57Zm-1.18,3.52v4H18.67v-4Zm-5.87,9.63V81.61h5.87v2.11Z"/><path class="cls-1" d="M97.69,107.91h9.4a1.76,1.76,0,0,0,1.76-1.76V94.88a1.76,1.76,0,0,0-1.76-1.76h-9.4a1.76,1.76,0,0,0-1.76,1.76v11.27A1.76,1.76,0,0,0,97.69,107.91Zm1.77-3.52v-2.12h5.87v2.12Zm5.87-7.75v2.11H99.46V96.64Z"/><path class="cls-1" d="M80.79,107.91h9.39a1.76,1.76,0,0,0,1.76-1.76V94.88a1.76,1.76,0,0,0-1.76-1.76H80.79A1.75,1.75,0,0,0,79,94.88v11.27A1.76,1.76,0,0,0,80.79,107.91Zm1.76-3.52v-2.12h5.87v2.12Zm5.87-7.75v2.11H82.55V96.64Z"/><path class="cls-1" d="M97.69,87.24h9.4a1.76,1.76,0,0,0,1.76-1.76V72.92a2.35,2.35,0,0,0-2.35-2.35H98.28a2.35,2.35,0,0,0-2.35,2.35V85.48A1.76,1.76,0,0,0,97.69,87.24Zm1.77-3.52V81.61h5.87v2.11Zm5.87-9.63v4H99.46v-4Z"/><path class="cls-1" d="M80.79,87.24h9.39a1.76,1.76,0,0,0,1.76-1.76V72.92a2.35,2.35,0,0,0-2.35-2.35H81.37A2.35,2.35,0,0,0,79,72.92V85.48A1.75,1.75,0,0,0,80.79,87.24Zm1.76-3.52V81.61h5.87v2.11Zm5.87-9.63v4H82.55v-4Z"/></svg>