<svg id="Layer_1" data-name="Layer 1" xmlns="http://www.w3.org/2000/svg" viewBox="0 0 124 124"><defs><style>.cls-1{fill:#010101;}</style></defs><path class="cls-1" d="M108.24,84.8a1.64,1.64,0,0,1-1.46-.89,15.65,15.65,0,0,0-2.59-3.71,1.63,1.63,0,1,1,2.34-2.28l0,0a19.76,19.76,0,0,1,3.12,4.46,1.65,1.65,0,0,1-.72,2.2,1.71,1.71,0,0,1-.74.17Z"/><path class="cls-1" d="M95.45,74.89a1.54,1.54,0,0,1-.52-.09L76.25,68.41a1.63,1.63,0,0,1,1.06-3.09L96,71.71a1.63,1.63,0,0,1-.53,3.18Z"/><path class="cls-1" d="M110.37,119.17H13.63A1.63,1.63,0,0,1,12,117.54V91.84A20.5,20.5,0,0,1,25.83,72.45l20.86-7.13a1.63,1.63,0,1,1,1.14,3.06l-.09,0L26.88,75.56A17.21,17.21,0,0,0,15.27,91.84V115.9h93.46V99.32a1.64,1.64,0,0,1,3.27,0v18.22A1.63,1.63,0,0,1,110.37,119.17Z"/><path class="cls-1" d="M72.54,90.66a1.6,1.6,0,0,1-1.2-.53L60.49,78.33a1.63,1.63,0,0,1,.09-2.3l.16-.13L75.2,65.54a1.63,1.63,0,1,1,1.91,2.65h0l-13,9.29,8.22,8.94L84.39,69a1.63,1.63,0,1,1,2.7,1.84h0L73.88,90a1.6,1.6,0,0,1-1.23.7Z"/><path class="cls-1" d="M50.84,90.66h-.12a1.64,1.64,0,0,1-1.24-.72l-12.74-19a1.64,1.64,0,0,1,2.72-1.83L51.06,86.4l8.19-8.92-13-9.29a1.64,1.64,0,0,1,1.91-2.66L62.64,75.9A1.62,1.62,0,0,1,63,78.18l-.13.15L52,90.14a1.64,1.64,0,0,1-1.2.52Z"/><path class="cls-1" d="M88.2,119.17H35.8a1.64,1.64,0,0,1-1.64-1.63v-12a1.64,1.64,0,0,1,3.27,0V115.9H86.57V105.54a1.64,1.64,0,0,1,3.27,0v12A1.64,1.64,0,0,1,88.2,119.17Z"/><path class="cls-1" d="M61.69,61.15A28.16,28.16,0,1,1,89.85,33,28.16,28.16,0,0,1,61.69,61.15Zm0-53A24.89,24.89,0,1,0,86.58,33,24.89,24.89,0,0,0,61.69,8.1Z"/><path class="cls-1" d="M61.69,34.63A8.46,8.46,0,0,1,53,26.47a8.75,8.75,0,0,1,17.46,0,1.63,1.63,0,1,1-3.26,0,5.5,5.5,0,0,0-10.94,0,5.22,5.22,0,0,0,5.47,4.9,1.63,1.63,0,1,1,0,3.26Z"/><path class="cls-1" d="M61.69,47.71A8.48,8.48,0,0,1,53,39.54a1.63,1.63,0,1,1,3.26,0,5.5,5.5,0,0,0,10.94,0,5.22,5.22,0,0,0-5.47-4.9,1.64,1.64,0,0,1,0-3.27,8.48,8.48,0,0,1,8.73,8.17A8.48,8.48,0,0,1,61.69,47.71Z"/><path class="cls-1" d="M61.69,49.89a1.63,1.63,0,0,1-1.63-1.63V17.31a1.63,1.63,0,0,1,3.26,0v31A1.63,1.63,0,0,1,61.69,49.89Z"/></svg>