<svg id="Layer_1" data-name="Layer 1" xmlns="http://www.w3.org/2000/svg" viewBox="0 0 124 124"><defs><style>.cls-1{fill:#010101;}</style></defs><path class="cls-1" d="M104.13,3.4h-5a1.72,1.72,0,0,0,0,3.43h5a9.44,9.44,0,0,1,9.44,9.41V56a9.44,9.44,0,0,1-9.44,9.41H98.41a1.72,1.72,0,0,0-1,.35l-10.49,8V67.1a1.72,1.72,0,0,0-1.71-1.72H64.27a9.39,9.39,0,0,1-4.81-1.31V44.79a10.46,10.46,0,0,0-4.63-8.68V16.24a9.43,9.43,0,0,1,9.44-9.41H88.33a1.72,1.72,0,0,0,0-3.43H64.27A12.87,12.87,0,0,0,51.4,16.24V34.6A10.46,10.46,0,0,0,49,34.31H17.51A10.51,10.51,0,0,0,7,44.79V48.5a1.72,1.72,0,0,0,3.43,0V44.79a7.07,7.07,0,0,1,7.08-7H49a7.07,7.07,0,0,1,7.08,7v20a1.77,1.77,0,0,0,0,.46V76.13c0,.22,0,.43,0,.64H52.45a8,8,0,0,0-7.83,6.52,1.77,1.77,0,0,0-.44.25L36.5,89.47V84.9a1.72,1.72,0,0,0-1.72-1.72H17.51a7.07,7.07,0,0,1-7.08-7.05V58.8A1.72,1.72,0,0,0,7,58.8V76.13A10.52,10.52,0,0,0,17.51,86.62H33.06V93a1.74,1.74,0,0,0,2.77,1.35l8.66-6.68V107a8,8,0,0,0,8,7.94H63v4a1.74,1.74,0,0,0,2.77,1.36l6.95-5.37h2.05a8,8,0,0,0,8-7.94v-3a1.72,1.72,0,0,0-3.43,0v3a4.52,4.52,0,0,1-4.53,4.51H72.12a1.73,1.73,0,0,0-1.05.36l-4.65,3.59v-2.23a1.71,1.71,0,0,0-1.71-1.72H52.45A4.52,4.52,0,0,1,47.93,107V84.72a4.52,4.52,0,0,1,4.52-4.51H74.76a4.52,4.52,0,0,1,4.53,4.51v8.42a1.72,1.72,0,0,0,3.43,0V84.72a8,8,0,0,0-8-7.94H59.44c0-.22,0-8.89,0-8.89a12.82,12.82,0,0,0,4.81.92H83.45v8.42a1.74,1.74,0,0,0,2.76,1.36L99,68.81h5.14A12.87,12.87,0,0,0,117,56V16.24A12.87,12.87,0,0,0,104.13,3.4Z"/><path class="cls-1" d="M88.49,16.08a3.58,3.58,0,0,0-4.4,3.42,10.06,10.06,0,0,1-2.53,6.68l-4.73,5.36a1.73,1.73,0,0,0-1.44-.79H66.16a1.72,1.72,0,0,0-1.72,1.72V53.25A1.72,1.72,0,0,0,66.16,55h9.23A1.7,1.7,0,0,0,77,54a11.94,11.94,0,0,0,6.24,1.76H99.52A4.49,4.49,0,0,0,104,51.07c0-1.1,0-15.89,0-16.22a4.45,4.45,0,0,0-4.44-4.44l-8.49,0,.35-.83a13.39,13.39,0,0,0-.7-11.8,3.55,3.55,0,0,0-2.19-1.67c-.94-.23.93.24,0,0-2.18-.55.93.24,0,0ZM73.68,51.53H67.87V34.19h5.81ZM99.52,33.84a1,1,0,0,1,1,1c0,.33,0,1.21,0,2.41,0,6.64,0,12.93,0,14a1,1,0,0,1-.28.75,1,1,0,0,1-.72.31H83.19a8.52,8.52,0,0,1-5.36-1.9l-.72-.58V36.41l7-8a13.52,13.52,0,0,0,3.38-8.95.1.1,0,0,1,.18,0,10,10,0,0,1,.52,8.76l-1.35,3.21a1.72,1.72,0,0,0,1.57,2.38Z"/><path class="cls-1" d="M21.7,63a1.72,1.72,0,0,0,0,3.43h5.06l-.94,5.72a1.72,1.72,0,0,0,1.41,2l.28,0a1.73,1.73,0,0,0,1.7-1.44l1-6.28h4.15l-1,5.72a1.73,1.73,0,0,0,1.42,2l.28,0a1.72,1.72,0,0,0,1.69-1.44l1-6.28h6.89a1.72,1.72,0,0,0,0-3.43H38.44l.69-4.19h5.63a1.72,1.72,0,0,0,0-3.43H39.7l.94-5.72a1.72,1.72,0,1,0-3.39-.56l-1,6.28H32.07l1-5.72a1.72,1.72,0,1,0-3.39-.56l-1,6.28H21.7a1.72,1.72,0,0,0,0,3.43H28L27.33,63Zm9.81-4.19h4.14L35,63H30.81Z"/><path class="cls-1" d="M63.59,89.07a5.8,5.8,0,0,0-5.09-1.14,6.38,6.38,0,0,0-4.76,6.44,8.43,8.43,0,0,0,2.54,6,25,25,0,0,0,6.52,4.5,1.72,1.72,0,0,0,1.61,0c5.44-2.89,9.06-5.78,9.06-10.54A6.35,6.35,0,0,0,68.54,88a5.75,5.75,0,0,0-5,1.11ZM70,94.37c0,2.57-1.7,4.47-6.43,7.07-4.73-2.6-6.44-4.5-6.44-7.07a3,3,0,0,1,2.14-3.11,3,3,0,0,1,.61-.07,2.37,2.37,0,0,1,2.16,1.38,1.72,1.72,0,0,0,3.08-.06,2.24,2.24,0,0,1,2.63-1.2A2.9,2.9,0,0,1,70,94.37Z"/></svg>