<svg id="Layer_1" data-name="Layer 1" xmlns="http://www.w3.org/2000/svg" viewBox="0 0 124 124"><defs><style>.cls-1{fill:#010101;}</style></defs><path class="cls-1" d="M107.18,71.69H95.93a1.76,1.76,0,0,0,0,3.52h11.25a1.76,1.76,0,0,0,0-3.52Z"/><path class="cls-1" d="M107.18,78.92H95.93a1.76,1.76,0,1,0,0,3.51h11.25a1.76,1.76,0,1,0,0-3.51Z"/><path class="cls-1" d="M107.18,64.47H95.93a1.76,1.76,0,1,0,0,3.51h11.25a1.76,1.76,0,1,0,0-3.51Z"/><path class="cls-1" d="M81.47,62.18A2.85,2.85,0,0,0,78.62,65v1.67H74.5a2.84,2.84,0,0,0-2.84,2.84V71H67.52a2.84,2.84,0,0,0-2.84,2.84v8.23a2.61,2.61,0,0,0,2.61,2.61H86.51a2.61,2.61,0,0,0,2.61-2.61V65a2.85,2.85,0,0,0-2.85-2.84Zm-9.81,19H68.19V74.55h3.47Zm7,0H75.17v-11h3.45Zm7,0H82.15c0-11.37,0-15,0-15.5H85.6V81.2Z"/><path class="cls-1" d="M6.32,113.7H36a1.76,1.76,0,1,0,0-3.52H18V86.57a1.76,1.76,0,1,0-3.51,0v23.61H6.32a.8.8,0,0,1-.8-.81V84.49a11.43,11.43,0,0,1,6.59-10.31l11.43-4.46,6.8,6.8a13.85,13.85,0,0,0,19.57,0l6.7-6.71V93.08a4.52,4.52,0,0,0,4.51,4.51h1.17v12.59H44.23a1.76,1.76,0,1,0,0,3.52h29.7a4.33,4.33,0,0,0,4.32-4.33V97.59h7.3V103a5.51,5.51,0,1,0,3.51,0V97.59h24.42A4.51,4.51,0,0,0,118,93.08V77.55a1.76,1.76,0,1,0-3.51,0V93.08a1,1,0,0,1-1,1H61.12a1,1,0,0,1-1-1V52h54.35V69.35a1.76,1.76,0,1,0,3.51,0V52h0a4,4,0,0,0,4-4V44.59a4,4,0,0,0-4-4H62.58a7.62,7.62,0,0,0-3-4.75,4.36,4.36,0,0,0,.26-1.49V23a6.19,6.19,0,0,0-6.54-6.19.87.87,0,0,1-1-.65c-.77-3.93-3.24-5.85-7.56-5.85H29.87A11.69,11.69,0,0,0,18.2,22V32.86a5.89,5.89,0,0,0,1.53,4,7.22,7.22,0,0,0,4.55,12.39,16,16,0,0,0,6.21,10.54v3.48L10.82,70.91l0,0A14.85,14.85,0,0,0,2,84.49v24.88a4.33,4.33,0,0,0,4.32,4.33Zm81-7.49a2,2,0,1,1-2,2A2,2,0,0,1,87.3,106.21ZM65.8,97.59h8.93v11.78a.8.8,0,0,1-.8.81H65.8V97.59ZM35.54,76,39,72.52h0a2.73,2.73,0,0,0,.39-.5h1.48a2.56,2.56,0,0,0,.39.51L44.69,76a10.29,10.29,0,0,1-9.15,0ZM34,63.65V61.71a16.67,16.67,0,0,0,12.24,0v1.89l-4.9,4.87H38.88ZM47.56,73.89l-3.31-3.33,4.08-4,4.77,1.85Zm9-7.94-6.86-2.66V59.76a15.92,15.92,0,0,0,5.66-8,4,4,0,0,0,1.2.18h0ZM118,44.1a.48.48,0,0,1,.48.49V48a.48.48,0,0,1-.48.49H56.61a.49.49,0,0,1-.49-.49V44.59a.49.49,0,0,1,.49-.49ZM57.15,38.44A4.08,4.08,0,0,1,59,40.58H56.61l-.49,0V38.73a4.43,4.43,0,0,0,1-.29Zm-33,7.18A3.83,3.83,0,0,1,21.05,42,4.05,4.05,0,0,1,23,38.68a6,6,0,0,0,.85.1h.29v6.83Zm0-10.35a2.43,2.43,0,0,1-2.42-2.41V22a8.17,8.17,0,0,1,8.16-8.16H44.79c3.25,0,3.79,1.36,4.11,3a4.39,4.39,0,0,0,4.69,3.47A2.7,2.7,0,0,1,56.35,23V34.35a1,1,0,0,1-.93.92,3.37,3.37,0,0,1-3.36-3.36,2,2,0,0,0-3.8-1,8.15,8.15,0,0,1-7.2,4.32ZM27.64,47.1V38.79H41.06a11.68,11.68,0,0,0,8.36-3.53,6.9,6.9,0,0,0,3.19,2.92V47.1a12.49,12.49,0,0,1-25,0Zm4.21,19.37L36,70.56c-1.79,1.79-1.14,1.14-3.3,3.32l-5.55-5.56Z"/></svg>