<svg id="Layer_1" data-name="Layer 1" xmlns="http://www.w3.org/2000/svg" viewBox="0 0 124 124"><defs><style>.cls-1{fill:#010101;}</style></defs><path class="cls-1" d="M117.56,32.54c4.48-10.71,6-21,4.53-29.84A1.37,1.37,0,0,0,121,1.57c-8.82-1.51-19.13.06-29.84,4.53l-.24.1-.06,0A97.91,97.91,0,0,0,60.25,27.28c-1.49,1.49-2.93,3-4.32,4.59A35.11,35.11,0,0,0,23.23,65.3v.14a.1.1,0,0,0,0,.07,1.37,1.37,0,0,0,.12.44h0l0,.07,0,.06s0,0,0,0a1.78,1.78,0,0,0,.29.32l.06,0,0,0a.2.2,0,0,0,.09.06h0l.09.05.05,0,.08,0,.07,0h.06l.09,0h.51l.07,0H25l.07,0,0,0,.07,0,.06,0,.06,0,.06,0,0,0,.06,0,0,0s.05,0,.06,0l0,0,.05-.06s0,0,0,0l0,0a.83.83,0,0,1,.08-.12A20,20,0,0,1,29,61.94a20.39,20.39,0,0,1,10.87-5.66,75.11,75.11,0,0,0-3.5,9.41l0,.14a.35.35,0,0,1,0,.06s0,0,0,.07v.27s0,0,0,.08a.15.15,0,0,0,0,.06s0,0,0,.06a.14.14,0,0,0,0,.07.11.11,0,0,0,0,.06.13.13,0,0,1,0,.07s0,0,0,.05a.3.3,0,0,0,0,.08s0,0,0,0a.16.16,0,0,0,0,.07l0,.06s0,0,0,0a.81.81,0,0,0,.09.1l2.54,2.55a23,23,0,0,0-12,20.23v5.26a1.4,1.4,0,0,0,1.39,1.39h5.44A23,23,0,0,0,54.22,84.57l2.33,2.34h0l.08.08s0,0,0,0l.07,0a.09.09,0,0,0,.05,0l.07,0,0,0,.11,0,0,0s0,0,.07,0h0l.08,0h.16l.13,0a.3.3,0,0,0,.13,0h.15l.11,0h0a72.77,72.77,0,0,0,9-3.33,20.33,20.33,0,0,1-5.56,10.4c-.37.37-.73.75-1.06,1.11a13,13,0,0,1-2.71,2.43l-.09.06,0,0a.16.16,0,0,0-.06.05,1.45,1.45,0,0,0-.29.32s0,0,0,0a.13.13,0,0,1,0,.06l0,.07h0a1.32,1.32,0,0,0-.13.44s0,0,0,.07v.18a.25.25,0,0,0,0,.09s0,0,0,0,0,.06,0,.09,0,0,0,.06,0,0,0,.06l0,.11s0,0,0,0a1.28,1.28,0,0,0,.16.27l0,0,.08.09s0,0,0,0l.11.1,0,0,.09,0s0,0,0,0a1.33,1.33,0,0,0,.3.11h0a.31.31,0,0,0,.13,0h.28a35.1,35.1,0,0,0,33.43-32.8c1.55-1.37,3.05-2.8,4.53-4.28A98,98,0,0,0,117.45,32.8v0c0-.07.07-.15.1-.23Zm1.28-27.72c1.06,7.52-.31,16.08-3.71,24.79L94.05,8.53C102.76,5.12,111.32,3.76,118.84,4.82ZM28.28,59.05l-.39.39A29.71,29.71,0,0,1,52.49,36,89,89,0,0,0,41.41,52.9a21.25,21.25,0,0,0-13.13,6.15Zm29.77,25.1L39.51,65.62a73.16,73.16,0,0,1,3.05-8.1L66.14,81.1A73,73,0,0,1,58.05,84.15Zm-23.73,9.3h-4V89.61a20.06,20.06,0,0,1,11.25-18L52.31,82.33a20.13,20.13,0,0,1-18,11.12Zm29.38,2.3.79-.84a20.93,20.93,0,0,0,6-12.48,87.87,87.87,0,0,0,17-11.1A29.2,29.2,0,0,1,63.7,95.75Zm30-35A93.67,93.67,0,0,1,69.16,78.63L45,54.52A93.89,93.89,0,0,1,62.86,29.93,91.72,91.72,0,0,1,90.51,10.66L113,33.16A92.17,92.17,0,0,1,93.74,60.79Z"/><path class="cls-1" d="M60.81,60.91l-.46.46a1.38,1.38,0,0,0,0,2,1.41,1.41,0,0,0,1,.4,1.43,1.43,0,0,0,1-.4l.41-.42a1.38,1.38,0,1,0-1.91-2Z"/><path class="cls-1" d="M65.78,55.94l-1.57,1.57a1.38,1.38,0,0,0,0,2,1.39,1.39,0,0,0,2,0l1.53-1.53a1.41,1.41,0,0,0,.24-1.76A1.39,1.39,0,0,0,65.78,55.94Z"/><path class="cls-1" d="M72.9,48.82l-3.49,3.49a1.38,1.38,0,0,0,0,1.95,1.39,1.39,0,0,0,2,0l3.49-3.49a1.38,1.38,0,0,0-1.95-2Z"/><path class="cls-1" d="M94.91,28.75a10.75,10.75,0,1,0,0,15.2A10.76,10.76,0,0,0,94.91,28.75ZM93,42a8,8,0,1,1,2.33-5.66A8,8,0,0,1,93,42Z"/><path class="cls-1" d="M12,79a1.43,1.43,0,0,0,1-.4l8.08-8.09a1.38,1.38,0,1,0-1.95-2L11,76.64a1.39,1.39,0,0,0,0,2A1.37,1.37,0,0,0,12,79Z"/><path class="cls-1" d="M22.7,83.17a1.38,1.38,0,1,0-1.95-2L3.06,98.9a1.38,1.38,0,0,0,1,2.36,1.43,1.43,0,0,0,1-.4Z"/><path class="cls-1" d="M40.48,101.93l-17.39,17.4a1.38,1.38,0,0,0,0,2,1.39,1.39,0,0,0,1.95,0l17.39-17.41a1.38,1.38,0,0,0,0-2A1.4,1.4,0,0,0,40.48,101.93Z"/><path class="cls-1" d="M52.63,103.6l-7,7a1.38,1.38,0,0,0,0,2,1.39,1.39,0,0,0,2,0l7-7a1.38,1.38,0,1,0-1.95-2Z"/><path class="cls-1" d="M25.19,98.46a1.38,1.38,0,0,0-2,0l-18,18a1.39,1.39,0,0,0,1,2.36,1.4,1.4,0,0,0,1-.41l18-18a1.38,1.38,0,0,0,0-2Z"/></svg>