<svg id="Layer_1" data-name="Layer 1" xmlns="http://www.w3.org/2000/svg" viewBox="0 0 124 124"><defs><style>.cls-1{fill:#010101;}</style></defs><path class="cls-1" d="M119.16,75.11a9,9,0,0,0-12.55.28L95.12,87.1H78.24A8.69,8.69,0,0,0,80,81.6a8.91,8.91,0,0,0-8.92-8.53H51.52a11.91,11.91,0,0,0-4.87,1L32.39,80.47H25.93V78.92a1.76,1.76,0,0,0-1.76-1.76h-7.3a1.76,1.76,0,1,0,0,3.51h5.54v37.82H5.52V80.67H8.67a1.76,1.76,0,0,0,0-3.51H3.76A1.76,1.76,0,0,0,2,78.92v41.32A1.76,1.76,0,0,0,3.76,122H24.17a1.76,1.76,0,0,0,1.76-1.76v-.53H44.76a27.33,27.33,0,0,0,6.56-.8l29.12-7.22a1.76,1.76,0,1,0-.84-3.41l-29.13,7.21a23.31,23.31,0,0,1-5.71.7H25.93V84h6.84a1.74,1.74,0,0,0,.71-.15l14.6-6.52a8.5,8.5,0,0,1,3.44-.73H71.07a5.36,5.36,0,0,1,5.4,5.11A5.19,5.19,0,0,1,75,85.51c-1,1-3.78,1.6-3.79,1.6H57.83a1.76,1.76,0,0,0,0,3.51h38a1.75,1.75,0,0,0,1.26-.53l12-12.24a5.46,5.46,0,0,1,7.63-.17,5.48,5.48,0,0,1,.27,7.73L105.33,97.93a23.64,23.64,0,0,1-11.67,6.87l-6.1,1.51a1.76,1.76,0,0,0,.42,3.46,1.63,1.63,0,0,0,.43,0l6.09-1.51a27.18,27.18,0,0,0,13.4-7.88l11.69-12.52a9,9,0,0,0-.43-12.7Z"/><path class="cls-1" d="M73.84,69A33.47,33.47,0,0,0,99.71,14.24,1.76,1.76,0,0,0,97,16.48a29.93,29.93,0,1,1-5.63-5.3,1.76,1.76,0,0,0,2.06-2.85A33.48,33.48,0,1,0,73.84,69Z"/><path class="cls-1" d="M87.34,14.76l-5.85,3.6c-.31-.14-.63-.27-.95-.39L79,11.28a1.76,1.76,0,0,0-1.71-1.35h-6.8a1.76,1.76,0,0,0-1.71,1.35L67.14,18c-.32.12-.63.25-1,.39l-5.85-3.6a1.74,1.74,0,0,0-2.16.25l-4.81,4.81A1.76,1.76,0,0,0,53.11,22l3.61,5.86c-.14.31-.27.62-.4.94l-6.68,1.59a1.76,1.76,0,0,0-1.35,1.71v6.8a1.76,1.76,0,0,0,1.35,1.71l6.68,1.59c.13.32.26.64.4,1L53.11,49a1.77,1.77,0,0,0,.26,2.17L58.18,56a1.76,1.76,0,0,0,2.16.26l5.85-3.6c.32.14.63.27,1,.39l1.59,6.68A1.76,1.76,0,0,0,70.44,61h6.8A1.76,1.76,0,0,0,79,59.68L80.54,53c.32-.12.64-.25.95-.39l5.85,3.6A1.76,1.76,0,0,0,89.51,56l4.8-4.8A1.77,1.77,0,0,0,94.57,49L91,43.13c.14-.31.28-.63.4-1L98,40.59a1.76,1.76,0,0,0,1.35-1.71v-6.8A1.76,1.76,0,0,0,98,30.37l-6.68-1.59c-.12-.32-.26-.63-.4-.94L94.57,22a1.76,1.76,0,0,0-.26-2.16L89.51,15A1.76,1.76,0,0,0,87.34,14.76Zm.06,13.77a15,15,0,0,1,.95,2.28A1.73,1.73,0,0,0,89.61,32l6.27,1.49v4L89.61,39a1.75,1.75,0,0,0-1.26,1.18,15.37,15.37,0,0,1-.95,2.27,1.76,1.76,0,0,0,.07,1.72l3.38,5.49L88,52.49l-5.49-3.38A1.76,1.76,0,0,0,80.79,49a15,15,0,0,1-2.28,1,1.79,1.79,0,0,0-1.17,1.26l-1.49,6.27h-4l-1.49-6.27A1.77,1.77,0,0,0,69.17,50a15,15,0,0,1-2.28-1,1.76,1.76,0,0,0-1.72.07l-5.49,3.38-2.84-2.85,3.37-5.49a1.73,1.73,0,0,0,.07-1.72,14.31,14.31,0,0,1-.94-2.27A1.78,1.78,0,0,0,58.07,39L51.8,37.49v-4L58.07,32a1.77,1.77,0,0,0,1.27-1.17,14,14,0,0,1,.94-2.28,1.73,1.73,0,0,0-.07-1.72l-3.37-5.49,2.84-2.84,5.49,3.37a1.73,1.73,0,0,0,1.72.07A15,15,0,0,1,69.17,21a1.77,1.77,0,0,0,1.17-1.27l1.49-6.26h4l1.49,6.26A1.78,1.78,0,0,0,78.51,21a15,15,0,0,1,2.28.94,1.73,1.73,0,0,0,1.72-.07L88,18.48l2.85,2.84-3.38,5.49a1.76,1.76,0,0,0-.07,1.72Z"/><path class="cls-1" d="M73.84,26.93a8.56,8.56,0,1,0,8.56,8.55A8.56,8.56,0,0,0,73.84,26.93Zm0,13.59a5,5,0,1,1,5-5A5,5,0,0,1,73.84,40.52Z"/></svg>