<?xml version="1.0" encoding="utf-8"?>
<!-- Generator: Adobe Illustrator 24.3.0, SVG Export Plug-In . SVG Version: 6.00 Build 0)  -->
<svg version="1.1" id="Layer_1" xmlns="http://www.w3.org/2000/svg" xmlns:xlink="http://www.w3.org/1999/xlink" x="0px" y="0px"
	 viewBox="0 0 512 512" style="enable-background:new 0 0 512 512;" xml:space="preserve">
<style type="text/css">
	.st0{clip-path:url(#XMLID_3_);}
	.st1{clip-path:url(#SVGID_2_);}
</style>
<g>
	<defs>
		<path id="XMLID_1_" d="M420.2,72l-146.3,85.3c-21.9,12.8-35.7,36.1-36.2,61.5c-0.3,15.9,0,14.4-0.2,17.2c0,0-0.5-0.9-1.1-1.9
			c-1.5-2.4-3.6-4.3-6-5.7L90.5,145.8L91.2,271c0.1,16.7,3.1,33.3,9.4,48.7c4.5,11,10.9,22.2,19.9,29.2c22.8,17.8,152.2,91,152.2,91
			l0.4-93.3c0,0,108.6-63.2,111.6-66.5c0,0,37-32.6,36.8-77.5C421.3,157.8,420.2,72,420.2,72z M231.1,374.4l-45.4-27.1
			c-63.3-36.2-61.2-69.5-61.2-69.5l0.3-67.6l83.5,48.1c3.6,2,6.8,4.6,9.6,7.6c3.2,3.5,5.8,7.1,8,10.5c4.8,7.5,7.3,16.3,7.3,25.3
			l0.1,71.4C233.4,374.3,232.1,375,231.1,374.4z M321.2,274.8l-45.4,27.1c-1,0.6-2.3-0.1-2.3-1.3l0.1-78.6c0-3.4,0.5-6.7,1.7-9.9
			c2.2-6,7-15.2,17.1-22.3c1.2-0.8,2.2-1.9,3.5-2.6l86.2-49.6l0.3,67.6C382.5,205.3,384.6,238.5,321.2,274.8z"/>
	</defs>
	<use xlink:href="#XMLID_1_"  style="overflow:visible;fill:#FFCF61;enable-background:new    ;"/>
	<clipPath id="XMLID_3_">
		<use xlink:href="#XMLID_1_"  style="overflow:visible;enable-background:new    ;"/>
	</clipPath>
	<g id="Group_191" class="st0">
		<g id="Group_190">
			<g>
				<defs>
					<rect id="SVGID_1_" x="89.3" y="73" width="332.2" height="367"/>
				</defs>
				<clipPath id="SVGID_2_">
					<use xlink:href="#SVGID_1_"  style="overflow:visible;"/>
				</clipPath>
				<g id="Group_189" class="st1">
					
						<image style="overflow:visible;enable-background:new    ;" width="179" height="198" id="Rectangle_400_1_" xlink:href="47ABCD9AC5B353D0.jpg"  transform="matrix(1.8643 0 0 1.8643 89.1409 71.4296)">
					</image>
				</g>
			</g>
		</g>
	</g>
</g>
</svg>
